%TF.GenerationSoftware,KiCad,Pcbnew,(6.0.8)*%
%TF.CreationDate,2023-06-24T19:25:15-06:00*%
%TF.ProjectId,RP2040_devBoard,52503230-3430-45f6-9465-76426f617264,rev?*%
%TF.SameCoordinates,Original*%
%TF.FileFunction,Soldermask,Bot*%
%TF.FilePolarity,Negative*%
%FSLAX46Y46*%
G04 Gerber Fmt 4.6, Leading zero omitted, Abs format (unit mm)*
G04 Created by KiCad (PCBNEW (6.0.8)) date 2023-06-24 19:25:15*
%MOMM*%
%LPD*%
G01*
G04 APERTURE LIST*
%ADD10O,1.250000X0.950000*%
%ADD11O,0.890000X1.550000*%
%ADD12C,2.100000*%
%ADD13R,1.700000X1.700000*%
%ADD14O,1.700000X1.700000*%
G04 APERTURE END LIST*
%TO.C,G\u002A\u002A\u002A*%
G36*
X69523246Y-59272123D02*
G01*
X69549771Y-59276299D01*
X69560145Y-59282879D01*
X69562237Y-59288304D01*
X69577832Y-59294414D01*
X69585607Y-59296528D01*
X69608614Y-59310907D01*
X69635507Y-59334402D01*
X69660763Y-59363285D01*
X69672632Y-59390518D01*
X69675495Y-59426951D01*
X69674909Y-59446817D01*
X69669380Y-59473981D01*
X69654601Y-59498930D01*
X69626471Y-59530314D01*
X69614483Y-59542648D01*
X69590633Y-59564609D01*
X69569197Y-59576175D01*
X69541680Y-59580804D01*
X69499587Y-59581953D01*
X69461013Y-59580974D01*
X69432393Y-59577188D01*
X69421726Y-59571254D01*
X69419583Y-59565787D01*
X69403899Y-59559719D01*
X69402564Y-59559648D01*
X69381900Y-59550724D01*
X69357759Y-59531406D01*
X69355640Y-59529253D01*
X69339301Y-59507321D01*
X69331463Y-59480074D01*
X69329446Y-59438741D01*
X69329810Y-59415494D01*
X69333964Y-59384180D01*
X69345891Y-59360491D01*
X69369434Y-59334402D01*
X69383168Y-59321603D01*
X69409035Y-59302096D01*
X69427109Y-59294414D01*
X69435426Y-59293050D01*
X69444796Y-59282879D01*
X69448688Y-59278724D01*
X69469570Y-59273419D01*
X69502470Y-59271344D01*
X69523246Y-59272123D01*
G37*
G36*
X69231022Y-60045216D02*
G01*
X69237166Y-60055722D01*
X69243871Y-60060048D01*
X69248701Y-60078792D01*
X69246538Y-60092201D01*
X69237166Y-60101862D01*
X69231957Y-60109214D01*
X69227382Y-60134207D01*
X69225631Y-60171072D01*
X69224406Y-60202328D01*
X69220240Y-60229775D01*
X69214096Y-60240282D01*
X69207392Y-60244608D01*
X69202561Y-60263352D01*
X69200398Y-60276761D01*
X69191026Y-60286422D01*
X69185720Y-60288374D01*
X69179491Y-60303724D01*
X69178190Y-60311684D01*
X69167956Y-60321027D01*
X69162556Y-60323088D01*
X69156421Y-60338633D01*
X69152660Y-60349504D01*
X69135447Y-60373856D01*
X69109425Y-60402737D01*
X69080305Y-60430435D01*
X69053795Y-60451242D01*
X69035608Y-60459446D01*
X69027366Y-60460797D01*
X69018002Y-60470981D01*
X69013676Y-60477686D01*
X68994932Y-60482516D01*
X68981523Y-60484679D01*
X68971862Y-60494051D01*
X68970685Y-60496637D01*
X68954615Y-60503028D01*
X68925722Y-60505586D01*
X68915379Y-60505880D01*
X68889815Y-60509898D01*
X68879582Y-60517121D01*
X68870610Y-60522709D01*
X68843785Y-60527026D01*
X68804605Y-60528656D01*
X68768284Y-60527276D01*
X68740221Y-60523149D01*
X68729628Y-60517121D01*
X68728451Y-60514535D01*
X68712381Y-60508144D01*
X68683488Y-60505586D01*
X68673145Y-60505292D01*
X68647581Y-60501274D01*
X68637348Y-60494051D01*
X68633022Y-60487347D01*
X68614278Y-60482516D01*
X68600869Y-60480353D01*
X68591208Y-60470981D01*
X68589179Y-60465609D01*
X68573692Y-60459446D01*
X68568498Y-60457864D01*
X68547433Y-60443922D01*
X68517263Y-60418688D01*
X68482676Y-60385946D01*
X68452200Y-60354375D01*
X68424826Y-60321265D01*
X68409013Y-60293214D01*
X68401130Y-60264829D01*
X68393086Y-60217212D01*
X68697302Y-60217212D01*
X68729628Y-60251817D01*
X68742484Y-60264519D01*
X68771435Y-60281890D01*
X68809233Y-60286422D01*
X68820588Y-60286083D01*
X68846263Y-60282038D01*
X68856512Y-60274887D01*
X68860838Y-60268182D01*
X68879582Y-60263352D01*
X68894496Y-60259560D01*
X68902652Y-60240282D01*
X68904815Y-60226873D01*
X68914187Y-60217212D01*
X68914331Y-60217209D01*
X68922381Y-60206904D01*
X68925722Y-60182607D01*
X68925722Y-60148002D01*
X68372044Y-60148002D01*
X68372044Y-60067257D01*
X68372051Y-60064036D01*
X68373553Y-60024857D01*
X68375530Y-60009582D01*
X68683488Y-60009582D01*
X68804605Y-60009582D01*
X68819778Y-60009571D01*
X68868794Y-60009086D01*
X68899818Y-60007314D01*
X68916928Y-60003479D01*
X68924203Y-59996804D01*
X68925722Y-59986512D01*
X68923559Y-59973104D01*
X68914187Y-59963443D01*
X68908633Y-59961188D01*
X68902652Y-59945316D01*
X68902627Y-59943840D01*
X68891733Y-59917083D01*
X68864975Y-59898417D01*
X68828101Y-59888613D01*
X68786859Y-59888441D01*
X68747001Y-59898671D01*
X68714273Y-59920074D01*
X68711959Y-59922466D01*
X68691680Y-59951914D01*
X68683488Y-59980221D01*
X68683488Y-60009582D01*
X68375530Y-60009582D01*
X68377149Y-59997071D01*
X68382111Y-59986512D01*
X68386410Y-59981905D01*
X68392974Y-59960107D01*
X68397950Y-59926442D01*
X68401057Y-59903662D01*
X68408369Y-59875039D01*
X68416720Y-59862038D01*
X68422100Y-59858743D01*
X68429718Y-59841061D01*
X68433657Y-59830138D01*
X68451049Y-59806039D01*
X68477147Y-59777428D01*
X68506236Y-59749974D01*
X68532602Y-59729344D01*
X68550532Y-59721208D01*
X68558774Y-59719857D01*
X68568138Y-59709673D01*
X68572464Y-59702969D01*
X68591208Y-59698138D01*
X68604617Y-59695975D01*
X68614278Y-59686603D01*
X68614280Y-59686460D01*
X68624586Y-59678410D01*
X68648883Y-59675068D01*
X68649313Y-59675067D01*
X68673464Y-59671632D01*
X68683488Y-59663533D01*
X68685234Y-59661234D01*
X68704255Y-59656352D01*
X68741382Y-59653149D01*
X68793070Y-59651998D01*
X68814910Y-59652182D01*
X68861294Y-59654184D01*
X68891722Y-59658093D01*
X68902652Y-59663533D01*
X68902655Y-59663677D01*
X68912960Y-59671727D01*
X68937257Y-59675068D01*
X68937687Y-59675069D01*
X68961838Y-59678504D01*
X68971862Y-59686603D01*
X68979133Y-59694216D01*
X69000913Y-59698138D01*
X69017781Y-59703971D01*
X69047020Y-59723218D01*
X69081799Y-59751551D01*
X69117278Y-59784443D01*
X69148613Y-59817365D01*
X69170965Y-59845787D01*
X69179491Y-59865182D01*
X69180828Y-59873340D01*
X69191026Y-59882698D01*
X69196333Y-59884650D01*
X69202561Y-59900000D01*
X69203863Y-59907960D01*
X69214096Y-59917303D01*
X69219305Y-59924654D01*
X69223880Y-59949647D01*
X69225631Y-59986512D01*
X69226856Y-60017768D01*
X69231022Y-60045216D01*
G37*
G36*
X67936375Y-59652308D02*
G01*
X67984080Y-59654412D01*
X68014995Y-59658253D01*
X68025994Y-59663533D01*
X68025997Y-59663677D01*
X68036302Y-59671727D01*
X68060599Y-59675068D01*
X68061030Y-59675069D01*
X68085181Y-59678504D01*
X68095204Y-59686603D01*
X68097266Y-59692003D01*
X68112810Y-59698138D01*
X68123681Y-59701900D01*
X68148034Y-59719113D01*
X68176914Y-59745135D01*
X68204613Y-59774255D01*
X68225419Y-59800764D01*
X68233624Y-59818952D01*
X68234975Y-59827194D01*
X68245159Y-59836558D01*
X68246216Y-59836881D01*
X68251675Y-59851129D01*
X68255349Y-59883333D01*
X68256694Y-59929141D01*
X68256694Y-60021725D01*
X68205090Y-60073328D01*
X68179239Y-60097174D01*
X68152812Y-60117227D01*
X68135880Y-60124932D01*
X68127638Y-60126283D01*
X68118274Y-60136467D01*
X68118272Y-60136611D01*
X68107967Y-60144661D01*
X68083669Y-60148002D01*
X68083239Y-60148003D01*
X68059088Y-60151438D01*
X68049064Y-60159537D01*
X68048716Y-60161051D01*
X68035377Y-60168175D01*
X68008692Y-60171072D01*
X68003394Y-60171172D01*
X67978460Y-60174983D01*
X67968320Y-60182607D01*
X67967143Y-60185193D01*
X67951073Y-60191584D01*
X67922180Y-60194142D01*
X67911837Y-60194436D01*
X67886273Y-60198454D01*
X67876040Y-60205677D01*
X67873785Y-60211231D01*
X67857913Y-60217212D01*
X67856962Y-60217229D01*
X67837216Y-60223488D01*
X67819763Y-60236851D01*
X67810566Y-60251221D01*
X67815584Y-60260502D01*
X67823417Y-60266740D01*
X67829900Y-60287383D01*
X67830957Y-60296177D01*
X67839117Y-60304703D01*
X67859828Y-60308577D01*
X67898332Y-60309492D01*
X67920695Y-60309241D01*
X67950712Y-60306590D01*
X67966552Y-60299579D01*
X67974087Y-60286422D01*
X67980453Y-60272872D01*
X67992167Y-60263352D01*
X67998416Y-60259031D01*
X68002925Y-60240282D01*
X68003249Y-60234469D01*
X68007090Y-60226463D01*
X68018434Y-60221407D01*
X68041173Y-60218628D01*
X68079198Y-60217454D01*
X68136401Y-60217212D01*
X68175633Y-60217415D01*
X68223999Y-60218862D01*
X68256191Y-60222162D01*
X68276480Y-60227852D01*
X68289136Y-60236471D01*
X68300704Y-60252168D01*
X68294079Y-60260502D01*
X68284987Y-60269919D01*
X68279764Y-60293150D01*
X68277007Y-60311185D01*
X68268229Y-60321027D01*
X68262829Y-60323088D01*
X68256694Y-60338633D01*
X68252932Y-60349504D01*
X68235719Y-60373856D01*
X68209698Y-60402737D01*
X68180577Y-60430435D01*
X68154068Y-60451242D01*
X68135880Y-60459446D01*
X68127638Y-60460797D01*
X68118274Y-60470981D01*
X68113948Y-60477686D01*
X68095204Y-60482516D01*
X68081795Y-60484679D01*
X68072134Y-60494051D01*
X68070958Y-60496637D01*
X68054887Y-60503028D01*
X68025994Y-60505586D01*
X68015652Y-60505880D01*
X67990088Y-60509898D01*
X67979855Y-60517121D01*
X67979774Y-60517662D01*
X67967317Y-60523350D01*
X67936934Y-60527225D01*
X67893342Y-60528656D01*
X67889285Y-60528645D01*
X67846623Y-60526984D01*
X67817565Y-60522933D01*
X67806830Y-60517121D01*
X67805654Y-60514535D01*
X67789583Y-60508144D01*
X67760690Y-60505586D01*
X67750348Y-60505292D01*
X67724784Y-60501274D01*
X67714550Y-60494051D01*
X67711342Y-60487877D01*
X67694027Y-60482516D01*
X67677604Y-60477463D01*
X67656875Y-60459446D01*
X67642908Y-60444921D01*
X67624668Y-60436376D01*
X67606438Y-60430467D01*
X67585343Y-60410583D01*
X67576131Y-60386254D01*
X67574730Y-60378429D01*
X67561712Y-60364283D01*
X67559871Y-60363301D01*
X67552711Y-60347803D01*
X67548605Y-60313202D01*
X67547293Y-60257584D01*
X67547345Y-60244561D01*
X67549201Y-60193343D01*
X67553903Y-60162756D01*
X67561712Y-60150886D01*
X67567893Y-60147158D01*
X67576131Y-60128914D01*
X67581853Y-60110090D01*
X67601109Y-60088305D01*
X67624668Y-60078792D01*
X67638210Y-60073612D01*
X67656875Y-60055722D01*
X67671725Y-60041355D01*
X67694027Y-60032652D01*
X67705012Y-60030849D01*
X67714550Y-60021117D01*
X67718442Y-60016962D01*
X67739325Y-60011657D01*
X67772225Y-60009582D01*
X67793001Y-60008804D01*
X67819526Y-60004628D01*
X67829900Y-59998047D01*
X67829903Y-59997904D01*
X67840208Y-59989854D01*
X67864505Y-59986512D01*
X67864935Y-59986512D01*
X67889086Y-59983077D01*
X67899110Y-59974978D01*
X67908722Y-59966897D01*
X67932481Y-59963443D01*
X67955475Y-59959694D01*
X67974105Y-59941167D01*
X67979855Y-59904824D01*
X67976766Y-59892245D01*
X67962552Y-59882698D01*
X67954593Y-59881396D01*
X67945250Y-59871163D01*
X67940924Y-59864458D01*
X67922180Y-59859628D01*
X67908771Y-59861791D01*
X67899110Y-59871163D01*
X67895022Y-59877767D01*
X67876564Y-59882698D01*
X67874861Y-59882773D01*
X67850935Y-59891873D01*
X67825181Y-59911535D01*
X67819017Y-59917520D01*
X67805164Y-59928173D01*
X67788089Y-59934875D01*
X67762832Y-59938536D01*
X67724429Y-59940065D01*
X67667921Y-59940373D01*
X67539498Y-59940373D01*
X67547640Y-59891349D01*
X67550066Y-59878667D01*
X67557988Y-59851225D01*
X67565957Y-59838480D01*
X67570170Y-59835385D01*
X67576131Y-59817991D01*
X67580069Y-59807068D01*
X67597461Y-59782969D01*
X67623559Y-59754358D01*
X67652648Y-59726904D01*
X67679014Y-59706274D01*
X67696944Y-59698138D01*
X67705187Y-59696787D01*
X67714550Y-59686603D01*
X67714553Y-59686460D01*
X67724858Y-59678410D01*
X67749155Y-59675068D01*
X67749586Y-59675067D01*
X67773737Y-59671632D01*
X67783760Y-59663533D01*
X67787010Y-59660534D01*
X67809107Y-59655990D01*
X67849438Y-59653046D01*
X67904877Y-59651998D01*
X67936375Y-59652308D01*
G37*
G36*
X67333896Y-59519346D02*
G01*
X67334925Y-59545456D01*
X67339114Y-59572359D01*
X67345431Y-59582789D01*
X67349586Y-59586681D01*
X67354891Y-59607563D01*
X67356966Y-59640463D01*
X67357745Y-59661239D01*
X67361921Y-59687764D01*
X67368501Y-59698138D01*
X67372656Y-59702030D01*
X67377961Y-59722913D01*
X67380036Y-59755813D01*
X67380815Y-59776588D01*
X67384991Y-59803114D01*
X67391571Y-59813488D01*
X67391715Y-59813491D01*
X67399765Y-59823796D01*
X67403106Y-59848093D01*
X67403106Y-59882698D01*
X67304235Y-59882698D01*
X67281334Y-59882469D01*
X67229119Y-59878868D01*
X67195586Y-59869977D01*
X67177695Y-59854619D01*
X67172407Y-59831614D01*
X67170972Y-59822886D01*
X67160872Y-59813488D01*
X67160728Y-59813485D01*
X67152678Y-59803180D01*
X67149337Y-59778883D01*
X67149336Y-59778471D01*
X67146345Y-59754308D01*
X67139288Y-59744278D01*
X67135127Y-59740343D01*
X67127748Y-59719456D01*
X67121588Y-59686603D01*
X67118060Y-59665730D01*
X67110517Y-59639273D01*
X67102800Y-59628928D01*
X67102663Y-59628926D01*
X67094889Y-59618623D01*
X67091662Y-59594324D01*
X67091661Y-59593893D01*
X67088226Y-59569742D01*
X67080127Y-59559719D01*
X67073423Y-59555393D01*
X67068592Y-59536649D01*
X67066429Y-59523240D01*
X67057057Y-59513579D01*
X67049471Y-59506419D01*
X67045522Y-59484741D01*
X67045522Y-59455904D01*
X67333896Y-59455904D01*
X67333896Y-59519346D01*
G37*
G36*
X66595658Y-60505586D02*
G01*
X65961235Y-60505586D01*
X65961235Y-60286422D01*
X66295749Y-60286422D01*
X66295749Y-59455904D01*
X66595658Y-59455904D01*
X66595658Y-60505586D01*
G37*
G36*
X65891898Y-60107500D02*
G01*
X65889960Y-60153110D01*
X65886017Y-60183253D01*
X65880490Y-60194142D01*
X65877905Y-60195318D01*
X65871514Y-60211389D01*
X65868955Y-60240282D01*
X65868685Y-60250617D01*
X65864987Y-60276186D01*
X65858337Y-60286422D01*
X65857756Y-60286473D01*
X65848179Y-60297676D01*
X65839789Y-60322522D01*
X65838867Y-60325900D01*
X65825011Y-60352423D01*
X65800428Y-60385604D01*
X65769897Y-60420324D01*
X65738197Y-60451462D01*
X65710110Y-60473899D01*
X65690414Y-60482516D01*
X65682221Y-60483858D01*
X65672861Y-60494051D01*
X65672858Y-60494195D01*
X65662553Y-60502245D01*
X65638256Y-60505586D01*
X65637826Y-60505587D01*
X65613675Y-60509022D01*
X65603651Y-60517121D01*
X65596300Y-60522330D01*
X65571306Y-60526905D01*
X65534441Y-60528656D01*
X65503186Y-60527431D01*
X65475738Y-60523265D01*
X65465232Y-60517121D01*
X65465229Y-60516978D01*
X65454924Y-60508927D01*
X65430627Y-60505586D01*
X65430196Y-60505585D01*
X65406045Y-60502150D01*
X65396022Y-60494051D01*
X65395452Y-60490637D01*
X65383347Y-60482516D01*
X65379895Y-60481717D01*
X65361576Y-60469724D01*
X65338347Y-60447911D01*
X65330871Y-60440100D01*
X65310589Y-60420964D01*
X65299114Y-60413306D01*
X65297570Y-60414476D01*
X65293740Y-60430542D01*
X65292207Y-60459446D01*
X65292207Y-60505586D01*
X65147196Y-60505586D01*
X65123869Y-60505519D01*
X65064869Y-60504349D01*
X65024435Y-60501454D01*
X64999176Y-60496489D01*
X64985706Y-60489108D01*
X64981588Y-60482444D01*
X64974864Y-60457147D01*
X64970532Y-60421623D01*
X64968774Y-60382484D01*
X64969772Y-60346340D01*
X64973707Y-60319806D01*
X64980763Y-60309492D01*
X64981980Y-60308807D01*
X64986324Y-60292224D01*
X64989567Y-60254844D01*
X64991596Y-60198476D01*
X64992298Y-60124932D01*
X64992255Y-60105463D01*
X64992031Y-60090406D01*
X65292207Y-60090406D01*
X65293736Y-60131808D01*
X65297825Y-60160403D01*
X65303742Y-60171072D01*
X65309296Y-60173326D01*
X65315277Y-60189198D01*
X65320362Y-60207757D01*
X65340303Y-60230522D01*
X65366360Y-60240282D01*
X65375088Y-60241716D01*
X65384487Y-60251817D01*
X65389240Y-60256222D01*
X65411221Y-60261021D01*
X65445045Y-60262559D01*
X65458609Y-60262248D01*
X65492544Y-60258265D01*
X65517198Y-60246453D01*
X65543093Y-60222514D01*
X65556496Y-60208008D01*
X65569943Y-60189222D01*
X65577146Y-60167899D01*
X65580046Y-60137196D01*
X65580581Y-60090270D01*
X65580349Y-60052648D01*
X65578285Y-60019111D01*
X65572336Y-59996581D01*
X65560456Y-59978246D01*
X65540593Y-59957291D01*
X65525788Y-59943071D01*
X65502225Y-59926193D01*
X65475723Y-59918885D01*
X65436254Y-59917303D01*
X65431423Y-59917318D01*
X65391827Y-59919778D01*
X65365473Y-59928318D01*
X65343590Y-59945616D01*
X65341582Y-59947669D01*
X65322938Y-59971932D01*
X65315277Y-59991756D01*
X65313890Y-60000204D01*
X65303742Y-60009582D01*
X65303731Y-60009582D01*
X65297816Y-60020286D01*
X65293731Y-60048907D01*
X65292207Y-60090327D01*
X65292207Y-60090406D01*
X64992031Y-60090406D01*
X64991219Y-60035951D01*
X64988882Y-59984059D01*
X64985359Y-59951596D01*
X64980763Y-59940373D01*
X64977419Y-59937530D01*
X64972466Y-59917669D01*
X64969590Y-59883918D01*
X64968714Y-59842289D01*
X64969759Y-59798798D01*
X64972648Y-59759457D01*
X64977303Y-59730280D01*
X64983647Y-59717280D01*
X64991550Y-59710962D01*
X64981776Y-59700063D01*
X64978032Y-59697294D01*
X64971941Y-59686129D01*
X64983836Y-59670348D01*
X64987455Y-59667207D01*
X65003304Y-59659772D01*
X65029684Y-59655106D01*
X65070766Y-59652689D01*
X65130717Y-59651998D01*
X65183815Y-59652559D01*
X65232099Y-59655696D01*
X65263607Y-59663029D01*
X65281812Y-59676153D01*
X65290187Y-59696662D01*
X65292207Y-59726152D01*
X65292330Y-59732161D01*
X65296179Y-59757193D01*
X65303742Y-59767348D01*
X65309296Y-59765094D01*
X65315277Y-59749222D01*
X65320362Y-59730663D01*
X65340303Y-59707898D01*
X65366360Y-59698138D01*
X65375088Y-59696704D01*
X65384487Y-59686603D01*
X65391646Y-59679017D01*
X65413324Y-59675068D01*
X65432290Y-59672205D01*
X65442162Y-59663533D01*
X65442469Y-59662501D01*
X65456628Y-59657031D01*
X65488742Y-59653347D01*
X65534441Y-59651998D01*
X65542696Y-59652037D01*
X65586464Y-59653807D01*
X65615929Y-59657821D01*
X65626721Y-59663533D01*
X65631047Y-59670238D01*
X65649791Y-59675068D01*
X65663200Y-59677231D01*
X65672861Y-59686603D01*
X65676070Y-59692777D01*
X65693384Y-59698138D01*
X65709807Y-59703191D01*
X65730536Y-59721208D01*
X65744503Y-59735733D01*
X65762744Y-59744278D01*
X65781115Y-59750217D01*
X65802156Y-59770375D01*
X65811281Y-59795362D01*
X65812550Y-59804072D01*
X65821532Y-59813488D01*
X65822996Y-59813863D01*
X65831805Y-59827245D01*
X65839357Y-59853860D01*
X65840486Y-59859335D01*
X65848790Y-59884149D01*
X65857943Y-59894233D01*
X65860411Y-59895408D01*
X65866513Y-59911478D01*
X65868955Y-59940373D01*
X65869250Y-59950715D01*
X65873267Y-59976279D01*
X65880490Y-59986512D01*
X65882398Y-59987662D01*
X65887466Y-60005100D01*
X65890815Y-60040583D01*
X65892024Y-60090270D01*
X65892025Y-60090327D01*
X65891898Y-60107500D01*
G37*
G36*
X64530899Y-60505586D02*
G01*
X64530899Y-60459446D01*
X64530724Y-60449134D01*
X64528319Y-60423549D01*
X64523992Y-60413306D01*
X64521597Y-60414201D01*
X64506511Y-60426263D01*
X64484759Y-60447911D01*
X64477880Y-60454872D01*
X64453106Y-60474591D01*
X64433991Y-60482516D01*
X64424968Y-60484001D01*
X64415549Y-60494051D01*
X64415547Y-60494195D01*
X64405242Y-60502245D01*
X64380945Y-60505586D01*
X64380514Y-60505587D01*
X64356363Y-60509022D01*
X64346340Y-60517121D01*
X64338988Y-60522330D01*
X64313995Y-60526905D01*
X64277130Y-60528656D01*
X64245874Y-60527431D01*
X64218427Y-60523265D01*
X64207920Y-60517121D01*
X64207917Y-60516978D01*
X64197612Y-60508927D01*
X64173315Y-60505586D01*
X64172885Y-60505585D01*
X64148734Y-60502150D01*
X64138710Y-60494051D01*
X64137593Y-60489660D01*
X64123954Y-60482516D01*
X64110897Y-60477314D01*
X64092570Y-60459446D01*
X64078603Y-60444921D01*
X64060363Y-60436376D01*
X64042335Y-60430492D01*
X64021172Y-60411064D01*
X64011826Y-60387839D01*
X64006645Y-60374297D01*
X63988756Y-60355631D01*
X63974204Y-60341816D01*
X63965686Y-60324248D01*
X63964812Y-60318631D01*
X63954151Y-60309492D01*
X63954007Y-60309489D01*
X63945957Y-60299184D01*
X63942616Y-60274887D01*
X63942615Y-60274456D01*
X63939180Y-60250305D01*
X63931081Y-60240282D01*
X63926700Y-60231724D01*
X63922847Y-60202384D01*
X63920402Y-60154459D01*
X63919546Y-60090327D01*
X63919679Y-60078792D01*
X64207920Y-60078792D01*
X64208214Y-60089135D01*
X64212232Y-60114699D01*
X64219455Y-60124932D01*
X64227089Y-60132293D01*
X64230990Y-60154154D01*
X64231200Y-60157919D01*
X64243215Y-60188722D01*
X64270978Y-60223364D01*
X64282739Y-60234788D01*
X64307226Y-60253384D01*
X64333409Y-60261266D01*
X64371909Y-60262559D01*
X64386395Y-60262220D01*
X64420069Y-60258190D01*
X64444570Y-60246370D01*
X64470341Y-60222514D01*
X64481343Y-60210215D01*
X64500321Y-60184046D01*
X64507829Y-60165632D01*
X64509184Y-60157367D01*
X64519364Y-60148002D01*
X64523519Y-60144110D01*
X64528824Y-60123227D01*
X64530899Y-60090327D01*
X64530121Y-60069552D01*
X64525944Y-60043027D01*
X64519364Y-60032652D01*
X64511678Y-60025060D01*
X64507829Y-60002991D01*
X64502768Y-59976727D01*
X64483980Y-59950646D01*
X64456746Y-59940373D01*
X64448018Y-59938938D01*
X64438619Y-59928838D01*
X64431268Y-59923628D01*
X64406275Y-59919054D01*
X64369410Y-59917303D01*
X64338154Y-59918528D01*
X64310706Y-59922693D01*
X64300200Y-59928838D01*
X64297945Y-59934392D01*
X64282073Y-59940373D01*
X64260647Y-59946577D01*
X64239371Y-59969607D01*
X64230990Y-60002991D01*
X64228037Y-60022756D01*
X64219455Y-60032652D01*
X64216869Y-60033829D01*
X64210478Y-60049899D01*
X64207920Y-60078792D01*
X63919679Y-60078792D01*
X63920204Y-60033372D01*
X63922461Y-59983292D01*
X63926148Y-59951499D01*
X63931081Y-59940373D01*
X63938667Y-59933213D01*
X63942616Y-59911535D01*
X63945480Y-59892569D01*
X63954151Y-59882698D01*
X63960855Y-59878372D01*
X63965686Y-59859628D01*
X63967849Y-59846219D01*
X63977221Y-59836558D01*
X63982621Y-59834496D01*
X63988756Y-59818952D01*
X63993412Y-59807323D01*
X64010822Y-59783313D01*
X64036028Y-59754654D01*
X64063569Y-59727081D01*
X64087981Y-59706330D01*
X64103802Y-59698138D01*
X64106821Y-59697756D01*
X64115640Y-59686603D01*
X64115643Y-59686460D01*
X64125948Y-59678410D01*
X64150245Y-59675068D01*
X64150676Y-59675067D01*
X64174827Y-59671632D01*
X64184850Y-59663533D01*
X64185158Y-59662501D01*
X64199317Y-59657031D01*
X64231431Y-59653347D01*
X64277130Y-59651998D01*
X64285385Y-59652037D01*
X64329153Y-59653807D01*
X64358617Y-59657821D01*
X64369410Y-59663533D01*
X64373736Y-59670238D01*
X64392479Y-59675068D01*
X64405888Y-59677231D01*
X64415549Y-59686603D01*
X64417923Y-59692247D01*
X64433991Y-59698138D01*
X64438362Y-59698846D01*
X64460008Y-59710768D01*
X64484759Y-59732743D01*
X64492235Y-59740555D01*
X64512517Y-59759690D01*
X64523992Y-59767348D01*
X64525203Y-59764681D01*
X64527454Y-59744010D01*
X64529261Y-59706219D01*
X64530463Y-59655305D01*
X64530899Y-59595267D01*
X64530988Y-59567761D01*
X64531805Y-59508493D01*
X64533343Y-59458545D01*
X64535430Y-59422499D01*
X64537901Y-59404940D01*
X64550264Y-59393161D01*
X64574905Y-59387087D01*
X64600294Y-59389559D01*
X64615572Y-59401113D01*
X64622194Y-59408679D01*
X64633836Y-59398229D01*
X64635820Y-59395512D01*
X64646729Y-59386740D01*
X64657784Y-59398229D01*
X64659387Y-59400597D01*
X64669841Y-59409730D01*
X64680854Y-59398229D01*
X64682457Y-59395861D01*
X64692911Y-59386728D01*
X64703924Y-59398229D01*
X64705527Y-59400597D01*
X64715980Y-59409730D01*
X64726994Y-59398229D01*
X64728597Y-59395861D01*
X64739050Y-59386728D01*
X64750063Y-59398229D01*
X64750682Y-59399151D01*
X64761611Y-59409495D01*
X64772087Y-59399242D01*
X64774636Y-59395518D01*
X64785270Y-59389433D01*
X64800924Y-59401302D01*
X64802796Y-59403490D01*
X64806793Y-59411490D01*
X64810096Y-59424907D01*
X64812770Y-59445702D01*
X64814880Y-59475837D01*
X64816490Y-59517273D01*
X64817663Y-59571971D01*
X64818464Y-59641894D01*
X64818956Y-59729001D01*
X64819205Y-59835256D01*
X64819273Y-59962619D01*
X64819273Y-60505586D01*
X64530899Y-60505586D01*
G37*
G36*
X70609827Y-60505586D02*
G01*
X70321453Y-60505586D01*
X70321453Y-60349864D01*
X70321418Y-60333863D01*
X70320727Y-60279039D01*
X70319286Y-60234676D01*
X70317271Y-60204976D01*
X70314862Y-60194142D01*
X70314090Y-60194181D01*
X70298301Y-60203949D01*
X70282499Y-60223646D01*
X70275313Y-60242679D01*
X70270133Y-60256222D01*
X70252243Y-60274887D01*
X70237609Y-60288224D01*
X70229173Y-60303724D01*
X70223903Y-60315268D01*
X70206103Y-60332562D01*
X70191656Y-60346963D01*
X70183034Y-60367166D01*
X70177916Y-60382113D01*
X70159964Y-60401771D01*
X70145597Y-60416621D01*
X70136894Y-60438923D01*
X70135215Y-60449899D01*
X70126136Y-60459446D01*
X70118412Y-60463874D01*
X70108056Y-60482516D01*
X70106275Y-60487298D01*
X70100647Y-60494628D01*
X70089267Y-60499688D01*
X70068670Y-60502895D01*
X70035395Y-60504669D01*
X69985976Y-60505426D01*
X69916952Y-60505586D01*
X69876456Y-60505416D01*
X69819572Y-60504530D01*
X69774150Y-60503014D01*
X69744060Y-60501016D01*
X69733170Y-60498679D01*
X69734065Y-60496284D01*
X69746126Y-60481198D01*
X69767775Y-60459446D01*
X69775095Y-60452300D01*
X69794568Y-60429408D01*
X69802380Y-60413542D01*
X69806223Y-60404437D01*
X69822979Y-60382456D01*
X69848519Y-60355631D01*
X69867255Y-60336973D01*
X69886998Y-60315252D01*
X69894659Y-60303724D01*
X69898658Y-60296806D01*
X69915417Y-60277462D01*
X69940799Y-60251817D01*
X69959199Y-60233025D01*
X69979177Y-60208984D01*
X69986939Y-60194142D01*
X69991097Y-60184680D01*
X70008198Y-60162574D01*
X70034020Y-60135563D01*
X70081101Y-60090327D01*
X70034020Y-60045092D01*
X70014743Y-60025373D01*
X69994709Y-60001191D01*
X69986939Y-59986277D01*
X69986155Y-59982672D01*
X69974172Y-59963838D01*
X69952334Y-59940373D01*
X69944589Y-59932939D01*
X69925408Y-59912301D01*
X69917729Y-59900235D01*
X69913737Y-59893230D01*
X69896978Y-59873784D01*
X69871589Y-59848093D01*
X69853203Y-59829296D01*
X69833215Y-59805161D01*
X69825449Y-59790183D01*
X69824665Y-59786577D01*
X69812683Y-59767743D01*
X69790845Y-59744278D01*
X69783884Y-59737399D01*
X69764164Y-59712625D01*
X69756240Y-59693510D01*
X69754755Y-59684487D01*
X69744705Y-59675068D01*
X69741948Y-59674733D01*
X69733170Y-59663533D01*
X69733842Y-59662327D01*
X69750375Y-59657978D01*
X69787706Y-59654732D01*
X69844022Y-59652701D01*
X69917509Y-59651998D01*
X70101849Y-59651998D01*
X70109681Y-59683720D01*
X70119748Y-59708566D01*
X70138738Y-59734096D01*
X70151950Y-59749271D01*
X70159964Y-59769038D01*
X70165125Y-59782996D01*
X70183034Y-59801953D01*
X70197535Y-59816049D01*
X70206103Y-59834868D01*
X70209217Y-59844947D01*
X70225151Y-59866452D01*
X70246868Y-59885818D01*
X70265543Y-59894233D01*
X70270235Y-59896474D01*
X70275313Y-59912359D01*
X70275337Y-59913289D01*
X70283020Y-59934165D01*
X70298900Y-59954376D01*
X70314862Y-59963443D01*
X70316069Y-59958841D01*
X70317802Y-59934720D01*
X70319283Y-59892750D01*
X70320437Y-59836110D01*
X70321186Y-59767982D01*
X70321453Y-59691547D01*
X70321526Y-59638572D01*
X70322080Y-59560749D01*
X70323306Y-59501875D01*
X70325353Y-59459317D01*
X70328372Y-59430438D01*
X70332515Y-59412601D01*
X70337932Y-59403173D01*
X70350938Y-59395843D01*
X70377400Y-59390498D01*
X70419977Y-59387579D01*
X70482119Y-59386694D01*
X70609827Y-59386694D01*
X70609827Y-60505586D01*
G37*
G36*
X71176895Y-59652375D02*
G01*
X71225166Y-59654520D01*
X71256291Y-59658329D01*
X71267321Y-59663533D01*
X71267323Y-59663677D01*
X71277628Y-59671727D01*
X71301925Y-59675068D01*
X71302356Y-59675069D01*
X71326507Y-59678504D01*
X71336530Y-59686603D01*
X71340856Y-59693308D01*
X71359600Y-59698138D01*
X71373006Y-59700228D01*
X71382670Y-59709289D01*
X71385035Y-59715405D01*
X71399600Y-59735283D01*
X71423043Y-59760812D01*
X71436204Y-59774944D01*
X71455732Y-59800840D01*
X71463415Y-59818871D01*
X71464779Y-59827189D01*
X71474950Y-59836558D01*
X71475491Y-59836639D01*
X71481179Y-59849095D01*
X71485054Y-59879479D01*
X71486485Y-59923070D01*
X71486474Y-59927127D01*
X71484813Y-59969790D01*
X71480762Y-59998848D01*
X71474950Y-60009582D01*
X71469525Y-60011674D01*
X71463415Y-60027269D01*
X71455923Y-60044577D01*
X71436756Y-60069793D01*
X71412143Y-60096008D01*
X71388319Y-60116597D01*
X71371520Y-60124932D01*
X71368430Y-60125328D01*
X71359600Y-60136467D01*
X71359598Y-60136611D01*
X71349293Y-60144661D01*
X71324995Y-60148002D01*
X71324565Y-60148003D01*
X71300414Y-60151438D01*
X71290390Y-60159537D01*
X71289214Y-60162123D01*
X71273143Y-60168514D01*
X71244251Y-60171072D01*
X71233908Y-60171366D01*
X71208344Y-60175384D01*
X71198111Y-60182607D01*
X71195603Y-60186124D01*
X71176817Y-60191872D01*
X71145679Y-60194142D01*
X71126444Y-60194786D01*
X71092050Y-60202674D01*
X71064934Y-60222455D01*
X71064669Y-60222720D01*
X71042202Y-60250175D01*
X71038664Y-60271703D01*
X71053100Y-60293013D01*
X71056185Y-60295492D01*
X71078096Y-60303758D01*
X71108766Y-60308455D01*
X71140366Y-60309265D01*
X71165067Y-60305871D01*
X71175041Y-60297957D01*
X71179367Y-60291252D01*
X71198111Y-60286422D01*
X71211538Y-60283285D01*
X71221181Y-60268295D01*
X71221291Y-60263992D01*
X71226573Y-60244448D01*
X71242081Y-60231012D01*
X71271004Y-60222670D01*
X71316530Y-60218407D01*
X71381846Y-60217212D01*
X71509555Y-60217212D01*
X71509555Y-60263352D01*
X71509261Y-60273694D01*
X71505243Y-60299258D01*
X71498020Y-60309492D01*
X71492713Y-60311444D01*
X71486485Y-60326794D01*
X71485184Y-60334754D01*
X71474950Y-60344097D01*
X71469484Y-60346239D01*
X71463415Y-60361923D01*
X71463312Y-60363479D01*
X71454200Y-60383293D01*
X71435389Y-60407416D01*
X71414029Y-60427794D01*
X71397276Y-60436376D01*
X71387353Y-60441720D01*
X71371135Y-60459446D01*
X71354659Y-60473732D01*
X71322449Y-60482516D01*
X71300352Y-60485713D01*
X71290390Y-60494051D01*
X71290388Y-60494195D01*
X71280083Y-60502245D01*
X71255786Y-60505586D01*
X71255355Y-60505587D01*
X71231204Y-60509022D01*
X71221181Y-60517121D01*
X71220031Y-60519029D01*
X71202594Y-60524097D01*
X71167110Y-60527446D01*
X71117366Y-60528656D01*
X71100193Y-60528528D01*
X71054583Y-60526591D01*
X71024440Y-60522648D01*
X71013551Y-60517121D01*
X71006392Y-60509535D01*
X70984714Y-60505586D01*
X70965748Y-60502722D01*
X70955876Y-60494051D01*
X70951550Y-60487347D01*
X70932806Y-60482516D01*
X70919398Y-60480353D01*
X70909737Y-60470981D01*
X70907645Y-60465557D01*
X70892050Y-60459446D01*
X70884275Y-60457333D01*
X70861268Y-60442954D01*
X70834375Y-60419458D01*
X70821575Y-60405724D01*
X70802069Y-60379857D01*
X70794387Y-60361783D01*
X70793023Y-60353466D01*
X70782852Y-60344097D01*
X70782311Y-60344016D01*
X70776623Y-60331559D01*
X70772748Y-60301176D01*
X70771317Y-60257584D01*
X70771328Y-60253527D01*
X70772989Y-60210865D01*
X70777040Y-60181807D01*
X70782852Y-60171072D01*
X70788276Y-60168981D01*
X70794387Y-60153385D01*
X70800721Y-60137008D01*
X70820147Y-60111350D01*
X70846245Y-60084848D01*
X70872414Y-60064104D01*
X70892050Y-60055722D01*
X70900367Y-60054358D01*
X70909737Y-60044187D01*
X70914063Y-60037483D01*
X70932806Y-60032652D01*
X70946215Y-60030489D01*
X70955876Y-60021117D01*
X70956225Y-60019604D01*
X70969564Y-60012480D01*
X70996249Y-60009582D01*
X71001547Y-60009483D01*
X71026481Y-60005672D01*
X71036621Y-59998047D01*
X71037798Y-59995462D01*
X71053868Y-59989071D01*
X71082761Y-59986512D01*
X71093104Y-59986218D01*
X71118668Y-59982201D01*
X71128901Y-59974978D01*
X71136493Y-59967291D01*
X71158562Y-59963443D01*
X71184922Y-59958431D01*
X71207965Y-59942994D01*
X71219790Y-59922498D01*
X71217478Y-59902477D01*
X71198111Y-59888465D01*
X71184561Y-59882100D01*
X71175041Y-59870386D01*
X71167118Y-59862302D01*
X71145736Y-59859954D01*
X71119979Y-59864017D01*
X71099021Y-59874047D01*
X71079035Y-59891464D01*
X71053893Y-59914419D01*
X71051488Y-59916632D01*
X71037223Y-59927397D01*
X71019789Y-59934322D01*
X70994210Y-59938238D01*
X70955513Y-59939978D01*
X70898726Y-59940373D01*
X70771317Y-59940373D01*
X70771317Y-59911535D01*
X70774181Y-59892569D01*
X70782852Y-59882698D01*
X70789556Y-59878372D01*
X70794387Y-59859628D01*
X70796550Y-59846219D01*
X70805922Y-59836558D01*
X70811322Y-59834496D01*
X70817457Y-59818952D01*
X70821218Y-59808081D01*
X70838431Y-59783729D01*
X70864453Y-59754848D01*
X70893573Y-59727149D01*
X70920083Y-59706343D01*
X70938270Y-59698138D01*
X70946513Y-59696787D01*
X70955876Y-59686603D01*
X70963036Y-59679017D01*
X70984714Y-59675068D01*
X71003680Y-59672205D01*
X71013551Y-59663533D01*
X71017696Y-59660219D01*
X71041289Y-59655831D01*
X71083185Y-59653001D01*
X71140436Y-59651998D01*
X71176895Y-59652375D01*
G37*
G36*
X71936349Y-59911535D02*
G01*
X71936805Y-59998781D01*
X71938237Y-60072448D01*
X71940594Y-60126479D01*
X71943827Y-60159734D01*
X71947884Y-60171072D01*
X71953350Y-60173215D01*
X71959419Y-60188899D01*
X71966715Y-60208526D01*
X71986859Y-60233636D01*
X72011919Y-60254586D01*
X72033872Y-60263352D01*
X72042320Y-60264738D01*
X72051698Y-60274887D01*
X72051701Y-60275030D01*
X72062006Y-60283080D01*
X72086303Y-60286422D01*
X72086734Y-60286421D01*
X72110885Y-60282986D01*
X72120908Y-60274887D01*
X72123051Y-60269420D01*
X72138735Y-60263352D01*
X72159082Y-60256444D01*
X72184560Y-60234663D01*
X72204886Y-60205658D01*
X72213188Y-60177364D01*
X72216109Y-60157889D01*
X72224723Y-60148002D01*
X72228281Y-60139814D01*
X72231686Y-60109864D01*
X72234188Y-60059102D01*
X72235731Y-59988743D01*
X72236258Y-59900000D01*
X72236258Y-59651998D01*
X72363966Y-59651998D01*
X72421506Y-59652731D01*
X72465656Y-59655456D01*
X72493389Y-59660573D01*
X72508154Y-59668477D01*
X72511763Y-59673678D01*
X72516304Y-59688089D01*
X72519692Y-59712519D01*
X72522073Y-59749578D01*
X72523592Y-59801875D01*
X72524396Y-59872018D01*
X72524632Y-59962619D01*
X72524627Y-59973701D01*
X72524055Y-60066899D01*
X72522572Y-60141196D01*
X72520223Y-60195551D01*
X72517051Y-60228926D01*
X72513097Y-60240282D01*
X72510008Y-60242090D01*
X72503964Y-60259581D01*
X72501562Y-60289643D01*
X72501329Y-60300982D01*
X72495066Y-60334987D01*
X72478492Y-60355631D01*
X72463958Y-60369544D01*
X72455422Y-60387540D01*
X72447249Y-60407075D01*
X72426770Y-60431001D01*
X72402001Y-60451043D01*
X72380969Y-60459446D01*
X72372521Y-60460833D01*
X72363143Y-60470981D01*
X72358817Y-60477686D01*
X72340073Y-60482516D01*
X72326664Y-60484679D01*
X72317003Y-60494051D01*
X72309843Y-60501638D01*
X72288165Y-60505586D01*
X72269199Y-60508450D01*
X72259328Y-60517121D01*
X72255436Y-60521276D01*
X72234553Y-60526581D01*
X72201653Y-60528656D01*
X72180878Y-60527878D01*
X72154352Y-60523701D01*
X72143978Y-60517121D01*
X72143975Y-60516978D01*
X72133670Y-60508927D01*
X72109373Y-60505586D01*
X72108943Y-60505585D01*
X72084792Y-60502150D01*
X72074768Y-60494051D01*
X72071560Y-60487877D01*
X72054245Y-60482516D01*
X72037822Y-60477463D01*
X72017093Y-60459446D01*
X72002243Y-60445079D01*
X71979942Y-60436376D01*
X71968957Y-60434573D01*
X71959419Y-60424841D01*
X71959083Y-60422084D01*
X71947884Y-60413306D01*
X71945298Y-60414483D01*
X71938907Y-60430553D01*
X71936349Y-60459446D01*
X71936349Y-60505586D01*
X71647974Y-60505586D01*
X71647974Y-59651998D01*
X71936349Y-59651998D01*
X71936349Y-59911535D01*
G37*
G36*
X72974496Y-59641287D02*
G01*
X72974504Y-59653141D01*
X72975087Y-59723855D01*
X72976770Y-59775086D01*
X72979809Y-59809961D01*
X72984459Y-59831607D01*
X72990974Y-59843149D01*
X72998597Y-59848201D01*
X73018306Y-59853654D01*
X73051216Y-59857175D01*
X73100609Y-59859065D01*
X73169766Y-59859628D01*
X73332080Y-59859628D01*
X73332080Y-59455904D01*
X73620454Y-59455904D01*
X73620454Y-60505586D01*
X73332080Y-60505586D01*
X73332080Y-60078792D01*
X72974496Y-60078792D01*
X72974496Y-60505586D01*
X72686122Y-60505586D01*
X72686122Y-59455904D01*
X72974496Y-59455904D01*
X72974496Y-59641287D01*
G37*
G36*
X69495918Y-59648394D02*
G01*
X69558099Y-59649294D01*
X69600877Y-59652089D01*
X69627689Y-59657155D01*
X69641973Y-59664870D01*
X69643584Y-59666840D01*
X69647748Y-59676889D01*
X69651086Y-59694931D01*
X69653683Y-59723122D01*
X69655622Y-59763614D01*
X69656985Y-59818561D01*
X69657855Y-59890115D01*
X69658317Y-59980432D01*
X69658452Y-60091664D01*
X69658452Y-60501979D01*
X69358543Y-60501979D01*
X69358543Y-59648391D01*
X69492019Y-59648391D01*
X69495918Y-59648394D01*
G37*
G36*
X66416269Y-55204755D02*
G01*
X66418238Y-55213479D01*
X66413657Y-55230391D01*
X66401688Y-55257872D01*
X66381496Y-55298301D01*
X66328627Y-55408439D01*
X66265181Y-55562548D01*
X66207165Y-55728909D01*
X66155407Y-55904657D01*
X66110735Y-56086923D01*
X66073977Y-56272842D01*
X66045961Y-56459546D01*
X66043442Y-56481309D01*
X66037442Y-56549610D01*
X66032666Y-56628866D01*
X66029159Y-56715489D01*
X66026962Y-56805892D01*
X66026119Y-56896491D01*
X66026674Y-56983699D01*
X66028670Y-57063928D01*
X66032150Y-57133594D01*
X66037157Y-57189110D01*
X66048921Y-57273973D01*
X66079411Y-57431937D01*
X66120222Y-57577618D01*
X66172360Y-57713137D01*
X66236829Y-57840619D01*
X66314636Y-57962186D01*
X66406786Y-58079959D01*
X66514286Y-58196062D01*
X66528088Y-58209821D01*
X66618362Y-58294662D01*
X66710572Y-58371719D01*
X66809825Y-58445044D01*
X66921232Y-58518687D01*
X66930058Y-58524293D01*
X66965226Y-58547522D01*
X66993102Y-58567365D01*
X67011045Y-58581869D01*
X67016413Y-58589079D01*
X67012128Y-58593732D01*
X67004306Y-58595057D01*
X66991202Y-58590882D01*
X66970425Y-58580120D01*
X66939587Y-58561687D01*
X66896300Y-58534497D01*
X66856950Y-58509011D01*
X66712993Y-58406409D01*
X66580479Y-58296728D01*
X66460989Y-58181462D01*
X66356106Y-58062107D01*
X66267413Y-57940158D01*
X66218526Y-57858406D01*
X66162691Y-57747273D01*
X66113168Y-57628865D01*
X66072309Y-57508901D01*
X66042466Y-57393102D01*
X66035255Y-57357534D01*
X66021601Y-57279052D01*
X66011455Y-57200568D01*
X66004563Y-57118550D01*
X66000670Y-57029465D01*
X65999522Y-56929780D01*
X66000864Y-56815964D01*
X66007238Y-56644469D01*
X66021392Y-56462945D01*
X66043638Y-56289225D01*
X66074702Y-56118708D01*
X66115310Y-55946794D01*
X66166189Y-55768885D01*
X66172999Y-55747197D01*
X66194978Y-55681370D01*
X66219503Y-55613035D01*
X66245724Y-55544122D01*
X66272795Y-55476561D01*
X66299865Y-55412279D01*
X66326087Y-55353208D01*
X66350613Y-55301277D01*
X66372594Y-55258414D01*
X66391182Y-55226549D01*
X66405528Y-55207612D01*
X66414783Y-55203532D01*
X66416269Y-55204755D01*
G37*
G36*
X68636103Y-50678432D02*
G01*
X68705789Y-50685095D01*
X68764143Y-50697845D01*
X68786473Y-50705415D01*
X68862523Y-50742171D01*
X68927749Y-50791997D01*
X68980379Y-50853617D01*
X68995710Y-50876982D01*
X69019102Y-50917363D01*
X69039436Y-50960087D01*
X69057188Y-51007085D01*
X69072833Y-51060289D01*
X69086843Y-51121630D01*
X69099695Y-51193038D01*
X69111862Y-51276443D01*
X69123820Y-51373778D01*
X69136042Y-51486972D01*
X69138287Y-51508641D01*
X69149688Y-51612353D01*
X69160730Y-51700902D01*
X69171796Y-51776492D01*
X69183268Y-51841329D01*
X69195529Y-51897616D01*
X69208962Y-51947558D01*
X69223950Y-51993358D01*
X69232146Y-52015858D01*
X69258541Y-52081343D01*
X69286394Y-52137465D01*
X69317837Y-52186553D01*
X69355006Y-52230940D01*
X69400033Y-52272954D01*
X69455052Y-52314928D01*
X69522196Y-52359191D01*
X69603600Y-52408075D01*
X69629555Y-52423228D01*
X69731828Y-52483676D01*
X69829625Y-52542637D01*
X69921084Y-52598940D01*
X70004345Y-52651416D01*
X70077545Y-52698895D01*
X70138823Y-52740210D01*
X70186320Y-52774189D01*
X70259713Y-52831258D01*
X70397293Y-52952119D01*
X70519824Y-53080395D01*
X70628685Y-53217748D01*
X70725258Y-53365842D01*
X70810923Y-53526339D01*
X70857380Y-53630628D01*
X70918615Y-53802985D01*
X70963925Y-53981569D01*
X70993448Y-54165601D01*
X71007322Y-54354297D01*
X71005685Y-54546876D01*
X70988677Y-54742557D01*
X70956434Y-54940557D01*
X70909095Y-55140096D01*
X70846799Y-55340392D01*
X70769684Y-55540663D01*
X70677887Y-55740127D01*
X70571548Y-55938004D01*
X70450804Y-56133510D01*
X70315794Y-56325866D01*
X70237295Y-56427240D01*
X70088921Y-56601566D01*
X69926474Y-56772797D01*
X69752313Y-56938620D01*
X69568797Y-57096723D01*
X69378285Y-57244794D01*
X69350386Y-57265320D01*
X69314546Y-57291625D01*
X69285799Y-57312650D01*
X69266556Y-57326632D01*
X69259231Y-57331808D01*
X69259444Y-57331541D01*
X69267703Y-57323048D01*
X69286920Y-57303616D01*
X69315749Y-57274599D01*
X69352844Y-57237349D01*
X69396858Y-57193219D01*
X69446443Y-57143561D01*
X69500254Y-57089728D01*
X69568447Y-57020958D01*
X69671482Y-56914223D01*
X69763995Y-56814231D01*
X69848191Y-56718368D01*
X69926270Y-56624022D01*
X70000438Y-56528580D01*
X70072896Y-56429427D01*
X70145849Y-56323951D01*
X70173031Y-56283123D01*
X70269051Y-56129534D01*
X70359409Y-55970401D01*
X70442454Y-55809054D01*
X70516534Y-55648825D01*
X70580000Y-55493042D01*
X70631199Y-55345036D01*
X70636350Y-55328338D01*
X70691309Y-55125673D01*
X70731565Y-54926121D01*
X70757194Y-54730480D01*
X70768272Y-54539546D01*
X70764875Y-54354115D01*
X70747081Y-54174984D01*
X70714964Y-54002948D01*
X70668603Y-53838806D01*
X70608072Y-53683352D01*
X70533449Y-53537384D01*
X70444810Y-53401698D01*
X70416217Y-53363855D01*
X70352160Y-53286396D01*
X70281513Y-53210679D01*
X70203017Y-53135700D01*
X70115415Y-53060454D01*
X70017448Y-52983938D01*
X69907857Y-52905146D01*
X69785385Y-52823074D01*
X69648772Y-52736719D01*
X69496761Y-52645075D01*
X69494576Y-52643784D01*
X69430935Y-52605983D01*
X69380183Y-52575235D01*
X69339839Y-52549788D01*
X69307423Y-52527890D01*
X69280453Y-52507789D01*
X69256449Y-52487734D01*
X69232931Y-52465972D01*
X69207416Y-52440752D01*
X69159271Y-52388413D01*
X69111091Y-52325677D01*
X69068947Y-52257564D01*
X69032338Y-52182535D01*
X69000761Y-52099051D01*
X68973714Y-52005573D01*
X68950695Y-51900560D01*
X68931202Y-51782475D01*
X68914732Y-51649777D01*
X68900783Y-51500927D01*
X68895517Y-51437008D01*
X68887277Y-51340700D01*
X68879740Y-51259591D01*
X68872583Y-51192061D01*
X68865485Y-51136491D01*
X68858122Y-51091263D01*
X68850172Y-51054755D01*
X68841312Y-51025349D01*
X68831220Y-51001426D01*
X68819573Y-50981365D01*
X68806048Y-50963547D01*
X68790324Y-50946354D01*
X68780593Y-50936754D01*
X68737362Y-50903655D01*
X68687996Y-50881528D01*
X68629156Y-50869214D01*
X68557504Y-50865554D01*
X68503465Y-50868068D01*
X68422785Y-50879502D01*
X68334591Y-50900530D01*
X68237680Y-50931549D01*
X68130850Y-50972958D01*
X68012899Y-51025151D01*
X67882625Y-51088528D01*
X67873823Y-51092970D01*
X67826637Y-51116660D01*
X67785784Y-51136974D01*
X67753651Y-51152738D01*
X67732622Y-51162781D01*
X67725082Y-51165931D01*
X67726747Y-51162834D01*
X67736187Y-51147161D01*
X67752563Y-51120604D01*
X67774269Y-51085761D01*
X67799696Y-51045233D01*
X67815143Y-51020414D01*
X67838086Y-50982365D01*
X67855975Y-50951164D01*
X67867279Y-50929518D01*
X67870467Y-50920131D01*
X67870077Y-50919656D01*
X67858413Y-50913563D01*
X67834786Y-50904585D01*
X67803778Y-50894484D01*
X67775864Y-50886671D01*
X67748412Y-50881277D01*
X67718913Y-50878697D01*
X67682136Y-50878495D01*
X67632849Y-50880234D01*
X67575931Y-50884513D01*
X67465574Y-50903949D01*
X67365388Y-50937531D01*
X67275783Y-50985104D01*
X67197169Y-51046510D01*
X67162538Y-51083515D01*
X67115750Y-51151832D01*
X67079865Y-51228693D01*
X67056875Y-51309497D01*
X67048770Y-51389641D01*
X67049762Y-51407250D01*
X67054425Y-51443586D01*
X67061780Y-51485567D01*
X67070568Y-51526276D01*
X67079532Y-51558796D01*
X67080766Y-51562611D01*
X67082270Y-51570400D01*
X67076348Y-51562716D01*
X67074856Y-51560098D01*
X67066716Y-51541614D01*
X67055627Y-51512618D01*
X67043540Y-51478138D01*
X67043069Y-51476731D01*
X67029016Y-51427974D01*
X67021832Y-51382786D01*
X67019824Y-51330651D01*
X67024841Y-51253288D01*
X67042296Y-51176903D01*
X67073465Y-51105420D01*
X67119596Y-51036034D01*
X67181935Y-50965940D01*
X67206347Y-50941788D01*
X67239603Y-50911563D01*
X67270902Y-50887941D01*
X67306149Y-50866646D01*
X67351250Y-50843407D01*
X67365409Y-50836506D01*
X67434426Y-50805893D01*
X67497789Y-50784198D01*
X67561276Y-50770072D01*
X67630663Y-50762162D01*
X67711727Y-50759118D01*
X67748623Y-50759032D01*
X67813911Y-50761537D01*
X67866108Y-50768249D01*
X67908205Y-50779870D01*
X67943193Y-50797101D01*
X67974065Y-50820644D01*
X68008643Y-50851883D01*
X68078306Y-50816954D01*
X68147168Y-50785067D01*
X68232694Y-50750774D01*
X68319496Y-50720788D01*
X68399633Y-50698047D01*
X68413064Y-50694943D01*
X68484340Y-50683360D01*
X68560486Y-50677855D01*
X68636103Y-50678432D01*
G37*
G36*
X67826452Y-56380549D02*
G01*
X67835513Y-56511510D01*
X67827193Y-56640880D01*
X67801542Y-56767884D01*
X67758613Y-56891745D01*
X67698457Y-57011684D01*
X67681281Y-57040478D01*
X67658302Y-57076663D01*
X67634172Y-57111380D01*
X67607737Y-57145777D01*
X67577838Y-57181003D01*
X67543318Y-57218205D01*
X67503023Y-57258531D01*
X67455794Y-57303131D01*
X67400475Y-57353151D01*
X67335910Y-57409741D01*
X67260942Y-57474048D01*
X67174414Y-57547221D01*
X67075169Y-57630407D01*
X67018222Y-57678069D01*
X66961594Y-57725604D01*
X66909568Y-57769416D01*
X66863960Y-57807971D01*
X66826586Y-57839733D01*
X66799260Y-57863167D01*
X66783798Y-57876738D01*
X66767444Y-57891301D01*
X66750434Y-57905521D01*
X66742311Y-57911022D01*
X66742432Y-57910413D01*
X66748887Y-57899425D01*
X66763793Y-57876050D01*
X66785953Y-57842111D01*
X66814173Y-57799428D01*
X66847255Y-57749826D01*
X66884003Y-57695126D01*
X66928326Y-57629378D01*
X66999233Y-57524172D01*
X67061218Y-57432116D01*
X67114934Y-57352176D01*
X67161037Y-57283318D01*
X67200180Y-57224508D01*
X67233017Y-57174712D01*
X67260202Y-57132896D01*
X67282390Y-57098027D01*
X67300233Y-57069070D01*
X67314387Y-57044990D01*
X67325505Y-57024756D01*
X67334241Y-57007331D01*
X67341250Y-56991683D01*
X67347185Y-56976777D01*
X67352700Y-56961579D01*
X67358450Y-56945056D01*
X67382308Y-56854687D01*
X67393609Y-56750268D01*
X67389106Y-56644335D01*
X67368706Y-56540572D01*
X67368449Y-56539653D01*
X67330242Y-56433397D01*
X67275191Y-56325316D01*
X67204045Y-56216280D01*
X67160705Y-56161600D01*
X67484703Y-56161600D01*
X67489155Y-56166051D01*
X67493606Y-56161600D01*
X67489155Y-56157148D01*
X67484703Y-56161600D01*
X67160705Y-56161600D01*
X67117552Y-56107156D01*
X67016461Y-55998814D01*
X66901521Y-55892123D01*
X66773482Y-55787951D01*
X66633091Y-55687167D01*
X66578289Y-55650162D01*
X66541232Y-55754531D01*
X66520068Y-55815945D01*
X66467907Y-55983983D01*
X66421499Y-56158020D01*
X66382548Y-56331353D01*
X66352753Y-56497277D01*
X66351572Y-56505160D01*
X66343159Y-56577201D01*
X66336940Y-56660118D01*
X66332949Y-56749839D01*
X66331217Y-56842289D01*
X66331777Y-56933393D01*
X66334661Y-57019080D01*
X66339901Y-57095273D01*
X66347530Y-57157900D01*
X66368083Y-57267682D01*
X66401571Y-57398081D01*
X66444002Y-57517021D01*
X66496819Y-57627422D01*
X66561461Y-57732200D01*
X66639369Y-57834274D01*
X66731983Y-57936561D01*
X66745733Y-57950622D01*
X66866912Y-58066569D01*
X66987822Y-58167102D01*
X67110487Y-58253149D01*
X67236930Y-58325641D01*
X67369174Y-58385505D01*
X67509242Y-58433671D01*
X67659157Y-58471068D01*
X67820942Y-58498625D01*
X67996621Y-58517271D01*
X68024769Y-58519222D01*
X68104933Y-58522666D01*
X68197037Y-58524233D01*
X68296987Y-58524017D01*
X68400692Y-58522112D01*
X68504056Y-58518612D01*
X68602986Y-58513611D01*
X68693390Y-58507202D01*
X68771174Y-58499481D01*
X68930757Y-58477352D01*
X69171697Y-58432068D01*
X69408940Y-58373355D01*
X69641406Y-58301809D01*
X69868014Y-58218027D01*
X70087683Y-58122605D01*
X70299332Y-58016142D01*
X70501880Y-57899232D01*
X70694247Y-57772473D01*
X70875352Y-57636462D01*
X71044115Y-57491795D01*
X71199454Y-57339069D01*
X71340288Y-57178881D01*
X71465538Y-57011828D01*
X71519888Y-56928805D01*
X71590848Y-56806745D01*
X71659807Y-56671397D01*
X71679653Y-56629005D01*
X71743187Y-56474589D01*
X71791224Y-56322481D01*
X71824560Y-56169235D01*
X71843987Y-56011405D01*
X71850303Y-55845547D01*
X71850275Y-55829952D01*
X71849813Y-55787722D01*
X71848619Y-55746766D01*
X71846484Y-55705200D01*
X71843199Y-55661138D01*
X71838556Y-55612693D01*
X71832347Y-55557981D01*
X71824362Y-55495116D01*
X71814392Y-55422212D01*
X71802230Y-55337384D01*
X71787667Y-55238745D01*
X71770492Y-55124411D01*
X71761478Y-55064418D01*
X71749082Y-54981251D01*
X71735275Y-54888049D01*
X71720659Y-54788904D01*
X71705839Y-54687911D01*
X71691418Y-54589164D01*
X71677999Y-54496756D01*
X71676806Y-54488515D01*
X71660709Y-54377346D01*
X71646044Y-54276206D01*
X71632363Y-54182024D01*
X71619217Y-54091729D01*
X71606157Y-54002248D01*
X71592735Y-53910511D01*
X71578501Y-53813446D01*
X71563007Y-53707981D01*
X71545805Y-53591045D01*
X71526444Y-53459567D01*
X71518173Y-53403305D01*
X71507781Y-53332314D01*
X71498285Y-53267093D01*
X71490027Y-53210009D01*
X71483348Y-53163433D01*
X71478591Y-53129733D01*
X71476100Y-53111278D01*
X71475015Y-53098874D01*
X71475523Y-53084827D01*
X71478648Y-53068432D01*
X71485215Y-53047393D01*
X71496048Y-53019416D01*
X71511971Y-52982205D01*
X71533808Y-52933465D01*
X71562382Y-52870899D01*
X71592202Y-52805688D01*
X71708641Y-52547179D01*
X71820213Y-52293223D01*
X71926633Y-52044600D01*
X72027617Y-51802088D01*
X72122880Y-51566465D01*
X72212139Y-51338510D01*
X72295109Y-51119001D01*
X72371506Y-50908717D01*
X72441045Y-50708436D01*
X72503442Y-50518937D01*
X72558414Y-50340997D01*
X72605674Y-50175396D01*
X72644941Y-50022912D01*
X72675928Y-49884323D01*
X72698352Y-49760408D01*
X72698474Y-49759621D01*
X72705382Y-49702863D01*
X72710330Y-49637538D01*
X72713314Y-49567399D01*
X72714332Y-49496196D01*
X72713380Y-49427683D01*
X72710458Y-49365610D01*
X72705562Y-49313728D01*
X72698688Y-49275791D01*
X72685179Y-49232525D01*
X72658619Y-49177394D01*
X72624974Y-49138146D01*
X72583445Y-49114390D01*
X72533233Y-49105739D01*
X72473538Y-49111802D01*
X72403561Y-49132192D01*
X72392905Y-49136066D01*
X72353710Y-49150299D01*
X72304827Y-49168034D01*
X72251455Y-49187383D01*
X72198794Y-49206462D01*
X72175292Y-49215040D01*
X71954462Y-49302572D01*
X71741640Y-49400053D01*
X71535139Y-49508549D01*
X71333271Y-49629121D01*
X71134350Y-49762834D01*
X70936690Y-49910751D01*
X70738602Y-50073937D01*
X70538401Y-50253455D01*
X70471629Y-50315667D01*
X70493612Y-50331479D01*
X70509145Y-50343162D01*
X70534611Y-50363093D01*
X70562387Y-50385404D01*
X70609178Y-50423517D01*
X70641478Y-50372404D01*
X70683960Y-50313185D01*
X70727308Y-50268769D01*
X70769941Y-50241136D01*
X70788778Y-50229587D01*
X70818538Y-50203517D01*
X70849442Y-50168974D01*
X70861780Y-50153983D01*
X70935724Y-50077453D01*
X71024624Y-50005416D01*
X71129141Y-49937435D01*
X71249932Y-49873073D01*
X71387657Y-49811893D01*
X71583602Y-49736522D01*
X71790454Y-49667296D01*
X71990134Y-49611451D01*
X72180988Y-49569493D01*
X72222356Y-49561759D01*
X72300503Y-49547304D01*
X72362567Y-49536081D01*
X72409495Y-49527927D01*
X72442236Y-49522681D01*
X72461738Y-49520181D01*
X72468949Y-49520264D01*
X72469117Y-49521795D01*
X72465306Y-49536540D01*
X72455725Y-49565105D01*
X72441143Y-49605533D01*
X72422327Y-49655871D01*
X72400045Y-49714164D01*
X72375066Y-49778455D01*
X72348158Y-49846791D01*
X72320088Y-49917217D01*
X72291626Y-49987777D01*
X72263538Y-50056516D01*
X72236593Y-50121480D01*
X72211560Y-50180714D01*
X72189205Y-50232262D01*
X72144973Y-50331038D01*
X72042736Y-50547827D01*
X71941108Y-50747061D01*
X71839966Y-50928904D01*
X71739189Y-51093518D01*
X71638654Y-51241068D01*
X71538238Y-51371717D01*
X71437820Y-51485628D01*
X71337277Y-51582964D01*
X71236488Y-51663890D01*
X71135329Y-51728568D01*
X71033679Y-51777162D01*
X71021288Y-51781943D01*
X70990590Y-51792345D01*
X70967824Y-51797964D01*
X70957200Y-51797670D01*
X70955938Y-51795241D01*
X70951434Y-51778268D01*
X70946150Y-51749855D01*
X70940985Y-51714597D01*
X70937487Y-51690150D01*
X70909254Y-51564651D01*
X70864262Y-51439124D01*
X70803314Y-51315038D01*
X70727212Y-51193862D01*
X70636755Y-51077065D01*
X70532746Y-50966116D01*
X70470258Y-50907870D01*
X70353509Y-50812037D01*
X70230022Y-50727212D01*
X70098406Y-50652788D01*
X69957272Y-50588158D01*
X69805228Y-50532718D01*
X69640884Y-50485860D01*
X69462851Y-50446978D01*
X69269737Y-50415467D01*
X69208162Y-50407366D01*
X69127540Y-50397642D01*
X69035076Y-50387181D01*
X68933835Y-50376284D01*
X68826885Y-50365255D01*
X68717291Y-50354397D01*
X68608120Y-50344015D01*
X68502439Y-50334410D01*
X68403314Y-50325888D01*
X68313812Y-50318750D01*
X68236999Y-50313300D01*
X68234665Y-50313134D01*
X68232153Y-50312410D01*
X68245478Y-50311979D01*
X68272980Y-50311842D01*
X68313001Y-50312000D01*
X68363881Y-50312453D01*
X68423960Y-50313203D01*
X68484212Y-50314205D01*
X68547628Y-50315601D01*
X68604946Y-50317212D01*
X68653240Y-50318943D01*
X68689582Y-50320701D01*
X68711047Y-50322393D01*
X68757755Y-50328215D01*
X68687350Y-50182307D01*
X68684788Y-50176985D01*
X68658419Y-50121052D01*
X68627858Y-50054579D01*
X68595503Y-49982873D01*
X68563749Y-49911240D01*
X68534994Y-49844986D01*
X68511526Y-49790328D01*
X68454896Y-49659977D01*
X68403487Y-49544152D01*
X68356560Y-49441304D01*
X68313374Y-49349883D01*
X68273187Y-49268340D01*
X68235260Y-49195128D01*
X68198852Y-49128696D01*
X68163221Y-49067497D01*
X68104365Y-48969482D01*
X68080856Y-49022183D01*
X68072297Y-49041859D01*
X68059971Y-49071169D01*
X68044087Y-49109740D01*
X68024278Y-49158488D01*
X68000177Y-49218326D01*
X67971417Y-49290170D01*
X67937630Y-49374934D01*
X67898450Y-49473532D01*
X67853510Y-49586881D01*
X67802442Y-49715894D01*
X67784215Y-49761828D01*
X67752281Y-49841712D01*
X67719937Y-49921964D01*
X67688561Y-49999192D01*
X67659533Y-50070009D01*
X67634234Y-50131023D01*
X67614042Y-50178845D01*
X67593761Y-50225390D01*
X67570019Y-50278543D01*
X67544079Y-50335596D01*
X67516997Y-50394314D01*
X67489834Y-50452458D01*
X67463646Y-50507793D01*
X67439493Y-50558083D01*
X67418434Y-50601090D01*
X67401526Y-50634579D01*
X67389828Y-50656312D01*
X67384399Y-50664053D01*
X67383153Y-50657580D01*
X67384974Y-50635537D01*
X67389893Y-50599723D01*
X67397535Y-50552071D01*
X67407529Y-50494513D01*
X67419501Y-50428980D01*
X67433077Y-50357404D01*
X67447886Y-50281716D01*
X67463553Y-50203850D01*
X67479706Y-50125735D01*
X67495972Y-50049305D01*
X67511977Y-49976491D01*
X67527348Y-49909224D01*
X67541714Y-49849437D01*
X67569083Y-49743200D01*
X67599393Y-49632971D01*
X67631915Y-49520968D01*
X67666001Y-49409098D01*
X67701002Y-49299265D01*
X67736268Y-49193377D01*
X67771150Y-49093338D01*
X67804999Y-49001054D01*
X67837165Y-48918431D01*
X67867000Y-48847376D01*
X67893854Y-48789792D01*
X67917078Y-48747587D01*
X67937675Y-48718791D01*
X67980087Y-48678687D01*
X68027919Y-48654461D01*
X68079666Y-48646748D01*
X68133821Y-48656183D01*
X68138096Y-48657664D01*
X68189941Y-48685077D01*
X68241899Y-48729661D01*
X68293720Y-48790835D01*
X68345151Y-48868016D01*
X68395940Y-48960622D01*
X68445834Y-49068072D01*
X68494582Y-49189783D01*
X68541931Y-49325173D01*
X68587630Y-49473660D01*
X68631427Y-49634662D01*
X68673068Y-49807597D01*
X68712303Y-49991884D01*
X68723995Y-50051557D01*
X68735303Y-50111499D01*
X68745352Y-50166925D01*
X68753360Y-50213526D01*
X68758546Y-50246996D01*
X68769184Y-50324051D01*
X68890368Y-50329119D01*
X68961608Y-50332236D01*
X69098908Y-50339238D01*
X69221526Y-50347121D01*
X69331572Y-50356186D01*
X69431158Y-50366739D01*
X69522395Y-50379084D01*
X69607395Y-50393523D01*
X69688269Y-50410360D01*
X69767129Y-50429900D01*
X69846085Y-50452446D01*
X69927248Y-50478302D01*
X69952423Y-50486840D01*
X70125025Y-50554489D01*
X70286788Y-50634218D01*
X70436923Y-50725447D01*
X70574636Y-50827597D01*
X70699136Y-50940088D01*
X70809630Y-51062341D01*
X70905327Y-51193777D01*
X70930540Y-51233805D01*
X70982795Y-51324952D01*
X71026531Y-51413241D01*
X71059413Y-51494120D01*
X71083695Y-51562988D01*
X71120424Y-51534478D01*
X71166999Y-51495217D01*
X71240036Y-51422358D01*
X71315675Y-51334238D01*
X71393108Y-51232123D01*
X71471523Y-51117274D01*
X71550111Y-50990958D01*
X71628060Y-50854438D01*
X71704562Y-50708978D01*
X71778805Y-50555842D01*
X71849979Y-50396293D01*
X71857461Y-50378610D01*
X71875580Y-50334813D01*
X71896423Y-50283424D01*
X71919052Y-50226853D01*
X71942531Y-50167513D01*
X71965921Y-50107813D01*
X71988284Y-50050165D01*
X72008684Y-49996979D01*
X72026183Y-49950667D01*
X72039843Y-49913639D01*
X72048726Y-49888305D01*
X72051896Y-49877078D01*
X72046377Y-49876969D01*
X72026562Y-49880844D01*
X71995215Y-49888348D01*
X71955362Y-49898673D01*
X71910031Y-49911009D01*
X71862251Y-49924549D01*
X71815050Y-49938483D01*
X71771454Y-49952002D01*
X71745883Y-49960391D01*
X71684172Y-49981905D01*
X71616341Y-50006941D01*
X71546225Y-50033973D01*
X71477661Y-50061477D01*
X71414484Y-50087929D01*
X71360529Y-50111804D01*
X71319632Y-50131578D01*
X71290321Y-50147243D01*
X71211790Y-50194850D01*
X71144306Y-50246145D01*
X71082864Y-50305249D01*
X71022454Y-50376288D01*
X70994535Y-50410455D01*
X70969954Y-50436313D01*
X70948299Y-50453129D01*
X70926123Y-50464041D01*
X70921280Y-50465958D01*
X70897081Y-50479063D01*
X70876986Y-50498669D01*
X70855622Y-50529785D01*
X70842201Y-50550422D01*
X70793413Y-50609095D01*
X70736712Y-50653364D01*
X70669510Y-50685391D01*
X70626855Y-50699108D01*
X70584142Y-50706302D01*
X70547710Y-50702247D01*
X70512920Y-50686285D01*
X70475134Y-50657755D01*
X70470736Y-50654001D01*
X70443221Y-50630955D01*
X70406908Y-50601019D01*
X70366007Y-50567650D01*
X70324731Y-50534304D01*
X70320426Y-50530833D01*
X70276355Y-50494194D01*
X70231189Y-50454934D01*
X70189999Y-50417545D01*
X70157854Y-50386516D01*
X70093360Y-50320978D01*
X70233529Y-50182475D01*
X70308904Y-50109046D01*
X70515654Y-49918589D01*
X70723114Y-49743807D01*
X70933196Y-49583212D01*
X71147811Y-49435314D01*
X71368872Y-49298626D01*
X71511484Y-49218450D01*
X71652002Y-49146442D01*
X71795199Y-49080435D01*
X71946109Y-49018110D01*
X72109765Y-48957145D01*
X72126226Y-48951290D01*
X72203859Y-48923677D01*
X72267126Y-48901299D01*
X72318077Y-48883602D01*
X72358760Y-48870033D01*
X72391226Y-48860040D01*
X72417523Y-48853067D01*
X72439700Y-48848563D01*
X72459808Y-48845973D01*
X72479894Y-48844745D01*
X72502009Y-48844326D01*
X72528201Y-48844161D01*
X72580254Y-48845023D01*
X72634354Y-48850592D01*
X72680198Y-48862488D01*
X72722891Y-48882136D01*
X72767535Y-48910960D01*
X72807514Y-48944707D01*
X72858881Y-49005888D01*
X72902967Y-49081027D01*
X72938814Y-49168402D01*
X72965464Y-49266297D01*
X72973174Y-49315283D01*
X72978817Y-49380854D01*
X72981699Y-49455302D01*
X72981819Y-49534109D01*
X72979176Y-49612758D01*
X72973768Y-49686729D01*
X72965595Y-49751505D01*
X72951010Y-49835096D01*
X72932492Y-49931397D01*
X72911840Y-50031232D01*
X72890480Y-50127716D01*
X72869838Y-50213963D01*
X72840780Y-50323372D01*
X72799281Y-50465605D01*
X72750319Y-50621295D01*
X72694365Y-50789211D01*
X72631890Y-50968123D01*
X72563364Y-51156799D01*
X72489259Y-51354009D01*
X72410046Y-51558522D01*
X72326195Y-51769106D01*
X72238177Y-51984530D01*
X72146463Y-52203565D01*
X72051524Y-52424977D01*
X71953831Y-52647537D01*
X71853855Y-52870014D01*
X71743415Y-53112883D01*
X71768197Y-53283999D01*
X71768947Y-53289181D01*
X71776197Y-53339098D01*
X71785517Y-53403098D01*
X71796448Y-53478044D01*
X71808533Y-53560802D01*
X71821314Y-53648235D01*
X71834334Y-53737208D01*
X71847133Y-53824586D01*
X71856186Y-53886401D01*
X71872005Y-53994632D01*
X71889098Y-54111790D01*
X71906693Y-54232568D01*
X71924016Y-54351656D01*
X71940294Y-54463746D01*
X71954753Y-54563528D01*
X71956754Y-54577335D01*
X71969433Y-54664244D01*
X71982312Y-54751543D01*
X71994938Y-54836231D01*
X72006858Y-54915303D01*
X72017621Y-54985757D01*
X72026774Y-55044590D01*
X72033865Y-55088799D01*
X72049255Y-55183818D01*
X72065524Y-55289523D01*
X72078706Y-55383087D01*
X72089089Y-55467456D01*
X72096964Y-55545574D01*
X72102620Y-55620388D01*
X72106347Y-55694841D01*
X72108434Y-55771880D01*
X72109171Y-55854450D01*
X72109193Y-55897096D01*
X72108706Y-55971484D01*
X72107155Y-56033699D01*
X72104115Y-56087502D01*
X72099160Y-56136651D01*
X72091862Y-56184907D01*
X72081798Y-56236030D01*
X72068539Y-56293779D01*
X72051661Y-56361915D01*
X72013208Y-56498154D01*
X71950841Y-56672508D01*
X71873530Y-56844794D01*
X71872926Y-56846019D01*
X71856953Y-56879492D01*
X71846264Y-56904044D01*
X71841791Y-56917357D01*
X71844462Y-56917117D01*
X71876677Y-56878427D01*
X71955313Y-56779522D01*
X72024162Y-56685335D01*
X72086391Y-56591402D01*
X72145168Y-56493255D01*
X72170513Y-56447653D01*
X72257368Y-56268402D01*
X72328241Y-56081789D01*
X72383039Y-55888385D01*
X72421670Y-55688763D01*
X72444042Y-55483494D01*
X72450061Y-55273149D01*
X72439636Y-55058300D01*
X72412674Y-54839518D01*
X72408857Y-54815584D01*
X72401020Y-54766085D01*
X72394099Y-54721919D01*
X72388733Y-54687166D01*
X72385558Y-54665911D01*
X72380504Y-54630299D01*
X72393289Y-54661460D01*
X72413250Y-54711834D01*
X72454708Y-54827640D01*
X72493004Y-54949482D01*
X72526628Y-55072040D01*
X72554071Y-55189991D01*
X72573825Y-55298018D01*
X72580607Y-55354430D01*
X72586208Y-55430266D01*
X72589647Y-55514893D01*
X72590922Y-55603900D01*
X72590028Y-55692877D01*
X72586962Y-55777413D01*
X72581722Y-55853098D01*
X72574302Y-55915522D01*
X72561597Y-55987036D01*
X72541579Y-56079831D01*
X72517959Y-56173725D01*
X72492337Y-56262430D01*
X72466315Y-56339658D01*
X72426758Y-56439419D01*
X72338796Y-56624905D01*
X72234018Y-56805578D01*
X72112725Y-56981101D01*
X71975221Y-57151140D01*
X71821807Y-57315357D01*
X71652788Y-57473417D01*
X71468465Y-57624984D01*
X71269141Y-57769720D01*
X71055118Y-57907291D01*
X71044507Y-57913676D01*
X71002510Y-57938337D01*
X70954199Y-57965782D01*
X70898370Y-57996651D01*
X70833819Y-58031589D01*
X70759341Y-58071236D01*
X70673733Y-58116236D01*
X70575790Y-58167231D01*
X70464309Y-58224862D01*
X70338086Y-58289772D01*
X70333602Y-58292070D01*
X70105268Y-58400473D01*
X69867154Y-58497460D01*
X69622085Y-58582218D01*
X69372884Y-58653931D01*
X69122374Y-58711786D01*
X68873381Y-58754968D01*
X68628727Y-58782664D01*
X68627807Y-58782738D01*
X68575151Y-58785932D01*
X68508935Y-58788342D01*
X68433077Y-58789964D01*
X68351495Y-58790796D01*
X68268108Y-58790837D01*
X68186834Y-58790084D01*
X68111593Y-58788534D01*
X68046302Y-58786186D01*
X67994880Y-58783036D01*
X67953250Y-58779334D01*
X67865338Y-58769912D01*
X67776189Y-58758442D01*
X67689607Y-58745511D01*
X67609397Y-58731709D01*
X67539363Y-58717625D01*
X67483307Y-58703846D01*
X67479926Y-58702893D01*
X67310724Y-58645964D01*
X67145391Y-58572532D01*
X66985465Y-58483728D01*
X66832482Y-58380682D01*
X66687979Y-58264526D01*
X66553495Y-58136390D01*
X66430567Y-57997405D01*
X66320733Y-57848701D01*
X66292513Y-57804336D01*
X66229209Y-57685029D01*
X66175019Y-57552563D01*
X66130668Y-57408855D01*
X66096880Y-57255824D01*
X66089042Y-57209307D01*
X66068877Y-57035631D01*
X66062154Y-56856004D01*
X66068968Y-56669827D01*
X66089416Y-56476504D01*
X66123594Y-56275438D01*
X66171598Y-56066033D01*
X66233526Y-55847691D01*
X66309473Y-55619816D01*
X66399535Y-55381811D01*
X66419552Y-55333448D01*
X66436697Y-55296552D01*
X66449201Y-55275716D01*
X66457330Y-55270427D01*
X66475057Y-55278769D01*
X66508032Y-55297130D01*
X66551256Y-55323033D01*
X66602393Y-55354942D01*
X66659104Y-55391321D01*
X66719052Y-55430635D01*
X66779900Y-55471347D01*
X66839310Y-55511923D01*
X66894945Y-55550826D01*
X66944468Y-55586521D01*
X66985541Y-55617471D01*
X67029822Y-55653037D01*
X67103221Y-55716403D01*
X67176329Y-55784493D01*
X67246767Y-55854814D01*
X67312154Y-55924871D01*
X67370112Y-55992173D01*
X67418260Y-56054225D01*
X67454219Y-56108533D01*
X67465879Y-56127743D01*
X67477368Y-56144157D01*
X67482024Y-56147112D01*
X67480264Y-56138216D01*
X67472508Y-56119073D01*
X67459173Y-56091292D01*
X67440676Y-56056477D01*
X67438781Y-56053068D01*
X67385255Y-55965291D01*
X67323414Y-55879891D01*
X67250660Y-55793546D01*
X67164398Y-55702932D01*
X67162454Y-55700991D01*
X67104489Y-55644786D01*
X67043760Y-55589330D01*
X66978690Y-55533407D01*
X66907704Y-55475802D01*
X66829225Y-55415298D01*
X66741677Y-55350677D01*
X66643483Y-55280725D01*
X66533067Y-55204225D01*
X66408853Y-55119960D01*
X66236801Y-55004222D01*
X66643202Y-55001906D01*
X66736010Y-55001346D01*
X66815920Y-55000757D01*
X66880955Y-55000091D01*
X66932608Y-54999284D01*
X66972368Y-54998268D01*
X67001726Y-54996978D01*
X67022173Y-54995348D01*
X67035199Y-54993311D01*
X67042294Y-54990802D01*
X67044951Y-54987753D01*
X67044659Y-54984100D01*
X67043560Y-54980937D01*
X67036712Y-54962485D01*
X67024827Y-54931130D01*
X67008916Y-54889518D01*
X66989987Y-54840293D01*
X66969051Y-54786100D01*
X66957710Y-54756869D01*
X66936884Y-54703861D01*
X66920765Y-54664442D01*
X66908282Y-54636497D01*
X66898362Y-54617912D01*
X66889935Y-54606573D01*
X66881927Y-54600365D01*
X66873267Y-54597175D01*
X66865424Y-54595386D01*
X66840305Y-54590146D01*
X66802205Y-54582478D01*
X66753908Y-54572934D01*
X66698197Y-54562066D01*
X66637857Y-54550429D01*
X66490282Y-54520606D01*
X66316314Y-54481594D01*
X66146133Y-54439343D01*
X65981738Y-54394456D01*
X65825127Y-54347538D01*
X65678300Y-54299192D01*
X65543255Y-54250020D01*
X65421991Y-54200627D01*
X65316506Y-54151614D01*
X65303515Y-54145033D01*
X65171786Y-54069884D01*
X65055278Y-53986564D01*
X64952932Y-53893863D01*
X64863690Y-53790568D01*
X64786493Y-53675467D01*
X64720280Y-53547349D01*
X64663994Y-53405001D01*
X64641873Y-53337578D01*
X64599103Y-53179030D01*
X64571192Y-53026405D01*
X64558182Y-52880416D01*
X64560116Y-52741774D01*
X64577037Y-52611190D01*
X64582743Y-52589434D01*
X64858364Y-52589434D01*
X64861862Y-52617002D01*
X64871559Y-52649513D01*
X64874146Y-52656967D01*
X64891214Y-52702801D01*
X64908904Y-52745488D01*
X64925642Y-52781595D01*
X64939853Y-52807692D01*
X64949960Y-52820344D01*
X64963131Y-52823551D01*
X64989563Y-52825466D01*
X65023690Y-52825782D01*
X65060322Y-52824460D01*
X65094272Y-52821459D01*
X65135748Y-52815148D01*
X65221140Y-52796099D01*
X65306680Y-52769876D01*
X65386398Y-52738429D01*
X65454328Y-52703711D01*
X65487857Y-52682422D01*
X65529965Y-52651790D01*
X65566007Y-52621231D01*
X65592773Y-52593524D01*
X65607056Y-52571449D01*
X65611242Y-52543499D01*
X65601496Y-52506109D01*
X65575793Y-52462972D01*
X65533886Y-52413556D01*
X65494869Y-52375923D01*
X65434710Y-52329334D01*
X65374035Y-52294808D01*
X65316368Y-52274595D01*
X65291304Y-52269926D01*
X65268005Y-52269185D01*
X65242046Y-52273524D01*
X65206413Y-52283513D01*
X65186001Y-52290395D01*
X65144113Y-52306819D01*
X65097612Y-52327138D01*
X65053321Y-52348457D01*
X65033051Y-52358853D01*
X64999375Y-52377085D01*
X64975446Y-52392745D01*
X64956994Y-52409384D01*
X64939747Y-52430556D01*
X64919434Y-52459814D01*
X64895014Y-52496960D01*
X64873945Y-52533356D01*
X64862060Y-52562867D01*
X64858364Y-52589434D01*
X64582743Y-52589434D01*
X64608988Y-52489375D01*
X64616565Y-52465568D01*
X64628208Y-52424634D01*
X64636885Y-52388997D01*
X64656360Y-52324083D01*
X64693457Y-52253068D01*
X64746051Y-52188294D01*
X64814467Y-52129488D01*
X64899031Y-52076377D01*
X65000068Y-52028688D01*
X65117905Y-51986150D01*
X65124549Y-51984119D01*
X65159871Y-51974536D01*
X65207781Y-51962808D01*
X65264383Y-51949836D01*
X65325778Y-51936519D01*
X65388068Y-51923760D01*
X65451109Y-51911162D01*
X65533759Y-51894441D01*
X65620146Y-51876786D01*
X65703199Y-51859643D01*
X65775846Y-51844457D01*
X65857699Y-51827430D01*
X65948261Y-51809042D01*
X66040837Y-51790650D01*
X66132651Y-51772780D01*
X66220927Y-51755963D01*
X66302888Y-51740726D01*
X66375759Y-51727598D01*
X66436763Y-51717108D01*
X66483126Y-51709785D01*
X66494631Y-51708216D01*
X66540910Y-51703168D01*
X66597037Y-51698431D01*
X66656954Y-51694475D01*
X66714602Y-51691772D01*
X66717041Y-51691686D01*
X66777250Y-51689530D01*
X66822179Y-51687462D01*
X66854255Y-51684843D01*
X66875902Y-51681031D01*
X66889545Y-51675387D01*
X66897610Y-51667270D01*
X66902521Y-51656041D01*
X66906704Y-51641058D01*
X66910163Y-51624877D01*
X66912909Y-51582145D01*
X66908784Y-51528351D01*
X66897608Y-51461785D01*
X66879199Y-51380738D01*
X66875752Y-51366725D01*
X66863254Y-51311274D01*
X66855953Y-51266909D01*
X66853481Y-51228867D01*
X66855468Y-51192386D01*
X66861547Y-51152703D01*
X66879256Y-51090997D01*
X66915761Y-51019422D01*
X66967815Y-50951534D01*
X67034212Y-50888630D01*
X67113751Y-50832003D01*
X67205226Y-50782948D01*
X67237174Y-50768836D01*
X67323903Y-50735566D01*
X67417562Y-50705665D01*
X67512642Y-50680646D01*
X67603631Y-50662020D01*
X67685019Y-50651299D01*
X67690349Y-50650855D01*
X67710039Y-50649369D01*
X67720653Y-50649143D01*
X67720810Y-50650631D01*
X67709132Y-50654286D01*
X67684238Y-50660563D01*
X67644748Y-50669916D01*
X67589284Y-50682799D01*
X67545025Y-50693483D01*
X67434716Y-50724814D01*
X67334887Y-50760920D01*
X67240292Y-50803619D01*
X67228752Y-50809409D01*
X67168466Y-50842198D01*
X67118689Y-50874958D01*
X67073743Y-50911787D01*
X67027946Y-50956782D01*
X66986536Y-51005622D01*
X66953674Y-51060990D01*
X66934041Y-51120650D01*
X66925536Y-51189378D01*
X66924605Y-51215112D01*
X66925048Y-51243243D01*
X66927946Y-51270789D01*
X66934006Y-51302147D01*
X66943937Y-51341714D01*
X66958446Y-51393887D01*
X66977394Y-51466751D01*
X66990515Y-51535584D01*
X66995392Y-51593898D01*
X66992231Y-51644357D01*
X66981236Y-51689627D01*
X66979347Y-51694964D01*
X66961239Y-51730800D01*
X66935668Y-51756599D01*
X66900244Y-51773566D01*
X66852577Y-51782904D01*
X66790276Y-51785819D01*
X66750142Y-51786946D01*
X66683658Y-51792391D01*
X66605994Y-51802490D01*
X66516342Y-51817403D01*
X66413891Y-51837291D01*
X66297832Y-51862312D01*
X66167357Y-51892628D01*
X66021657Y-51928398D01*
X65859922Y-51969781D01*
X65807967Y-51983288D01*
X65741035Y-52000649D01*
X65680539Y-52016295D01*
X65628638Y-52029669D01*
X65587492Y-52040217D01*
X65559258Y-52047382D01*
X65546095Y-52050609D01*
X65533597Y-52054603D01*
X65526316Y-52060622D01*
X65531895Y-52066549D01*
X65549105Y-52079079D01*
X65573855Y-52094864D01*
X65632306Y-52133958D01*
X65714130Y-52205022D01*
X65781822Y-52286821D01*
X65835609Y-52379600D01*
X65836740Y-52381975D01*
X65851709Y-52414664D01*
X65861105Y-52440446D01*
X65866222Y-52465497D01*
X65868352Y-52495994D01*
X65868788Y-52538116D01*
X65868755Y-52543499D01*
X65868620Y-52565922D01*
X65867096Y-52601597D01*
X65863143Y-52628736D01*
X65855748Y-52653128D01*
X65843901Y-52680562D01*
X65842512Y-52683492D01*
X65805462Y-52742283D01*
X65752788Y-52799303D01*
X65686564Y-52853356D01*
X65608863Y-52903248D01*
X65521757Y-52947784D01*
X65427320Y-52985772D01*
X65327624Y-53016015D01*
X65224742Y-53037320D01*
X65220242Y-53038017D01*
X65164494Y-53044562D01*
X65104500Y-53048361D01*
X65043911Y-53049498D01*
X64986379Y-53048058D01*
X64935557Y-53044124D01*
X64895095Y-53037782D01*
X64868646Y-53029115D01*
X64863132Y-53026221D01*
X64844956Y-53017894D01*
X64836355Y-53015991D01*
X64836206Y-53018720D01*
X64838352Y-53035241D01*
X64843206Y-53063122D01*
X64850093Y-53098314D01*
X64865630Y-53165504D01*
X64898728Y-53276098D01*
X64939827Y-53383471D01*
X64987622Y-53485194D01*
X65040810Y-53578834D01*
X65098086Y-53661961D01*
X65158144Y-53732145D01*
X65219681Y-53786955D01*
X65250165Y-53808706D01*
X65336349Y-53861797D01*
X65438700Y-53914875D01*
X65556062Y-53967566D01*
X65687277Y-54019496D01*
X65831191Y-54070288D01*
X65986647Y-54119570D01*
X66152489Y-54166966D01*
X66327560Y-54212103D01*
X66510704Y-54254604D01*
X66700765Y-54294096D01*
X66896588Y-54330205D01*
X67087477Y-54363212D01*
X67108482Y-54416630D01*
X67113267Y-54428807D01*
X67137768Y-54491396D01*
X67164737Y-54560620D01*
X67193487Y-54634691D01*
X67223333Y-54711822D01*
X67253591Y-54790226D01*
X67283573Y-54868115D01*
X67312595Y-54943703D01*
X67339972Y-55015203D01*
X67365017Y-55080826D01*
X67387046Y-55138787D01*
X67405373Y-55187297D01*
X67419312Y-55224570D01*
X67428178Y-55248819D01*
X67431286Y-55258255D01*
X67425484Y-55260762D01*
X67403529Y-55263351D01*
X67366773Y-55265338D01*
X67316864Y-55266638D01*
X67255453Y-55267168D01*
X67079621Y-55267479D01*
X67124135Y-55304175D01*
X67127239Y-55306753D01*
X67164057Y-55339331D01*
X67209230Y-55382086D01*
X67260085Y-55432231D01*
X67313946Y-55486978D01*
X67368141Y-55543539D01*
X67419993Y-55599127D01*
X67466828Y-55650953D01*
X67505972Y-55696231D01*
X67534750Y-55732172D01*
X67594670Y-55817307D01*
X67658532Y-55920319D01*
X67713919Y-56023501D01*
X67757820Y-56121599D01*
X67771073Y-56161600D01*
X67799956Y-56248775D01*
X67826452Y-56380549D01*
G37*
%TD*%
D10*
%TO.C,J1*%
X66287500Y-44160000D03*
D11*
X65287500Y-41460000D03*
D10*
X71287500Y-44160000D03*
D11*
X72287500Y-41460000D03*
%TD*%
D12*
%TO.C,H2*%
X75800000Y-94425000D03*
%TD*%
%TO.C,H4*%
X61775000Y-94425000D03*
%TD*%
%TO.C,H3*%
X60675000Y-42775000D03*
%TD*%
%TO.C,H1*%
X77125000Y-42775000D03*
%TD*%
D13*
%TO.C,J3*%
X80225000Y-94975000D03*
D14*
X80225000Y-92435000D03*
X80225000Y-89895000D03*
X80225000Y-87355000D03*
X80225000Y-84815000D03*
X80225000Y-82275000D03*
X80225000Y-79735000D03*
X80225000Y-77195000D03*
X80225000Y-74655000D03*
X80225000Y-72115000D03*
X80225000Y-69575000D03*
X80225000Y-67035000D03*
X80225000Y-64495000D03*
X80225000Y-61955000D03*
X80225000Y-59415000D03*
X80225000Y-56875000D03*
X80225000Y-54335000D03*
X80225000Y-51795000D03*
X80225000Y-49255000D03*
X80225000Y-46715000D03*
%TD*%
D13*
%TO.C,J2*%
X57350000Y-46725000D03*
D14*
X57350000Y-49265000D03*
X57350000Y-51805000D03*
X57350000Y-54345000D03*
X57350000Y-56885000D03*
X57350000Y-59425000D03*
X57350000Y-61965000D03*
X57350000Y-64505000D03*
X57350000Y-67045000D03*
X57350000Y-69585000D03*
X57350000Y-72125000D03*
X57350000Y-74665000D03*
X57350000Y-77205000D03*
X57350000Y-79745000D03*
X57350000Y-82285000D03*
X57350000Y-84825000D03*
X57350000Y-87365000D03*
X57350000Y-89905000D03*
X57350000Y-92445000D03*
X57350000Y-94985000D03*
%TD*%
D13*
%TO.C,J4*%
X66250000Y-94975000D03*
D14*
X68790000Y-94975000D03*
X71330000Y-94975000D03*
%TD*%
M02*
