M48
; DRILL file {KiCad (6.0.8)} date Sat Jun 24 19:25:24 2023
; FORMAT={-:-/ absolute / metric / decimal}
; #@! TF.CreationDate,2023-06-24T19:25:24-06:00
; #@! TF.GenerationSoftware,Kicad,Pcbnew,(6.0.8)
; #@! TF.FileFunction,MixedPlating,1,2
FMAT,2
METRIC
; #@! TA.AperFunction,Plated,PTH,ViaDrill
T1C0.300
; #@! TA.AperFunction,Plated,PTH,ComponentDrill
T2C0.350
; #@! TA.AperFunction,Plated,PTH,ComponentDrill
T3C0.500
; #@! TA.AperFunction,Plated,PTH,ComponentDrill
T4C0.550
; #@! TA.AperFunction,Plated,PTH,ComponentDrill
T5C1.000
; #@! TA.AperFunction,NonPlated,NPTH,ComponentDrill
T6C2.100
%
G90
G05
T1
X60.5Y-63.68
X60.83Y-74.305
X60.84Y-74.92
X61.161Y-63.681
X61.723Y-69.0
X61.975Y-65.2
X62.225Y-85.13
X62.225Y-85.95
X62.27Y-61.0
X62.27Y-62.31
X62.47Y-69.0
X62.74Y-64.404
X63.49Y-47.875
X63.49Y-61.11
X63.59Y-65.18
X63.695Y-56.285
X63.695Y-57.105
X64.06Y-63.84
X64.225Y-47.875
X64.759Y-62.021
X65.355Y-80.01
X65.91Y-80.99
X67.31Y-84.14
X67.89Y-81.78
X68.28Y-64.61
X68.38Y-93.6
X68.48Y-75.75
X68.54Y-81.77
X68.76Y-70.74
X69.1Y-64.61
X69.2Y-93.6
X69.261Y-68.36
X69.67Y-81.77
X70.33Y-81.77
X70.41Y-84.13
X70.74Y-70.74
X71.34Y-75.75
X71.506Y-78.384
X71.9Y-83.29
X71.9Y-84.11
X71.9Y-85.1
X71.9Y-85.92
X71.94Y-48.12
X71.95Y-79.62
X72.375Y-61.9
X72.375Y-62.72
X72.76Y-48.12
X72.99Y-64.61
X73.81Y-64.61
X73.935Y-45.078
X74.11Y-68.11
X74.66Y-64.61
X74.755Y-45.078
X75.48Y-64.61
X76.15Y-55.17
X76.97Y-55.17
X77.22Y-67.48
X77.37Y-68.77
X77.37Y-69.59
X77.37Y-70.36
X77.37Y-71.11
X77.55Y-74.73
X77.56Y-75.51
T2
X67.675Y-72.025
X67.675Y-73.3
X67.675Y-74.575
X68.95Y-72.025
X68.95Y-73.3
X68.95Y-74.575
X70.225Y-72.025
X70.225Y-73.3
X70.225Y-74.575
T5
X57.35Y-46.725
X57.35Y-49.265
X57.35Y-51.805
X57.35Y-54.345
X57.35Y-56.885
X57.35Y-59.425
X57.35Y-61.965
X57.35Y-64.505
X57.35Y-67.045
X57.35Y-69.585
X57.35Y-72.125
X57.35Y-74.665
X57.35Y-77.205
X57.35Y-79.745
X57.35Y-82.285
X57.35Y-84.825
X57.35Y-87.365
X57.35Y-89.905
X57.35Y-92.445
X57.35Y-94.985
X66.25Y-94.975
X68.79Y-94.975
X71.33Y-94.975
X80.225Y-46.715
X80.225Y-49.255
X80.225Y-51.795
X80.225Y-54.335
X80.225Y-56.875
X80.225Y-59.415
X80.225Y-61.955
X80.225Y-64.495
X80.225Y-67.035
X80.225Y-69.575
X80.225Y-72.115
X80.225Y-74.655
X80.225Y-77.195
X80.225Y-79.735
X80.225Y-82.275
X80.225Y-84.815
X80.225Y-87.355
X80.225Y-89.895
X80.225Y-92.435
X80.225Y-94.975
T6
X60.675Y-42.775
X61.775Y-94.425
X75.8Y-94.425
X77.125Y-42.775
T3
X65.287Y-41.785G85X65.287Y-41.135
G05
X72.287Y-41.785G85X72.287Y-41.135
G05
T4
X66.438Y-44.16G85X66.138Y-44.16
G05
X71.438Y-44.16G85X71.138Y-44.16
G05
T0
M30
