%TF.GenerationSoftware,KiCad,Pcbnew,(6.0.8)*%
%TF.CreationDate,2023-06-24T19:25:15-06:00*%
%TF.ProjectId,RP2040_devBoard,52503230-3430-45f6-9465-76426f617264,rev?*%
%TF.SameCoordinates,Original*%
%TF.FileFunction,Legend,Top*%
%TF.FilePolarity,Positive*%
%FSLAX46Y46*%
G04 Gerber Fmt 4.6, Leading zero omitted, Abs format (unit mm)*
G04 Created by KiCad (PCBNEW (6.0.8)) date 2023-06-24 19:25:15*
%MOMM*%
%LPD*%
G01*
G04 APERTURE LIST*
G04 Aperture macros list*
%AMRoundRect*
0 Rectangle with rounded corners*
0 $1 Rounding radius*
0 $2 $3 $4 $5 $6 $7 $8 $9 X,Y pos of 4 corners*
0 Add a 4 corners polygon primitive as box body*
4,1,4,$2,$3,$4,$5,$6,$7,$8,$9,$2,$3,0*
0 Add four circle primitives for the rounded corners*
1,1,$1+$1,$2,$3*
1,1,$1+$1,$4,$5*
1,1,$1+$1,$6,$7*
1,1,$1+$1,$8,$9*
0 Add four rect primitives between the rounded corners*
20,1,$1+$1,$2,$3,$4,$5,0*
20,1,$1+$1,$4,$5,$6,$7,0*
20,1,$1+$1,$6,$7,$8,$9,0*
20,1,$1+$1,$8,$9,$2,$3,0*%
G04 Aperture macros list end*
%ADD10C,0.150000*%
%ADD11C,0.125000*%
%ADD12C,0.120000*%
%ADD13C,0.152400*%
%ADD14RoundRect,0.200000X0.275000X-0.200000X0.275000X0.200000X-0.275000X0.200000X-0.275000X-0.200000X0*%
%ADD15RoundRect,0.225000X0.250000X-0.225000X0.250000X0.225000X-0.250000X0.225000X-0.250000X-0.225000X0*%
%ADD16R,0.400000X1.350000*%
%ADD17O,1.250000X0.950000*%
%ADD18R,1.500000X1.550000*%
%ADD19O,0.890000X1.550000*%
%ADD20R,1.200000X1.550000*%
%ADD21RoundRect,0.225000X0.225000X0.250000X-0.225000X0.250000X-0.225000X-0.250000X0.225000X-0.250000X0*%
%ADD22C,2.100000*%
%ADD23RoundRect,0.218750X0.218750X0.256250X-0.218750X0.256250X-0.218750X-0.256250X0.218750X-0.256250X0*%
%ADD24R,1.500000X2.000000*%
%ADD25R,3.800000X2.000000*%
%ADD26RoundRect,0.225000X-0.225000X-0.250000X0.225000X-0.250000X0.225000X0.250000X-0.225000X0.250000X0*%
%ADD27RoundRect,0.150000X-0.650000X-0.150000X0.650000X-0.150000X0.650000X0.150000X-0.650000X0.150000X0*%
%ADD28RoundRect,0.050000X-0.387500X-0.050000X0.387500X-0.050000X0.387500X0.050000X-0.387500X0.050000X0*%
%ADD29RoundRect,0.050000X-0.050000X-0.387500X0.050000X-0.387500X0.050000X0.387500X-0.050000X0.387500X0*%
%ADD30RoundRect,0.144000X-1.456000X-1.456000X1.456000X-1.456000X1.456000X1.456000X-1.456000X1.456000X0*%
%ADD31RoundRect,0.200000X0.200000X0.275000X-0.200000X0.275000X-0.200000X-0.275000X0.200000X-0.275000X0*%
%ADD32RoundRect,0.200000X-0.275000X0.200000X-0.275000X-0.200000X0.275000X-0.200000X0.275000X0.200000X0*%
%ADD33R,5.600000X2.100000*%
%ADD34RoundRect,0.200000X-0.200000X-0.275000X0.200000X-0.275000X0.200000X0.275000X-0.200000X0.275000X0*%
%ADD35R,0.711200X0.990600*%
%ADD36RoundRect,0.225000X-0.250000X0.225000X-0.250000X-0.225000X0.250000X-0.225000X0.250000X0.225000X0*%
%ADD37RoundRect,0.218750X-0.256250X0.218750X-0.256250X-0.218750X0.256250X-0.218750X0.256250X0.218750X0*%
%ADD38R,1.700000X1.700000*%
%ADD39O,1.700000X1.700000*%
G04 APERTURE END LIST*
D10*
%TO.C,R2*%
X72179285Y-64125000D02*
X71822142Y-64375000D01*
X72179285Y-64553571D02*
X71429285Y-64553571D01*
X71429285Y-64267857D01*
X71465000Y-64196428D01*
X71500714Y-64160714D01*
X71572142Y-64125000D01*
X71679285Y-64125000D01*
X71750714Y-64160714D01*
X71786428Y-64196428D01*
X71822142Y-64267857D01*
X71822142Y-64553571D01*
X71500714Y-63839285D02*
X71465000Y-63803571D01*
X71429285Y-63732142D01*
X71429285Y-63553571D01*
X71465000Y-63482142D01*
X71500714Y-63446428D01*
X71572142Y-63410714D01*
X71643571Y-63410714D01*
X71750714Y-63446428D01*
X72179285Y-63875000D01*
X72179285Y-63410714D01*
%TO.C,C10*%
X65937857Y-66357142D02*
X65973571Y-66392857D01*
X66009285Y-66500000D01*
X66009285Y-66571428D01*
X65973571Y-66678571D01*
X65902142Y-66750000D01*
X65830714Y-66785714D01*
X65687857Y-66821428D01*
X65580714Y-66821428D01*
X65437857Y-66785714D01*
X65366428Y-66750000D01*
X65295000Y-66678571D01*
X65259285Y-66571428D01*
X65259285Y-66500000D01*
X65295000Y-66392857D01*
X65330714Y-66357142D01*
X66009285Y-65642857D02*
X66009285Y-66071428D01*
X66009285Y-65857142D02*
X65259285Y-65857142D01*
X65366428Y-65928571D01*
X65437857Y-66000000D01*
X65473571Y-66071428D01*
X65259285Y-65178571D02*
X65259285Y-65107142D01*
X65295000Y-65035714D01*
X65330714Y-65000000D01*
X65402142Y-64964285D01*
X65545000Y-64928571D01*
X65723571Y-64928571D01*
X65866428Y-64964285D01*
X65937857Y-65000000D01*
X65973571Y-65035714D01*
X66009285Y-65107142D01*
X66009285Y-65178571D01*
X65973571Y-65250000D01*
X65937857Y-65285714D01*
X65866428Y-65321428D01*
X65723571Y-65357142D01*
X65545000Y-65357142D01*
X65402142Y-65321428D01*
X65330714Y-65285714D01*
X65295000Y-65250000D01*
X65259285Y-65178571D01*
%TO.C,J1*%
X68466666Y-45442380D02*
X68466666Y-46156666D01*
X68419047Y-46299523D01*
X68323809Y-46394761D01*
X68180952Y-46442380D01*
X68085714Y-46442380D01*
X69466666Y-46442380D02*
X68895238Y-46442380D01*
X69180952Y-46442380D02*
X69180952Y-45442380D01*
X69085714Y-45585238D01*
X68990476Y-45680476D01*
X68895238Y-45728095D01*
%TO.C,C14*%
X64947857Y-55507857D02*
X64912142Y-55543571D01*
X64805000Y-55579285D01*
X64733571Y-55579285D01*
X64626428Y-55543571D01*
X64555000Y-55472142D01*
X64519285Y-55400714D01*
X64483571Y-55257857D01*
X64483571Y-55150714D01*
X64519285Y-55007857D01*
X64555000Y-54936428D01*
X64626428Y-54865000D01*
X64733571Y-54829285D01*
X64805000Y-54829285D01*
X64912142Y-54865000D01*
X64947857Y-54900714D01*
X65662142Y-55579285D02*
X65233571Y-55579285D01*
X65447857Y-55579285D02*
X65447857Y-54829285D01*
X65376428Y-54936428D01*
X65305000Y-55007857D01*
X65233571Y-55043571D01*
X66305000Y-55079285D02*
X66305000Y-55579285D01*
X66126428Y-54793571D02*
X65947857Y-55329285D01*
X66412142Y-55329285D01*
%TO.C,D3*%
X73971904Y-81332380D02*
X73971904Y-80332380D01*
X74210000Y-80332380D01*
X74352857Y-80380000D01*
X74448095Y-80475238D01*
X74495714Y-80570476D01*
X74543333Y-80760952D01*
X74543333Y-80903809D01*
X74495714Y-81094285D01*
X74448095Y-81189523D01*
X74352857Y-81284761D01*
X74210000Y-81332380D01*
X73971904Y-81332380D01*
X74876666Y-80332380D02*
X75495714Y-80332380D01*
X75162380Y-80713333D01*
X75305238Y-80713333D01*
X75400476Y-80760952D01*
X75448095Y-80808571D01*
X75495714Y-80903809D01*
X75495714Y-81141904D01*
X75448095Y-81237142D01*
X75400476Y-81284761D01*
X75305238Y-81332380D01*
X75019523Y-81332380D01*
X74924285Y-81284761D01*
X74876666Y-81237142D01*
%TO.C,U2*%
X69579285Y-57441428D02*
X70186428Y-57441428D01*
X70257857Y-57405714D01*
X70293571Y-57370000D01*
X70329285Y-57298571D01*
X70329285Y-57155714D01*
X70293571Y-57084285D01*
X70257857Y-57048571D01*
X70186428Y-57012857D01*
X69579285Y-57012857D01*
X69650714Y-56691428D02*
X69615000Y-56655714D01*
X69579285Y-56584285D01*
X69579285Y-56405714D01*
X69615000Y-56334285D01*
X69650714Y-56298571D01*
X69722142Y-56262857D01*
X69793571Y-56262857D01*
X69900714Y-56298571D01*
X70329285Y-56727142D01*
X70329285Y-56262857D01*
D11*
%TO.C,C7*%
X68176666Y-68478571D02*
X68152857Y-68502380D01*
X68081428Y-68526190D01*
X68033809Y-68526190D01*
X67962380Y-68502380D01*
X67914761Y-68454761D01*
X67890952Y-68407142D01*
X67867142Y-68311904D01*
X67867142Y-68240476D01*
X67890952Y-68145238D01*
X67914761Y-68097619D01*
X67962380Y-68050000D01*
X68033809Y-68026190D01*
X68081428Y-68026190D01*
X68152857Y-68050000D01*
X68176666Y-68073809D01*
X68343333Y-68026190D02*
X68676666Y-68026190D01*
X68462380Y-68526190D01*
D10*
%TO.C,C6*%
X73236666Y-69417857D02*
X73201428Y-69453571D01*
X73095714Y-69489285D01*
X73025238Y-69489285D01*
X72919523Y-69453571D01*
X72849047Y-69382142D01*
X72813809Y-69310714D01*
X72778571Y-69167857D01*
X72778571Y-69060714D01*
X72813809Y-68917857D01*
X72849047Y-68846428D01*
X72919523Y-68775000D01*
X73025238Y-68739285D01*
X73095714Y-68739285D01*
X73201428Y-68775000D01*
X73236666Y-68810714D01*
X73870952Y-68739285D02*
X73730000Y-68739285D01*
X73659523Y-68775000D01*
X73624285Y-68810714D01*
X73553809Y-68917857D01*
X73518571Y-69060714D01*
X73518571Y-69346428D01*
X73553809Y-69417857D01*
X73589047Y-69453571D01*
X73659523Y-69489285D01*
X73800476Y-69489285D01*
X73870952Y-69453571D01*
X73906190Y-69417857D01*
X73941428Y-69346428D01*
X73941428Y-69167857D01*
X73906190Y-69096428D01*
X73870952Y-69060714D01*
X73800476Y-69025000D01*
X73659523Y-69025000D01*
X73589047Y-69060714D01*
X73553809Y-69096428D01*
X73518571Y-69167857D01*
%TO.C,U3*%
X61928571Y-57229285D02*
X61928571Y-57836428D01*
X61964285Y-57907857D01*
X62000000Y-57943571D01*
X62071428Y-57979285D01*
X62214285Y-57979285D01*
X62285714Y-57943571D01*
X62321428Y-57907857D01*
X62357142Y-57836428D01*
X62357142Y-57229285D01*
X62642857Y-57229285D02*
X63107142Y-57229285D01*
X62857142Y-57515000D01*
X62964285Y-57515000D01*
X63035714Y-57550714D01*
X63071428Y-57586428D01*
X63107142Y-57657857D01*
X63107142Y-57836428D01*
X63071428Y-57907857D01*
X63035714Y-57943571D01*
X62964285Y-57979285D01*
X62750000Y-57979285D01*
X62678571Y-57943571D01*
X62642857Y-57907857D01*
%TO.C,U1*%
X65968571Y-77619285D02*
X65968571Y-78226428D01*
X66004285Y-78297857D01*
X66040000Y-78333571D01*
X66111428Y-78369285D01*
X66254285Y-78369285D01*
X66325714Y-78333571D01*
X66361428Y-78297857D01*
X66397142Y-78226428D01*
X66397142Y-77619285D01*
X67147142Y-78369285D02*
X66718571Y-78369285D01*
X66932857Y-78369285D02*
X66932857Y-77619285D01*
X66861428Y-77726428D01*
X66790000Y-77797857D01*
X66718571Y-77833571D01*
%TO.C,R5*%
X66535000Y-85839285D02*
X66285000Y-85482142D01*
X66106428Y-85839285D02*
X66106428Y-85089285D01*
X66392142Y-85089285D01*
X66463571Y-85125000D01*
X66499285Y-85160714D01*
X66535000Y-85232142D01*
X66535000Y-85339285D01*
X66499285Y-85410714D01*
X66463571Y-85446428D01*
X66392142Y-85482142D01*
X66106428Y-85482142D01*
X67213571Y-85089285D02*
X66856428Y-85089285D01*
X66820714Y-85446428D01*
X66856428Y-85410714D01*
X66927857Y-85375000D01*
X67106428Y-85375000D01*
X67177857Y-85410714D01*
X67213571Y-85446428D01*
X67249285Y-85517857D01*
X67249285Y-85696428D01*
X67213571Y-85767857D01*
X67177857Y-85803571D01*
X67106428Y-85839285D01*
X66927857Y-85839285D01*
X66856428Y-85803571D01*
X66820714Y-85767857D01*
%TO.C,R3*%
X62809285Y-67135000D02*
X62452142Y-67385000D01*
X62809285Y-67563571D02*
X62059285Y-67563571D01*
X62059285Y-67277857D01*
X62095000Y-67206428D01*
X62130714Y-67170714D01*
X62202142Y-67135000D01*
X62309285Y-67135000D01*
X62380714Y-67170714D01*
X62416428Y-67206428D01*
X62452142Y-67277857D01*
X62452142Y-67563571D01*
X62059285Y-66885000D02*
X62059285Y-66420714D01*
X62345000Y-66670714D01*
X62345000Y-66563571D01*
X62380714Y-66492142D01*
X62416428Y-66456428D01*
X62487857Y-66420714D01*
X62666428Y-66420714D01*
X62737857Y-66456428D01*
X62773571Y-66492142D01*
X62809285Y-66563571D01*
X62809285Y-66777857D01*
X62773571Y-66849285D01*
X62737857Y-66885000D01*
%TO.C,C1*%
X62715000Y-71707857D02*
X62679285Y-71743571D01*
X62572142Y-71779285D01*
X62500714Y-71779285D01*
X62393571Y-71743571D01*
X62322142Y-71672142D01*
X62286428Y-71600714D01*
X62250714Y-71457857D01*
X62250714Y-71350714D01*
X62286428Y-71207857D01*
X62322142Y-71136428D01*
X62393571Y-71065000D01*
X62500714Y-71029285D01*
X62572142Y-71029285D01*
X62679285Y-71065000D01*
X62715000Y-71100714D01*
X63429285Y-71779285D02*
X63000714Y-71779285D01*
X63215000Y-71779285D02*
X63215000Y-71029285D01*
X63143571Y-71136428D01*
X63072142Y-71207857D01*
X63000714Y-71243571D01*
%TO.C,R1*%
X70549285Y-64125000D02*
X70192142Y-64375000D01*
X70549285Y-64553571D02*
X69799285Y-64553571D01*
X69799285Y-64267857D01*
X69835000Y-64196428D01*
X69870714Y-64160714D01*
X69942142Y-64125000D01*
X70049285Y-64125000D01*
X70120714Y-64160714D01*
X70156428Y-64196428D01*
X70192142Y-64267857D01*
X70192142Y-64553571D01*
X70549285Y-63410714D02*
X70549285Y-63839285D01*
X70549285Y-63625000D02*
X69799285Y-63625000D01*
X69906428Y-63696428D01*
X69977857Y-63767857D01*
X70013571Y-63839285D01*
%TO.C,C15*%
X76027857Y-85787857D02*
X75992142Y-85823571D01*
X75885000Y-85859285D01*
X75813571Y-85859285D01*
X75706428Y-85823571D01*
X75635000Y-85752142D01*
X75599285Y-85680714D01*
X75563571Y-85537857D01*
X75563571Y-85430714D01*
X75599285Y-85287857D01*
X75635000Y-85216428D01*
X75706428Y-85145000D01*
X75813571Y-85109285D01*
X75885000Y-85109285D01*
X75992142Y-85145000D01*
X76027857Y-85180714D01*
X76742142Y-85859285D02*
X76313571Y-85859285D01*
X76527857Y-85859285D02*
X76527857Y-85109285D01*
X76456428Y-85216428D01*
X76385000Y-85287857D01*
X76313571Y-85323571D01*
X77420714Y-85109285D02*
X77063571Y-85109285D01*
X77027857Y-85466428D01*
X77063571Y-85430714D01*
X77135000Y-85395000D01*
X77313571Y-85395000D01*
X77385000Y-85430714D01*
X77420714Y-85466428D01*
X77456428Y-85537857D01*
X77456428Y-85716428D01*
X77420714Y-85787857D01*
X77385000Y-85823571D01*
X77313571Y-85859285D01*
X77135000Y-85859285D01*
X77063571Y-85823571D01*
X77027857Y-85787857D01*
%TO.C,C12*%
X76722857Y-62582857D02*
X76687142Y-62618571D01*
X76580000Y-62654285D01*
X76508571Y-62654285D01*
X76401428Y-62618571D01*
X76330000Y-62547142D01*
X76294285Y-62475714D01*
X76258571Y-62332857D01*
X76258571Y-62225714D01*
X76294285Y-62082857D01*
X76330000Y-62011428D01*
X76401428Y-61940000D01*
X76508571Y-61904285D01*
X76580000Y-61904285D01*
X76687142Y-61940000D01*
X76722857Y-61975714D01*
X77437142Y-62654285D02*
X77008571Y-62654285D01*
X77222857Y-62654285D02*
X77222857Y-61904285D01*
X77151428Y-62011428D01*
X77080000Y-62082857D01*
X77008571Y-62118571D01*
X77722857Y-61975714D02*
X77758571Y-61940000D01*
X77830000Y-61904285D01*
X78008571Y-61904285D01*
X78080000Y-61940000D01*
X78115714Y-61975714D01*
X78151428Y-62047142D01*
X78151428Y-62118571D01*
X78115714Y-62225714D01*
X77687142Y-62654285D01*
X78151428Y-62654285D01*
%TO.C,Y1*%
X68343809Y-92456190D02*
X68343809Y-92932380D01*
X68010476Y-91932380D02*
X68343809Y-92456190D01*
X68677142Y-91932380D01*
X69534285Y-92932380D02*
X68962857Y-92932380D01*
X69248571Y-92932380D02*
X69248571Y-91932380D01*
X69153333Y-92075238D01*
X69058095Y-92170476D01*
X68962857Y-92218095D01*
%TO.C,R6*%
X73304285Y-47220000D02*
X72947142Y-47470000D01*
X73304285Y-47648571D02*
X72554285Y-47648571D01*
X72554285Y-47362857D01*
X72590000Y-47291428D01*
X72625714Y-47255714D01*
X72697142Y-47220000D01*
X72804285Y-47220000D01*
X72875714Y-47255714D01*
X72911428Y-47291428D01*
X72947142Y-47362857D01*
X72947142Y-47648571D01*
X72554285Y-46577142D02*
X72554285Y-46720000D01*
X72590000Y-46791428D01*
X72625714Y-46827142D01*
X72732857Y-46898571D01*
X72875714Y-46934285D01*
X73161428Y-46934285D01*
X73232857Y-46898571D01*
X73268571Y-46862857D01*
X73304285Y-46791428D01*
X73304285Y-46648571D01*
X73268571Y-46577142D01*
X73232857Y-46541428D01*
X73161428Y-46505714D01*
X72982857Y-46505714D01*
X72911428Y-46541428D01*
X72875714Y-46577142D01*
X72840000Y-46648571D01*
X72840000Y-46791428D01*
X72875714Y-46862857D01*
X72911428Y-46898571D01*
X72982857Y-46934285D01*
%TO.C,C16*%
X60387857Y-85767857D02*
X60352142Y-85803571D01*
X60245000Y-85839285D01*
X60173571Y-85839285D01*
X60066428Y-85803571D01*
X59995000Y-85732142D01*
X59959285Y-85660714D01*
X59923571Y-85517857D01*
X59923571Y-85410714D01*
X59959285Y-85267857D01*
X59995000Y-85196428D01*
X60066428Y-85125000D01*
X60173571Y-85089285D01*
X60245000Y-85089285D01*
X60352142Y-85125000D01*
X60387857Y-85160714D01*
X61102142Y-85839285D02*
X60673571Y-85839285D01*
X60887857Y-85839285D02*
X60887857Y-85089285D01*
X60816428Y-85196428D01*
X60745000Y-85267857D01*
X60673571Y-85303571D01*
X61745000Y-85089285D02*
X61602142Y-85089285D01*
X61530714Y-85125000D01*
X61495000Y-85160714D01*
X61423571Y-85267857D01*
X61387857Y-85410714D01*
X61387857Y-85696428D01*
X61423571Y-85767857D01*
X61459285Y-85803571D01*
X61530714Y-85839285D01*
X61673571Y-85839285D01*
X61745000Y-85803571D01*
X61780714Y-85767857D01*
X61816428Y-85696428D01*
X61816428Y-85517857D01*
X61780714Y-85446428D01*
X61745000Y-85410714D01*
X61673571Y-85375000D01*
X61530714Y-85375000D01*
X61459285Y-85410714D01*
X61423571Y-85446428D01*
X61387857Y-85517857D01*
%TO.C,R4*%
X59759285Y-56525000D02*
X59402142Y-56775000D01*
X59759285Y-56953571D02*
X59009285Y-56953571D01*
X59009285Y-56667857D01*
X59045000Y-56596428D01*
X59080714Y-56560714D01*
X59152142Y-56525000D01*
X59259285Y-56525000D01*
X59330714Y-56560714D01*
X59366428Y-56596428D01*
X59402142Y-56667857D01*
X59402142Y-56953571D01*
X59259285Y-55882142D02*
X59759285Y-55882142D01*
X58973571Y-56060714D02*
X59509285Y-56239285D01*
X59509285Y-55775000D01*
%TO.C,R8*%
X76415000Y-84049285D02*
X76165000Y-83692142D01*
X75986428Y-84049285D02*
X75986428Y-83299285D01*
X76272142Y-83299285D01*
X76343571Y-83335000D01*
X76379285Y-83370714D01*
X76415000Y-83442142D01*
X76415000Y-83549285D01*
X76379285Y-83620714D01*
X76343571Y-83656428D01*
X76272142Y-83692142D01*
X75986428Y-83692142D01*
X76843571Y-83620714D02*
X76772142Y-83585000D01*
X76736428Y-83549285D01*
X76700714Y-83477857D01*
X76700714Y-83442142D01*
X76736428Y-83370714D01*
X76772142Y-83335000D01*
X76843571Y-83299285D01*
X76986428Y-83299285D01*
X77057857Y-83335000D01*
X77093571Y-83370714D01*
X77129285Y-83442142D01*
X77129285Y-83477857D01*
X77093571Y-83549285D01*
X77057857Y-83585000D01*
X76986428Y-83620714D01*
X76843571Y-83620714D01*
X76772142Y-83656428D01*
X76736428Y-83692142D01*
X76700714Y-83763571D01*
X76700714Y-83906428D01*
X76736428Y-83977857D01*
X76772142Y-84013571D01*
X76843571Y-84049285D01*
X76986428Y-84049285D01*
X77057857Y-84013571D01*
X77093571Y-83977857D01*
X77129285Y-83906428D01*
X77129285Y-83763571D01*
X77093571Y-83692142D01*
X77057857Y-83656428D01*
X76986428Y-83620714D01*
%TO.C,C13*%
X71177857Y-50432142D02*
X71213571Y-50467857D01*
X71249285Y-50575000D01*
X71249285Y-50646428D01*
X71213571Y-50753571D01*
X71142142Y-50825000D01*
X71070714Y-50860714D01*
X70927857Y-50896428D01*
X70820714Y-50896428D01*
X70677857Y-50860714D01*
X70606428Y-50825000D01*
X70535000Y-50753571D01*
X70499285Y-50646428D01*
X70499285Y-50575000D01*
X70535000Y-50467857D01*
X70570714Y-50432142D01*
X71249285Y-49717857D02*
X71249285Y-50146428D01*
X71249285Y-49932142D02*
X70499285Y-49932142D01*
X70606428Y-50003571D01*
X70677857Y-50075000D01*
X70713571Y-50146428D01*
X70499285Y-49467857D02*
X70499285Y-49003571D01*
X70785000Y-49253571D01*
X70785000Y-49146428D01*
X70820714Y-49075000D01*
X70856428Y-49039285D01*
X70927857Y-49003571D01*
X71106428Y-49003571D01*
X71177857Y-49039285D01*
X71213571Y-49075000D01*
X71249285Y-49146428D01*
X71249285Y-49360714D01*
X71213571Y-49432142D01*
X71177857Y-49467857D01*
%TO.C,C5*%
X75465000Y-72377857D02*
X75429285Y-72413571D01*
X75322142Y-72449285D01*
X75250714Y-72449285D01*
X75143571Y-72413571D01*
X75072142Y-72342142D01*
X75036428Y-72270714D01*
X75000714Y-72127857D01*
X75000714Y-72020714D01*
X75036428Y-71877857D01*
X75072142Y-71806428D01*
X75143571Y-71735000D01*
X75250714Y-71699285D01*
X75322142Y-71699285D01*
X75429285Y-71735000D01*
X75465000Y-71770714D01*
X76143571Y-71699285D02*
X75786428Y-71699285D01*
X75750714Y-72056428D01*
X75786428Y-72020714D01*
X75857857Y-71985000D01*
X76036428Y-71985000D01*
X76107857Y-72020714D01*
X76143571Y-72056428D01*
X76179285Y-72127857D01*
X76179285Y-72306428D01*
X76143571Y-72377857D01*
X76107857Y-72413571D01*
X76036428Y-72449285D01*
X75857857Y-72449285D01*
X75786428Y-72413571D01*
X75750714Y-72377857D01*
%TO.C,SW1*%
X62363738Y-49797466D02*
X62316119Y-49940323D01*
X62316119Y-50178419D01*
X62363738Y-50273657D01*
X62411357Y-50321276D01*
X62506595Y-50368895D01*
X62601833Y-50368895D01*
X62697071Y-50321276D01*
X62744690Y-50273657D01*
X62792309Y-50178419D01*
X62839928Y-49987942D01*
X62887547Y-49892704D01*
X62935166Y-49845085D01*
X63030404Y-49797466D01*
X63125642Y-49797466D01*
X63220880Y-49845085D01*
X63268500Y-49892704D01*
X63316119Y-49987942D01*
X63316119Y-50226038D01*
X63268500Y-50368895D01*
X63316119Y-50702228D02*
X62316119Y-50940323D01*
X63030404Y-51130800D01*
X62316119Y-51321276D01*
X63316119Y-51559371D01*
X62316119Y-52464133D02*
X62316119Y-51892704D01*
X62316119Y-52178419D02*
X63316119Y-52178419D01*
X63173261Y-52083180D01*
X63078023Y-51987942D01*
X63030404Y-51892704D01*
%TO.C,C3*%
X67865000Y-82917857D02*
X67829285Y-82953571D01*
X67722142Y-82989285D01*
X67650714Y-82989285D01*
X67543571Y-82953571D01*
X67472142Y-82882142D01*
X67436428Y-82810714D01*
X67400714Y-82667857D01*
X67400714Y-82560714D01*
X67436428Y-82417857D01*
X67472142Y-82346428D01*
X67543571Y-82275000D01*
X67650714Y-82239285D01*
X67722142Y-82239285D01*
X67829285Y-82275000D01*
X67865000Y-82310714D01*
X68115000Y-82239285D02*
X68579285Y-82239285D01*
X68329285Y-82525000D01*
X68436428Y-82525000D01*
X68507857Y-82560714D01*
X68543571Y-82596428D01*
X68579285Y-82667857D01*
X68579285Y-82846428D01*
X68543571Y-82917857D01*
X68507857Y-82953571D01*
X68436428Y-82989285D01*
X68222142Y-82989285D01*
X68150714Y-82953571D01*
X68115000Y-82917857D01*
%TO.C,D1*%
X76182380Y-51313095D02*
X75182380Y-51313095D01*
X75182380Y-51075000D01*
X75230000Y-50932142D01*
X75325238Y-50836904D01*
X75420476Y-50789285D01*
X75610952Y-50741666D01*
X75753809Y-50741666D01*
X75944285Y-50789285D01*
X76039523Y-50836904D01*
X76134761Y-50932142D01*
X76182380Y-51075000D01*
X76182380Y-51313095D01*
X76182380Y-49789285D02*
X76182380Y-50360714D01*
X76182380Y-50075000D02*
X75182380Y-50075000D01*
X75325238Y-50170238D01*
X75420476Y-50265476D01*
X75468095Y-50360714D01*
%TO.C,C11*%
X69557857Y-82847857D02*
X69522142Y-82883571D01*
X69415000Y-82919285D01*
X69343571Y-82919285D01*
X69236428Y-82883571D01*
X69165000Y-82812142D01*
X69129285Y-82740714D01*
X69093571Y-82597857D01*
X69093571Y-82490714D01*
X69129285Y-82347857D01*
X69165000Y-82276428D01*
X69236428Y-82205000D01*
X69343571Y-82169285D01*
X69415000Y-82169285D01*
X69522142Y-82205000D01*
X69557857Y-82240714D01*
X70272142Y-82919285D02*
X69843571Y-82919285D01*
X70057857Y-82919285D02*
X70057857Y-82169285D01*
X69986428Y-82276428D01*
X69915000Y-82347857D01*
X69843571Y-82383571D01*
X70986428Y-82919285D02*
X70557857Y-82919285D01*
X70772142Y-82919285D02*
X70772142Y-82169285D01*
X70700714Y-82276428D01*
X70629285Y-82347857D01*
X70557857Y-82383571D01*
%TO.C,C8*%
X74995000Y-64037857D02*
X74959285Y-64073571D01*
X74852142Y-64109285D01*
X74780714Y-64109285D01*
X74673571Y-64073571D01*
X74602142Y-64002142D01*
X74566428Y-63930714D01*
X74530714Y-63787857D01*
X74530714Y-63680714D01*
X74566428Y-63537857D01*
X74602142Y-63466428D01*
X74673571Y-63395000D01*
X74780714Y-63359285D01*
X74852142Y-63359285D01*
X74959285Y-63395000D01*
X74995000Y-63430714D01*
X75423571Y-63680714D02*
X75352142Y-63645000D01*
X75316428Y-63609285D01*
X75280714Y-63537857D01*
X75280714Y-63502142D01*
X75316428Y-63430714D01*
X75352142Y-63395000D01*
X75423571Y-63359285D01*
X75566428Y-63359285D01*
X75637857Y-63395000D01*
X75673571Y-63430714D01*
X75709285Y-63502142D01*
X75709285Y-63537857D01*
X75673571Y-63609285D01*
X75637857Y-63645000D01*
X75566428Y-63680714D01*
X75423571Y-63680714D01*
X75352142Y-63716428D01*
X75316428Y-63752142D01*
X75280714Y-63823571D01*
X75280714Y-63966428D01*
X75316428Y-64037857D01*
X75352142Y-64073571D01*
X75423571Y-64109285D01*
X75566428Y-64109285D01*
X75637857Y-64073571D01*
X75673571Y-64037857D01*
X75709285Y-63966428D01*
X75709285Y-63823571D01*
X75673571Y-63752142D01*
X75637857Y-63716428D01*
X75566428Y-63680714D01*
%TO.C,C9*%
X73305000Y-64107857D02*
X73269285Y-64143571D01*
X73162142Y-64179285D01*
X73090714Y-64179285D01*
X72983571Y-64143571D01*
X72912142Y-64072142D01*
X72876428Y-64000714D01*
X72840714Y-63857857D01*
X72840714Y-63750714D01*
X72876428Y-63607857D01*
X72912142Y-63536428D01*
X72983571Y-63465000D01*
X73090714Y-63429285D01*
X73162142Y-63429285D01*
X73269285Y-63465000D01*
X73305000Y-63500714D01*
X73662142Y-64179285D02*
X73805000Y-64179285D01*
X73876428Y-64143571D01*
X73912142Y-64107857D01*
X73983571Y-64000714D01*
X74019285Y-63857857D01*
X74019285Y-63572142D01*
X73983571Y-63500714D01*
X73947857Y-63465000D01*
X73876428Y-63429285D01*
X73733571Y-63429285D01*
X73662142Y-63465000D01*
X73626428Y-63500714D01*
X73590714Y-63572142D01*
X73590714Y-63750714D01*
X73626428Y-63822142D01*
X73662142Y-63857857D01*
X73733571Y-63893571D01*
X73876428Y-63893571D01*
X73947857Y-63857857D01*
X73983571Y-63822142D01*
X74019285Y-63750714D01*
%TO.C,C4*%
X75650000Y-73962857D02*
X75614285Y-73998571D01*
X75507142Y-74034285D01*
X75435714Y-74034285D01*
X75328571Y-73998571D01*
X75257142Y-73927142D01*
X75221428Y-73855714D01*
X75185714Y-73712857D01*
X75185714Y-73605714D01*
X75221428Y-73462857D01*
X75257142Y-73391428D01*
X75328571Y-73320000D01*
X75435714Y-73284285D01*
X75507142Y-73284285D01*
X75614285Y-73320000D01*
X75650000Y-73355714D01*
X76292857Y-73534285D02*
X76292857Y-74034285D01*
X76114285Y-73248571D02*
X75935714Y-73784285D01*
X76400000Y-73784285D01*
%TO.C,C2*%
X62445000Y-73527857D02*
X62409285Y-73563571D01*
X62302142Y-73599285D01*
X62230714Y-73599285D01*
X62123571Y-73563571D01*
X62052142Y-73492142D01*
X62016428Y-73420714D01*
X61980714Y-73277857D01*
X61980714Y-73170714D01*
X62016428Y-73027857D01*
X62052142Y-72956428D01*
X62123571Y-72885000D01*
X62230714Y-72849285D01*
X62302142Y-72849285D01*
X62409285Y-72885000D01*
X62445000Y-72920714D01*
X62730714Y-72920714D02*
X62766428Y-72885000D01*
X62837857Y-72849285D01*
X63016428Y-72849285D01*
X63087857Y-72885000D01*
X63123571Y-72920714D01*
X63159285Y-72992142D01*
X63159285Y-73063571D01*
X63123571Y-73170714D01*
X62695000Y-73599285D01*
X63159285Y-73599285D01*
D12*
%TO.C,R2*%
X72357500Y-66612258D02*
X72357500Y-66137742D01*
X71312500Y-66612258D02*
X71312500Y-66137742D01*
%TO.C,C10*%
X66590000Y-66015580D02*
X66590000Y-65734420D01*
X67610000Y-66015580D02*
X67610000Y-65734420D01*
%TO.C,J1*%
X65027500Y-42440000D02*
X65027500Y-44420000D01*
X70097500Y-45100000D02*
X70547500Y-45100000D01*
X65027500Y-44420000D02*
X65447500Y-44420000D01*
X72547500Y-42440000D02*
X72547500Y-44420000D01*
X72547500Y-44420000D02*
X72127500Y-44420000D01*
X70547500Y-44650000D02*
X70547500Y-45100000D01*
%TO.C,C14*%
X65570580Y-57210000D02*
X65289420Y-57210000D01*
X65570580Y-56190000D02*
X65289420Y-56190000D01*
%TO.C,D3*%
X73910000Y-80185000D02*
X76195000Y-80185000D01*
X76195000Y-78715000D02*
X73910000Y-78715000D01*
X76195000Y-80185000D02*
X76195000Y-78715000D01*
%TO.C,U2*%
X77700000Y-52780000D02*
X77700000Y-58790000D01*
X77700000Y-58790000D02*
X76440000Y-58790000D01*
X70880000Y-55030000D02*
X70880000Y-58790000D01*
X70880000Y-58790000D02*
X72140000Y-58790000D01*
%TO.C,C7*%
X68155000Y-66515580D02*
X68155000Y-66234420D01*
X69175000Y-66515580D02*
X69175000Y-66234420D01*
%TO.C,C6*%
X75454420Y-68630000D02*
X75735580Y-68630000D01*
X75454420Y-69650000D02*
X75735580Y-69650000D01*
%TO.C,U3*%
X64540000Y-63685000D02*
X67265000Y-63685000D01*
X67265000Y-58235000D02*
X67265000Y-58495000D01*
X61815000Y-63685000D02*
X61815000Y-63425000D01*
X67265000Y-63685000D02*
X67265000Y-63425000D01*
X64540000Y-58235000D02*
X61815000Y-58235000D01*
X64540000Y-63685000D02*
X61815000Y-63685000D01*
X64540000Y-58235000D02*
X67265000Y-58235000D01*
X61815000Y-58495000D02*
X60140000Y-58495000D01*
X61815000Y-58235000D02*
X61815000Y-58495000D01*
%TO.C,U1*%
X71910000Y-76910000D02*
X72560000Y-76910000D01*
X65340000Y-76910000D02*
X65340000Y-76260000D01*
X65990000Y-76910000D02*
X65340000Y-76910000D01*
X72560000Y-69690000D02*
X72560000Y-70340000D01*
X71910000Y-69690000D02*
X72560000Y-69690000D01*
X65990000Y-69690000D02*
X65340000Y-69690000D01*
X72560000Y-76910000D02*
X72560000Y-76260000D01*
%TO.C,R5*%
X69332258Y-84987500D02*
X68857742Y-84987500D01*
X69332258Y-86032500D02*
X68857742Y-86032500D01*
%TO.C,R3*%
X63377500Y-66772742D02*
X63377500Y-67247258D01*
X64422500Y-66772742D02*
X64422500Y-67247258D01*
%TO.C,C1*%
X62980580Y-70520000D02*
X62699420Y-70520000D01*
X62980580Y-69500000D02*
X62699420Y-69500000D01*
%TO.C,G\u002A\u002A\u002A*%
G36*
X64631900Y-82988825D02*
G01*
X64635701Y-82975747D01*
X64637132Y-82974885D01*
X64642550Y-82967210D01*
X64645563Y-82948037D01*
X64645783Y-82940280D01*
X64647615Y-82918609D01*
X64652192Y-82906557D01*
X64654043Y-82905675D01*
X64660907Y-82898112D01*
X64667136Y-82879502D01*
X64667982Y-82875396D01*
X64673646Y-82855434D01*
X64680253Y-82845397D01*
X64681351Y-82845116D01*
X64688087Y-82838055D01*
X64689039Y-82831522D01*
X64695883Y-82812782D01*
X64711664Y-82797663D01*
X64725442Y-82793209D01*
X64739123Y-82786800D01*
X64749598Y-82775907D01*
X64765144Y-82762394D01*
X64777462Y-82758604D01*
X64790448Y-82754583D01*
X64792854Y-82749953D01*
X64800100Y-82742924D01*
X64810157Y-82741302D01*
X64824215Y-82737679D01*
X64827459Y-82732650D01*
X64835553Y-82728366D01*
X64857652Y-82725355D01*
X64890478Y-82724028D01*
X64896669Y-82723999D01*
X64930943Y-82725011D01*
X64955029Y-82727773D01*
X64965648Y-82731876D01*
X64965879Y-82732650D01*
X64973282Y-82739154D01*
X64987507Y-82741302D01*
X65003765Y-82744263D01*
X65009135Y-82749953D01*
X65016184Y-82757528D01*
X65022730Y-82758604D01*
X65042273Y-82765924D01*
X65057228Y-82782998D01*
X65061042Y-82796917D01*
X65065528Y-82808821D01*
X65069693Y-82810511D01*
X65075366Y-82802895D01*
X65078252Y-82784121D01*
X65078345Y-82779614D01*
X65079860Y-82757497D01*
X65086141Y-82742115D01*
X65099795Y-82732272D01*
X65123426Y-82726773D01*
X65159639Y-82724420D01*
X65199462Y-82723999D01*
X65244425Y-82724517D01*
X65275237Y-82726330D01*
X65295022Y-82729830D01*
X65306908Y-82735406D01*
X65309623Y-82737761D01*
X65318544Y-82749597D01*
X65313976Y-82757971D01*
X65311168Y-82760048D01*
X65303837Y-82768222D01*
X65309765Y-82772960D01*
X65314523Y-82782710D01*
X65318014Y-82804593D01*
X65320181Y-82834099D01*
X65320965Y-82866717D01*
X65320307Y-82897939D01*
X65318150Y-82923252D01*
X65314436Y-82938148D01*
X65311928Y-82940280D01*
X65308480Y-82948697D01*
X65305838Y-82973045D01*
X65304086Y-83011964D01*
X65303309Y-83064098D01*
X65303277Y-83078699D01*
X65303803Y-83133858D01*
X65305324Y-83176133D01*
X65307757Y-83204168D01*
X65311015Y-83216606D01*
X65311928Y-83217119D01*
X65317219Y-83224855D01*
X65320171Y-83244756D01*
X65320920Y-83271863D01*
X65319601Y-83301218D01*
X65316352Y-83327861D01*
X65311309Y-83346833D01*
X65308220Y-83351831D01*
X65298118Y-83357367D01*
X65279174Y-83361091D01*
X65248848Y-83363262D01*
X65204598Y-83364140D01*
X65187103Y-83364190D01*
X65078345Y-83364190D01*
X65078345Y-83329585D01*
X65077195Y-83307907D01*
X65074322Y-83295857D01*
X65073164Y-83294980D01*
X65064558Y-83300724D01*
X65049346Y-83315075D01*
X65043740Y-83320934D01*
X65026318Y-83337293D01*
X65012579Y-83346288D01*
X65009989Y-83346887D01*
X65000911Y-83352978D01*
X65000484Y-83355539D01*
X64992966Y-83361613D01*
X64974853Y-83364189D01*
X64974530Y-83364190D01*
X64956307Y-83366696D01*
X64948578Y-83372734D01*
X64948576Y-83372841D01*
X64940696Y-83377449D01*
X64920111Y-83380573D01*
X64896669Y-83381492D01*
X64869020Y-83380179D01*
X64850275Y-83376748D01*
X64844762Y-83372841D01*
X64837244Y-83366767D01*
X64819131Y-83364191D01*
X64818808Y-83364190D01*
X64800585Y-83361684D01*
X64792856Y-83355646D01*
X64792854Y-83355539D01*
X64785834Y-83347894D01*
X64779689Y-83346887D01*
X64764917Y-83340425D01*
X64743852Y-83323597D01*
X64720077Y-83300243D01*
X64697179Y-83274203D01*
X64678741Y-83249318D01*
X64668350Y-83229425D01*
X64667658Y-83226892D01*
X64661365Y-83208257D01*
X64654183Y-83199855D01*
X64653747Y-83199817D01*
X64648760Y-83192140D01*
X64645986Y-83172963D01*
X64645783Y-83165212D01*
X64643865Y-83143542D01*
X64639071Y-83131489D01*
X64637132Y-83130607D01*
X64632987Y-83122440D01*
X64630030Y-83099833D01*
X64628577Y-83065626D01*
X64628481Y-83052746D01*
X64628482Y-83052703D01*
X64862064Y-83052703D01*
X64862466Y-83087898D01*
X64864640Y-83110925D01*
X64870042Y-83126917D01*
X64880128Y-83141006D01*
X64890180Y-83151886D01*
X64909601Y-83169840D01*
X64928092Y-83178699D01*
X64953543Y-83181687D01*
X64963716Y-83181920D01*
X64989084Y-83180766D01*
X65005570Y-83177167D01*
X65009135Y-83173863D01*
X65016184Y-83166288D01*
X65022730Y-83165212D01*
X65042273Y-83157892D01*
X65057228Y-83140818D01*
X65061042Y-83126899D01*
X65065528Y-83114995D01*
X65069693Y-83113304D01*
X65074131Y-83105303D01*
X65077198Y-83083857D01*
X65078345Y-83052805D01*
X65078345Y-83052746D01*
X65077202Y-83021681D01*
X65074138Y-83000215D01*
X65069702Y-82992187D01*
X65069693Y-82992187D01*
X65062082Y-82985153D01*
X65061042Y-82978817D01*
X65055297Y-82963949D01*
X65041313Y-82945752D01*
X65039807Y-82944212D01*
X65023395Y-82931239D01*
X65003629Y-82924834D01*
X64973932Y-82922989D01*
X64970309Y-82922977D01*
X64940708Y-82924164D01*
X64920831Y-82929645D01*
X64903159Y-82942304D01*
X64892055Y-82952968D01*
X64877158Y-82968685D01*
X64868248Y-82982436D01*
X64863786Y-82999333D01*
X64862238Y-83024486D01*
X64862064Y-83052703D01*
X64628482Y-83052703D01*
X64629388Y-83015438D01*
X64631900Y-82988825D01*
G37*
G36*
X63763358Y-82598556D02*
G01*
X63760397Y-82614815D01*
X63754707Y-82620184D01*
X63747678Y-82627430D01*
X63746056Y-82637487D01*
X63742433Y-82651545D01*
X63737405Y-82654789D01*
X63731330Y-82662307D01*
X63728754Y-82680420D01*
X63728753Y-82680743D01*
X63726333Y-82698967D01*
X63720503Y-82706695D01*
X63720400Y-82706697D01*
X63714612Y-82714455D01*
X63708955Y-82734298D01*
X63706309Y-82749953D01*
X63701689Y-82774592D01*
X63696155Y-82790258D01*
X63693034Y-82793209D01*
X63687741Y-82800731D01*
X63685498Y-82818854D01*
X63685497Y-82819163D01*
X63682991Y-82837386D01*
X63676954Y-82845114D01*
X63676846Y-82845116D01*
X63669271Y-82852165D01*
X63668195Y-82858711D01*
X63664229Y-82875964D01*
X63650811Y-82887483D01*
X63625661Y-82894152D01*
X63586499Y-82896852D01*
X63569324Y-82897024D01*
X63495170Y-82897024D01*
X63495170Y-82871070D01*
X63497676Y-82852847D01*
X63503714Y-82845118D01*
X63503821Y-82845116D01*
X63508757Y-82837336D01*
X63511889Y-82817442D01*
X63512473Y-82801860D01*
X63514029Y-82777185D01*
X63518008Y-82761523D01*
X63521124Y-82758604D01*
X63526059Y-82750823D01*
X63529191Y-82730929D01*
X63529775Y-82715348D01*
X63531331Y-82690673D01*
X63535310Y-82675011D01*
X63538426Y-82672092D01*
X63543164Y-82664270D01*
X63546306Y-82644092D01*
X63547078Y-82624510D01*
X63547078Y-82576928D01*
X63763358Y-82576928D01*
X63763358Y-82598556D01*
G37*
G36*
X63160421Y-82724785D02*
G01*
X63190670Y-82726993D01*
X63207242Y-82730401D01*
X63209680Y-82732650D01*
X63217197Y-82738725D01*
X63235311Y-82741301D01*
X63235633Y-82741302D01*
X63253856Y-82743808D01*
X63261585Y-82749845D01*
X63261587Y-82749953D01*
X63268610Y-82757591D01*
X63274792Y-82758604D01*
X63288239Y-82764706D01*
X63308014Y-82780178D01*
X63329831Y-82800769D01*
X63349404Y-82822227D01*
X63362448Y-82840301D01*
X63365402Y-82848493D01*
X63369873Y-82861539D01*
X63373032Y-82863861D01*
X63379009Y-82873419D01*
X63384951Y-82894001D01*
X63386770Y-82903512D01*
X63392876Y-82940280D01*
X63296559Y-82940280D01*
X63254178Y-82940049D01*
X63225376Y-82938902D01*
X63206433Y-82936157D01*
X63193627Y-82931130D01*
X63183237Y-82923140D01*
X63178614Y-82918652D01*
X63159299Y-82903905D01*
X63141354Y-82897080D01*
X63140077Y-82897024D01*
X63126234Y-82893326D01*
X63123168Y-82888372D01*
X63115922Y-82881344D01*
X63105865Y-82879721D01*
X63091807Y-82883344D01*
X63088563Y-82888372D01*
X63081555Y-82896048D01*
X63075586Y-82897024D01*
X63064926Y-82904184D01*
X63062609Y-82913619D01*
X63066921Y-82940876D01*
X63080894Y-82954771D01*
X63098139Y-82957582D01*
X63115958Y-82960173D01*
X63123168Y-82966234D01*
X63130685Y-82972308D01*
X63148798Y-82974884D01*
X63149121Y-82974885D01*
X63167344Y-82977391D01*
X63175073Y-82983428D01*
X63175075Y-82983536D01*
X63182856Y-82988471D01*
X63202749Y-82991603D01*
X63218331Y-82992187D01*
X63243006Y-82993743D01*
X63258668Y-82997722D01*
X63261587Y-83000838D01*
X63268741Y-83008137D01*
X63276980Y-83009490D01*
X63293706Y-83016017D01*
X63304843Y-83026792D01*
X63318842Y-83040210D01*
X63328999Y-83044095D01*
X63346668Y-83051229D01*
X63361110Y-83067568D01*
X63365402Y-83081686D01*
X63371580Y-83095369D01*
X63376216Y-83098165D01*
X63382072Y-83107067D01*
X63385599Y-83130008D01*
X63386991Y-83168421D01*
X63387030Y-83178189D01*
X63386046Y-83219902D01*
X63382966Y-83245853D01*
X63377596Y-83257476D01*
X63376216Y-83258212D01*
X63366452Y-83268822D01*
X63365402Y-83274691D01*
X63358493Y-83292937D01*
X63342671Y-83307851D01*
X63328999Y-83312283D01*
X63315319Y-83318691D01*
X63304843Y-83329585D01*
X63289297Y-83343098D01*
X63276980Y-83346887D01*
X63263994Y-83350908D01*
X63261587Y-83355539D01*
X63253912Y-83360956D01*
X63234739Y-83363969D01*
X63226982Y-83364190D01*
X63205313Y-83366109D01*
X63193260Y-83370902D01*
X63192377Y-83372841D01*
X63184326Y-83377200D01*
X63162533Y-83380239D01*
X63130536Y-83381484D01*
X63127493Y-83381492D01*
X63094800Y-83380419D01*
X63072012Y-83377513D01*
X63062670Y-83373247D01*
X63062609Y-83372841D01*
X63054934Y-83367424D01*
X63035761Y-83364411D01*
X63028004Y-83364190D01*
X63006334Y-83362271D01*
X62994282Y-83357478D01*
X62993399Y-83355539D01*
X62986153Y-83348510D01*
X62976097Y-83346887D01*
X62962039Y-83343265D01*
X62958794Y-83338236D01*
X62951771Y-83330598D01*
X62945590Y-83329585D01*
X62931949Y-83323432D01*
X62912067Y-83307827D01*
X62890227Y-83287053D01*
X62870710Y-83265392D01*
X62857801Y-83247128D01*
X62854980Y-83238975D01*
X62850378Y-83227317D01*
X62846328Y-83225770D01*
X62839745Y-83218389D01*
X62837677Y-83204863D01*
X62833760Y-83187440D01*
X62826940Y-83180377D01*
X62821972Y-83174126D01*
X62830648Y-83162354D01*
X62840140Y-83155889D01*
X62855356Y-83151622D01*
X62879500Y-83149147D01*
X62915775Y-83148062D01*
X62945199Y-83147909D01*
X62988101Y-83148091D01*
X63016620Y-83148971D01*
X63033674Y-83151055D01*
X63042183Y-83154848D01*
X63045063Y-83160852D01*
X63045306Y-83165212D01*
X63048688Y-83179273D01*
X63053375Y-83182514D01*
X63062160Y-83189654D01*
X63066935Y-83199817D01*
X63072586Y-83209685D01*
X63084466Y-83214943D01*
X63106978Y-83216931D01*
X63123751Y-83217119D01*
X63152629Y-83216433D01*
X63168162Y-83213528D01*
X63174282Y-83207133D01*
X63175075Y-83200538D01*
X63179937Y-83185056D01*
X63185812Y-83180377D01*
X63189575Y-83173416D01*
X63182677Y-83162639D01*
X63169588Y-83152617D01*
X63154778Y-83147922D01*
X63154065Y-83147909D01*
X63142161Y-83143424D01*
X63140470Y-83139258D01*
X63132795Y-83133841D01*
X63113622Y-83130827D01*
X63105865Y-83130607D01*
X63084195Y-83128688D01*
X63072143Y-83123895D01*
X63071260Y-83121956D01*
X63063655Y-83116237D01*
X63044955Y-83113379D01*
X63040981Y-83113304D01*
X63020967Y-83111131D01*
X63010963Y-83105788D01*
X63010702Y-83104653D01*
X63003184Y-83098579D01*
X62985071Y-83096003D01*
X62984748Y-83096002D01*
X62966525Y-83093496D01*
X62958796Y-83087458D01*
X62958794Y-83087351D01*
X62951771Y-83079713D01*
X62945590Y-83078699D01*
X62932891Y-83072920D01*
X62913071Y-83057881D01*
X62893682Y-83039997D01*
X62854980Y-83001294D01*
X62854980Y-82931856D01*
X62855988Y-82897500D01*
X62858743Y-82873347D01*
X62862838Y-82862661D01*
X62863631Y-82862419D01*
X62871269Y-82855396D01*
X62872282Y-82849214D01*
X62878435Y-82835574D01*
X62894040Y-82815692D01*
X62914814Y-82793851D01*
X62936475Y-82774335D01*
X62954739Y-82761425D01*
X62962892Y-82758604D01*
X62974550Y-82754003D01*
X62976097Y-82749953D01*
X62983614Y-82743879D01*
X63001727Y-82741302D01*
X63002050Y-82741302D01*
X63020273Y-82738796D01*
X63028002Y-82732758D01*
X63028004Y-82732650D01*
X63036254Y-82728690D01*
X63059440Y-82725810D01*
X63095218Y-82724231D01*
X63118842Y-82723999D01*
X63160421Y-82724785D01*
G37*
G36*
X61945322Y-82440065D02*
G01*
X61960984Y-82444044D01*
X61963903Y-82447160D01*
X61970930Y-82454788D01*
X61977168Y-82455811D01*
X61990724Y-82461573D01*
X62010124Y-82476203D01*
X62020425Y-82485802D01*
X62038082Y-82505369D01*
X62047027Y-82523135D01*
X62050142Y-82546621D01*
X62050415Y-82564056D01*
X62048903Y-82595056D01*
X62043024Y-82615491D01*
X62030770Y-82631940D01*
X62029181Y-82633555D01*
X62011075Y-82648043D01*
X61995577Y-82654736D01*
X61994576Y-82654789D01*
X61982813Y-82659341D01*
X61981206Y-82663441D01*
X61973205Y-82667892D01*
X61951740Y-82670731D01*
X61922810Y-82671465D01*
X61891240Y-82670604D01*
X61870602Y-82667132D01*
X61854525Y-82658457D01*
X61836637Y-82641987D01*
X61827646Y-82632736D01*
X61806549Y-82609198D01*
X61795465Y-82590486D01*
X61791318Y-82570113D01*
X61790879Y-82555214D01*
X61793026Y-82527889D01*
X61801928Y-82507464D01*
X61820870Y-82485802D01*
X61841039Y-82468181D01*
X61858295Y-82457396D01*
X61864126Y-82455811D01*
X61875822Y-82451228D01*
X61877391Y-82447160D01*
X61885172Y-82442225D01*
X61905066Y-82439093D01*
X61920647Y-82438509D01*
X61945322Y-82440065D01*
G37*
G36*
X61232517Y-82525685D02*
G01*
X61264450Y-82527874D01*
X61284297Y-82531882D01*
X61294051Y-82537380D01*
X61298114Y-82544451D01*
X61301221Y-82557829D01*
X61303485Y-82579488D01*
X61305021Y-82611407D01*
X61305940Y-82655562D01*
X61306355Y-82713930D01*
X61306410Y-82753661D01*
X61306610Y-82810987D01*
X61307172Y-82862083D01*
X61308037Y-82904563D01*
X61309149Y-82936041D01*
X61310448Y-82954131D01*
X61311354Y-82957582D01*
X61323325Y-82950783D01*
X61335235Y-82935624D01*
X61340997Y-82919967D01*
X61341015Y-82919270D01*
X61344824Y-82907356D01*
X61348342Y-82905675D01*
X61362349Y-82899364D01*
X61378637Y-82884839D01*
X61390587Y-82868711D01*
X61392922Y-82861151D01*
X61399348Y-82847037D01*
X61410225Y-82836465D01*
X61423656Y-82822248D01*
X61427527Y-82811779D01*
X61433538Y-82796954D01*
X61443446Y-82785573D01*
X61457689Y-82766425D01*
X61465239Y-82747790D01*
X61471113Y-82723999D01*
X61609368Y-82723999D01*
X61664483Y-82724526D01*
X61706720Y-82726049D01*
X61734718Y-82728484D01*
X61747119Y-82731746D01*
X61747623Y-82732650D01*
X61741039Y-82741050D01*
X61738971Y-82741302D01*
X61731434Y-82748366D01*
X61730320Y-82755133D01*
X61724377Y-82769469D01*
X61709587Y-82788049D01*
X61704366Y-82793209D01*
X61687988Y-82810808D01*
X61679001Y-82824933D01*
X61678413Y-82827638D01*
X61672588Y-82838871D01*
X61657597Y-82856973D01*
X61643808Y-82871070D01*
X61624766Y-82890338D01*
X61612197Y-82904923D01*
X61609203Y-82910177D01*
X61603444Y-82919226D01*
X61589058Y-82934705D01*
X61583249Y-82940280D01*
X61566871Y-82957879D01*
X61557884Y-82972004D01*
X61557296Y-82974708D01*
X61551468Y-82985894D01*
X61536442Y-83004030D01*
X61521985Y-83018819D01*
X61486674Y-83052746D01*
X61521985Y-83086672D01*
X61541351Y-83106931D01*
X61554177Y-83123510D01*
X61557296Y-83130607D01*
X61563117Y-83141738D01*
X61578101Y-83159769D01*
X61591900Y-83173863D01*
X61610937Y-83193097D01*
X61623506Y-83207605D01*
X61626505Y-83212793D01*
X61632251Y-83221440D01*
X61647058Y-83237730D01*
X61661110Y-83251724D01*
X61680265Y-83271842D01*
X61692832Y-83288328D01*
X61695715Y-83295157D01*
X61701574Y-83307056D01*
X61716178Y-83324225D01*
X61721669Y-83329585D01*
X61737905Y-83345899D01*
X61746951Y-83357213D01*
X61747623Y-83359010D01*
X61739455Y-83360762D01*
X61716888Y-83362261D01*
X61682821Y-83363398D01*
X61640158Y-83364062D01*
X61609786Y-83364190D01*
X61558018Y-83364070D01*
X61520954Y-83363502D01*
X61495997Y-83362172D01*
X61480550Y-83359766D01*
X61472015Y-83355971D01*
X61467794Y-83350474D01*
X61466458Y-83346887D01*
X61458691Y-83332906D01*
X61452898Y-83329585D01*
X61446089Y-83322425D01*
X61444830Y-83314192D01*
X61438302Y-83297466D01*
X61427527Y-83286329D01*
X61414063Y-83271585D01*
X61410225Y-83260375D01*
X61403758Y-83245222D01*
X61392922Y-83234422D01*
X61379572Y-83221451D01*
X61375620Y-83212793D01*
X61369293Y-83201168D01*
X61358317Y-83191165D01*
X61344900Y-83177167D01*
X61341015Y-83167010D01*
X61335626Y-83152735D01*
X61323774Y-83137962D01*
X61311932Y-83130636D01*
X61311354Y-83130607D01*
X61309547Y-83138732D01*
X61308036Y-83161007D01*
X61306954Y-83194280D01*
X61306436Y-83235398D01*
X61306410Y-83247398D01*
X61306410Y-83364190D01*
X61090129Y-83364190D01*
X61090129Y-82525021D01*
X61185911Y-82525021D01*
X61232517Y-82525685D01*
G37*
G36*
X65433096Y-82861442D02*
G01*
X65433283Y-82781751D01*
X65433652Y-82716421D01*
X65434253Y-82663979D01*
X65435132Y-82622955D01*
X65436340Y-82591878D01*
X65437922Y-82569277D01*
X65439928Y-82553681D01*
X65442405Y-82543618D01*
X65445403Y-82537618D01*
X65446807Y-82535977D01*
X65458547Y-82527075D01*
X65466523Y-82531639D01*
X65468435Y-82534432D01*
X65476291Y-82542121D01*
X65484488Y-82534364D01*
X65484952Y-82533672D01*
X65493212Y-82525046D01*
X65501052Y-82531896D01*
X65502255Y-82533672D01*
X65510515Y-82542298D01*
X65518355Y-82535448D01*
X65519557Y-82533672D01*
X65527817Y-82525046D01*
X65535657Y-82531896D01*
X65536860Y-82533672D01*
X65545119Y-82542298D01*
X65552959Y-82535448D01*
X65554162Y-82533672D01*
X65562453Y-82525055D01*
X65570635Y-82531634D01*
X65572123Y-82533672D01*
X65580854Y-82541509D01*
X65585821Y-82535835D01*
X65597279Y-82527170D01*
X65616321Y-82525316D01*
X65634802Y-82529871D01*
X65644074Y-82538705D01*
X65645927Y-82551875D01*
X65647493Y-82578909D01*
X65648646Y-82616370D01*
X65649259Y-82660821D01*
X65649326Y-82681451D01*
X65649653Y-82726479D01*
X65650554Y-82764665D01*
X65651909Y-82793008D01*
X65653597Y-82808511D01*
X65654506Y-82810511D01*
X65663112Y-82804768D01*
X65678324Y-82790416D01*
X65683930Y-82784558D01*
X65702494Y-82768076D01*
X65718728Y-82759135D01*
X65722006Y-82758604D01*
X65734057Y-82754186D01*
X65735838Y-82749953D01*
X65743084Y-82742924D01*
X65753140Y-82741302D01*
X65767198Y-82737679D01*
X65770443Y-82732650D01*
X65778537Y-82728366D01*
X65800635Y-82725355D01*
X65833461Y-82724028D01*
X65839653Y-82723999D01*
X65873927Y-82725011D01*
X65898012Y-82727773D01*
X65908632Y-82731876D01*
X65908862Y-82732650D01*
X65916380Y-82738725D01*
X65934493Y-82741301D01*
X65934816Y-82741302D01*
X65953039Y-82743808D01*
X65960768Y-82749845D01*
X65960770Y-82749953D01*
X65967384Y-82758317D01*
X65969649Y-82758604D01*
X65981514Y-82764748D01*
X65999823Y-82780311D01*
X66020479Y-82800991D01*
X66039383Y-82822485D01*
X66052441Y-82840492D01*
X66055933Y-82849214D01*
X66060534Y-82860872D01*
X66064584Y-82862419D01*
X66071613Y-82869665D01*
X66073236Y-82879721D01*
X66076859Y-82893779D01*
X66081887Y-82897024D01*
X66088390Y-82904427D01*
X66090538Y-82918652D01*
X66093500Y-82934910D01*
X66099189Y-82940280D01*
X66102889Y-82948625D01*
X66105654Y-82972469D01*
X66107347Y-83010029D01*
X66107841Y-83052746D01*
X66107199Y-83100844D01*
X66105364Y-83136788D01*
X66102475Y-83158794D01*
X66099189Y-83165212D01*
X66093115Y-83172729D01*
X66090539Y-83190843D01*
X66090538Y-83191165D01*
X66088032Y-83209388D01*
X66081994Y-83217117D01*
X66081887Y-83217119D01*
X66073891Y-83223974D01*
X66073236Y-83228186D01*
X66066847Y-83241363D01*
X66055933Y-83251724D01*
X66042516Y-83265723D01*
X66038631Y-83275880D01*
X66031621Y-83293298D01*
X66015749Y-83307869D01*
X66002228Y-83312283D01*
X65988547Y-83318691D01*
X65978072Y-83329585D01*
X65964327Y-83342986D01*
X65954534Y-83346887D01*
X65944305Y-83352246D01*
X65943467Y-83355539D01*
X65935950Y-83361613D01*
X65917836Y-83364189D01*
X65917514Y-83364190D01*
X65899291Y-83366696D01*
X65891562Y-83372734D01*
X65891560Y-83372841D01*
X65883680Y-83377449D01*
X65863094Y-83380573D01*
X65839653Y-83381492D01*
X65812004Y-83380179D01*
X65793259Y-83376748D01*
X65787745Y-83372841D01*
X65780228Y-83366767D01*
X65762114Y-83364191D01*
X65761791Y-83364190D01*
X65743569Y-83361684D01*
X65735840Y-83355646D01*
X65735838Y-83355539D01*
X65728774Y-83348001D01*
X65722006Y-83346887D01*
X65707671Y-83340944D01*
X65689090Y-83326154D01*
X65683930Y-83320934D01*
X65667617Y-83304697D01*
X65656302Y-83295651D01*
X65654506Y-83294980D01*
X65651261Y-83302662D01*
X65649457Y-83321851D01*
X65649326Y-83329585D01*
X65649326Y-83364190D01*
X65433045Y-83364190D01*
X65433045Y-83052746D01*
X65649326Y-83052746D01*
X65650882Y-83077421D01*
X65654860Y-83093083D01*
X65657977Y-83096002D01*
X65665612Y-83103026D01*
X65666628Y-83109225D01*
X65672259Y-83123035D01*
X65686493Y-83142661D01*
X65694744Y-83151886D01*
X65714072Y-83169778D01*
X65732448Y-83178643D01*
X65757703Y-83181665D01*
X65768568Y-83181920D01*
X65797443Y-83180950D01*
X65817080Y-83175038D01*
X65835446Y-83161091D01*
X65844267Y-83152523D01*
X65865089Y-83126542D01*
X65874100Y-83103440D01*
X65874257Y-83100616D01*
X65877183Y-83084220D01*
X65882909Y-83078699D01*
X65888326Y-83071025D01*
X65891339Y-83051852D01*
X65891560Y-83044095D01*
X65889641Y-83022425D01*
X65884848Y-83010372D01*
X65882909Y-83009490D01*
X65876472Y-83002068D01*
X65874257Y-82987244D01*
X65867972Y-82962206D01*
X65852015Y-82944933D01*
X65835945Y-82940280D01*
X65824041Y-82935794D01*
X65822350Y-82931629D01*
X65814470Y-82927020D01*
X65793885Y-82923896D01*
X65770443Y-82922977D01*
X65742794Y-82924291D01*
X65724049Y-82927722D01*
X65718535Y-82931629D01*
X65711487Y-82939204D01*
X65704941Y-82940280D01*
X65684515Y-82947985D01*
X65670424Y-82967545D01*
X65666628Y-82987244D01*
X65663742Y-83003795D01*
X65657977Y-83009490D01*
X65653042Y-83017270D01*
X65649909Y-83037164D01*
X65649326Y-83052746D01*
X65433045Y-83052746D01*
X65433045Y-82956964D01*
X65433096Y-82861442D01*
G37*
G36*
X62033113Y-83364190D02*
G01*
X61808181Y-83364190D01*
X61808181Y-83056453D01*
X61808283Y-82973030D01*
X61808629Y-82905292D01*
X61809282Y-82851626D01*
X61810304Y-82810416D01*
X61811758Y-82780047D01*
X61813705Y-82758904D01*
X61816209Y-82745372D01*
X61819332Y-82737836D01*
X61820540Y-82736358D01*
X61831253Y-82730572D01*
X61851363Y-82726772D01*
X61883446Y-82724676D01*
X61930081Y-82724001D01*
X61933006Y-82723999D01*
X62033113Y-82723999D01*
X62033113Y-83364190D01*
G37*
G36*
X62133021Y-82928491D02*
G01*
X62136928Y-82922977D01*
X62144603Y-82915970D01*
X62145579Y-82910001D01*
X62150250Y-82898488D01*
X62154230Y-82897024D01*
X62161879Y-82890005D01*
X62162881Y-82883887D01*
X62169276Y-82869341D01*
X62186040Y-82848024D01*
X62209542Y-82823333D01*
X62236150Y-82798664D01*
X62262235Y-82777414D01*
X62284164Y-82762979D01*
X62296815Y-82758604D01*
X62313150Y-82755663D01*
X62318603Y-82749953D01*
X62326121Y-82743879D01*
X62344234Y-82741302D01*
X62344557Y-82741302D01*
X62362780Y-82738796D01*
X62370509Y-82732758D01*
X62370511Y-82732650D01*
X62378708Y-82728570D01*
X62401529Y-82725639D01*
X62436317Y-82724137D01*
X62452697Y-82723999D01*
X62491464Y-82724862D01*
X62519308Y-82727264D01*
X62533574Y-82730926D01*
X62534884Y-82732650D01*
X62542402Y-82738725D01*
X62560515Y-82741301D01*
X62560838Y-82741302D01*
X62579061Y-82743808D01*
X62586790Y-82749845D01*
X62586791Y-82749953D01*
X62594037Y-82756982D01*
X62604094Y-82758604D01*
X62618152Y-82762227D01*
X62621396Y-82767255D01*
X62628419Y-82774893D01*
X62634601Y-82775907D01*
X62648048Y-82782009D01*
X62667823Y-82797481D01*
X62689640Y-82818072D01*
X62709213Y-82839530D01*
X62722257Y-82857604D01*
X62725211Y-82865796D01*
X62730925Y-82879058D01*
X62734960Y-82881529D01*
X62741223Y-82891280D01*
X62746707Y-82912747D01*
X62749037Y-82929832D01*
X62752769Y-82955081D01*
X62757692Y-82971429D01*
X62760917Y-82974885D01*
X62764638Y-82982803D01*
X62767335Y-83003643D01*
X62768461Y-83033028D01*
X62768467Y-83035443D01*
X62768467Y-83096002D01*
X62353208Y-83096002D01*
X62353208Y-83121956D01*
X62355714Y-83140179D01*
X62361752Y-83147907D01*
X62361860Y-83147909D01*
X62368889Y-83155155D01*
X62370511Y-83165212D01*
X62376628Y-83179671D01*
X62387813Y-83182514D01*
X62401871Y-83186137D01*
X62405116Y-83191165D01*
X62412803Y-83196529D01*
X62432059Y-83199563D01*
X62440575Y-83199817D01*
X62468924Y-83196418D01*
X62490637Y-83183389D01*
X62500279Y-83173863D01*
X62524524Y-83147909D01*
X62752686Y-83147909D01*
X62746652Y-83183622D01*
X62740740Y-83204911D01*
X62728881Y-83225949D01*
X62708350Y-83250782D01*
X62685493Y-83274460D01*
X62659553Y-83299016D01*
X62636925Y-83317942D01*
X62621126Y-83328399D01*
X62617231Y-83329585D01*
X62605616Y-83334207D01*
X62604094Y-83338236D01*
X62596848Y-83345265D01*
X62586791Y-83346887D01*
X62572734Y-83350510D01*
X62569489Y-83355539D01*
X62561814Y-83360956D01*
X62542641Y-83363969D01*
X62534884Y-83364190D01*
X62513214Y-83366109D01*
X62501162Y-83370902D01*
X62500279Y-83372841D01*
X62492334Y-83377362D01*
X62471287Y-83380457D01*
X62444046Y-83381492D01*
X62414661Y-83380270D01*
X62394543Y-83377032D01*
X62387813Y-83372841D01*
X62380138Y-83367424D01*
X62360965Y-83364411D01*
X62353208Y-83364190D01*
X62331539Y-83362271D01*
X62319486Y-83357478D01*
X62318603Y-83355539D01*
X62311358Y-83348510D01*
X62301301Y-83346887D01*
X62287243Y-83343265D01*
X62283999Y-83338236D01*
X62276976Y-83330598D01*
X62270794Y-83329585D01*
X62257153Y-83323432D01*
X62237271Y-83307827D01*
X62215431Y-83287053D01*
X62195915Y-83265392D01*
X62183005Y-83247128D01*
X62180184Y-83238975D01*
X62175583Y-83227317D01*
X62171533Y-83225770D01*
X62163857Y-83218763D01*
X62162881Y-83212793D01*
X62158210Y-83201281D01*
X62154230Y-83199817D01*
X62147201Y-83192571D01*
X62145579Y-83182514D01*
X62141956Y-83168456D01*
X62136928Y-83165212D01*
X62132320Y-83157332D01*
X62129195Y-83136746D01*
X62128277Y-83113304D01*
X62126963Y-83085656D01*
X62123532Y-83066911D01*
X62119625Y-83061397D01*
X62112596Y-83054151D01*
X62110974Y-83044095D01*
X62114597Y-83030037D01*
X62119625Y-83026792D01*
X62124233Y-83018912D01*
X62127358Y-82998327D01*
X62128277Y-82974885D01*
X62353208Y-82974885D01*
X62354347Y-82982604D01*
X62359804Y-82987610D01*
X62372636Y-82990486D01*
X62395904Y-82991815D01*
X62432667Y-82992179D01*
X62444046Y-82992187D01*
X62534884Y-82992187D01*
X62534884Y-82970166D01*
X62528740Y-82948936D01*
X62513531Y-82926850D01*
X62511795Y-82925056D01*
X62487249Y-82909004D01*
X62457355Y-82901331D01*
X62426424Y-82901460D01*
X62398769Y-82908813D01*
X62378700Y-82922813D01*
X62370530Y-82942880D01*
X62370511Y-82943988D01*
X62366025Y-82955891D01*
X62361860Y-82957582D01*
X62354831Y-82964828D01*
X62353208Y-82974885D01*
X62128277Y-82974885D01*
X62129590Y-82947236D01*
X62133021Y-82928491D01*
G37*
G36*
X64325688Y-83199817D02*
G01*
X64576574Y-83199817D01*
X64576574Y-83364190D01*
X64100756Y-83364190D01*
X64100756Y-82576928D01*
X64325688Y-82576928D01*
X64325688Y-83199817D01*
G37*
G36*
X59048440Y-82879721D02*
G01*
X59170175Y-82879721D01*
X59222043Y-82879299D01*
X59259088Y-82877881D01*
X59283770Y-82875241D01*
X59298552Y-82871151D01*
X59304269Y-82867362D01*
X59309156Y-82858705D01*
X59312643Y-82842471D01*
X59314922Y-82816315D01*
X59316185Y-82777892D01*
X59316622Y-82724856D01*
X59316628Y-82715966D01*
X59316628Y-82576928D01*
X59532909Y-82576928D01*
X59532909Y-83364190D01*
X59316628Y-83364190D01*
X59316628Y-83044095D01*
X59048440Y-83044095D01*
X59048440Y-83364190D01*
X58832159Y-83364190D01*
X58832159Y-82576928D01*
X59048440Y-82576928D01*
X59048440Y-82879721D01*
G37*
G36*
X60735111Y-82724751D02*
G01*
X60766533Y-82726873D01*
X60784228Y-82730165D01*
X60787336Y-82732650D01*
X60794740Y-82739154D01*
X60808965Y-82741302D01*
X60825223Y-82744263D01*
X60830593Y-82749953D01*
X60837615Y-82757591D01*
X60843797Y-82758604D01*
X60857438Y-82764757D01*
X60877320Y-82780362D01*
X60899160Y-82801136D01*
X60918676Y-82822797D01*
X60931586Y-82841061D01*
X60934407Y-82849214D01*
X60939008Y-82860872D01*
X60943059Y-82862419D01*
X60950088Y-82869665D01*
X60951710Y-82879721D01*
X60955333Y-82893779D01*
X60960361Y-82897024D01*
X60966864Y-82904427D01*
X60969012Y-82918652D01*
X60969012Y-82940280D01*
X60873455Y-82940280D01*
X60830865Y-82939984D01*
X60801843Y-82938679D01*
X60782658Y-82935742D01*
X60769582Y-82930548D01*
X60758884Y-82922475D01*
X60757080Y-82920815D01*
X60738224Y-82903599D01*
X60723234Y-82890535D01*
X60707515Y-82883013D01*
X60688198Y-82879966D01*
X60672161Y-82881727D01*
X60666219Y-82887790D01*
X60659079Y-82896575D01*
X60648917Y-82901349D01*
X60634391Y-82911858D01*
X60632658Y-82926874D01*
X60641526Y-82942246D01*
X60658808Y-82953824D01*
X60678578Y-82957582D01*
X60695130Y-82960469D01*
X60700824Y-82966234D01*
X60708499Y-82971651D01*
X60727672Y-82974664D01*
X60735429Y-82974885D01*
X60757099Y-82976803D01*
X60769152Y-82981597D01*
X60770034Y-82983536D01*
X60777639Y-82989254D01*
X60796340Y-82992112D01*
X60800313Y-82992187D01*
X60820327Y-82994360D01*
X60830331Y-82999703D01*
X60830593Y-83000838D01*
X60837838Y-83007867D01*
X60847895Y-83009490D01*
X60861953Y-83013113D01*
X60865197Y-83018141D01*
X60872224Y-83025769D01*
X60878463Y-83026792D01*
X60893189Y-83033079D01*
X60912816Y-83048636D01*
X60932390Y-83068513D01*
X60946959Y-83087756D01*
X60951710Y-83100039D01*
X60956293Y-83111736D01*
X60960361Y-83113304D01*
X60964720Y-83121355D01*
X60967758Y-83143149D01*
X60969004Y-83175146D01*
X60969012Y-83178189D01*
X60967939Y-83210882D01*
X60965033Y-83233670D01*
X60960767Y-83243012D01*
X60960361Y-83243073D01*
X60952733Y-83250100D01*
X60951710Y-83256338D01*
X60945948Y-83269893D01*
X60931318Y-83289293D01*
X60921719Y-83299594D01*
X60901549Y-83317216D01*
X60884294Y-83328000D01*
X60878463Y-83329585D01*
X60866766Y-83334168D01*
X60865197Y-83338236D01*
X60857952Y-83345265D01*
X60847895Y-83346887D01*
X60833837Y-83350510D01*
X60830593Y-83355539D01*
X60823189Y-83362042D01*
X60808965Y-83364190D01*
X60792706Y-83367151D01*
X60787336Y-83372841D01*
X60779170Y-83376986D01*
X60756562Y-83379943D01*
X60722355Y-83381397D01*
X60709475Y-83381492D01*
X60672168Y-83380585D01*
X60645555Y-83378073D01*
X60632477Y-83374272D01*
X60631614Y-83372841D01*
X60624097Y-83366767D01*
X60605984Y-83364191D01*
X60605661Y-83364190D01*
X60587438Y-83361684D01*
X60579709Y-83355646D01*
X60579707Y-83355539D01*
X60572236Y-83349285D01*
X60555663Y-83346887D01*
X60531505Y-83340300D01*
X60519148Y-83329585D01*
X60506985Y-83316291D01*
X60499543Y-83312283D01*
X60486978Y-83305846D01*
X60470958Y-83290562D01*
X60456850Y-83272470D01*
X60450016Y-83257609D01*
X60449939Y-83256443D01*
X60445387Y-83244680D01*
X60441287Y-83243073D01*
X60433612Y-83236066D01*
X60432636Y-83230096D01*
X60427965Y-83218583D01*
X60423985Y-83217119D01*
X60418568Y-83209444D01*
X60415554Y-83190271D01*
X60415334Y-83182514D01*
X60415334Y-83147909D01*
X60511115Y-83147909D01*
X60560102Y-83148806D01*
X60594247Y-83152003D01*
X60615939Y-83158259D01*
X60627570Y-83168337D01*
X60631531Y-83182994D01*
X60631614Y-83186222D01*
X60638846Y-83197464D01*
X60648917Y-83199817D01*
X60662975Y-83203440D01*
X60666219Y-83208468D01*
X60673699Y-83214404D01*
X60692226Y-83216949D01*
X60715926Y-83216341D01*
X60738928Y-83212819D01*
X60755361Y-83206620D01*
X60757675Y-83204760D01*
X60768502Y-83188778D01*
X60765849Y-83172631D01*
X60748998Y-83152041D01*
X60748799Y-83151842D01*
X60728462Y-83137006D01*
X60702667Y-83131090D01*
X60688241Y-83130607D01*
X60664887Y-83128905D01*
X60650797Y-83124594D01*
X60648917Y-83121956D01*
X60641242Y-83116538D01*
X60622069Y-83113525D01*
X60614312Y-83113304D01*
X60592642Y-83111386D01*
X60580589Y-83106592D01*
X60579707Y-83104653D01*
X60572189Y-83098579D01*
X60554076Y-83096003D01*
X60553753Y-83096002D01*
X60535530Y-83093496D01*
X60527802Y-83087458D01*
X60527800Y-83087351D01*
X60521178Y-83078996D01*
X60518860Y-83078699D01*
X60506260Y-83072448D01*
X60488393Y-83057007D01*
X60469933Y-83037345D01*
X60455558Y-83018433D01*
X60449939Y-83005452D01*
X60445356Y-82993756D01*
X60441287Y-82992187D01*
X60436928Y-82984136D01*
X60433890Y-82962343D01*
X60432644Y-82930346D01*
X60432636Y-82927303D01*
X60433710Y-82894610D01*
X60436615Y-82871822D01*
X60440882Y-82862480D01*
X60441287Y-82862419D01*
X60448916Y-82855392D01*
X60449939Y-82849154D01*
X60455701Y-82835630D01*
X60470347Y-82816208D01*
X60480218Y-82805609D01*
X60497800Y-82786463D01*
X60508724Y-82771554D01*
X60510497Y-82766967D01*
X60517746Y-82760171D01*
X60527800Y-82758604D01*
X60541858Y-82754981D01*
X60545102Y-82749953D01*
X60552620Y-82743879D01*
X60570733Y-82741302D01*
X60571056Y-82741302D01*
X60589279Y-82738796D01*
X60597007Y-82732758D01*
X60597009Y-82732650D01*
X60605282Y-82728747D01*
X60628625Y-82725890D01*
X60664828Y-82724282D01*
X60692173Y-82723999D01*
X60735111Y-82724751D01*
G37*
G36*
X59870306Y-82910001D02*
G01*
X59870702Y-82976557D01*
X59871859Y-83029327D01*
X59873735Y-83067398D01*
X59876289Y-83089861D01*
X59878958Y-83096002D01*
X59885418Y-83103417D01*
X59887609Y-83118023D01*
X59893835Y-83139244D01*
X59909080Y-83160998D01*
X59928188Y-83177333D01*
X59943449Y-83182514D01*
X59955212Y-83187066D01*
X59956819Y-83191165D01*
X59964336Y-83197240D01*
X59982450Y-83199816D01*
X59982772Y-83199817D01*
X60000995Y-83197311D01*
X60008724Y-83191273D01*
X60008726Y-83191165D01*
X60015760Y-83183554D01*
X60022096Y-83182514D01*
X60038560Y-83175940D01*
X60057355Y-83160227D01*
X60072464Y-83141395D01*
X60077936Y-83126674D01*
X60082487Y-83114912D01*
X60086587Y-83113304D01*
X60089630Y-83104801D01*
X60092054Y-83079859D01*
X60093822Y-83039336D01*
X60094896Y-82984086D01*
X60095238Y-82918652D01*
X60095238Y-82723999D01*
X60311519Y-82723999D01*
X60311519Y-83364190D01*
X60095238Y-83364190D01*
X60095238Y-83329585D01*
X60093320Y-83307915D01*
X60088526Y-83295863D01*
X60086587Y-83294980D01*
X60078187Y-83301563D01*
X60077936Y-83303631D01*
X60070782Y-83310930D01*
X60062543Y-83312283D01*
X60045817Y-83318810D01*
X60034680Y-83329585D01*
X60019133Y-83343098D01*
X60006816Y-83346887D01*
X59993830Y-83350908D01*
X59991424Y-83355539D01*
X59983906Y-83361613D01*
X59965793Y-83364189D01*
X59965470Y-83364190D01*
X59947247Y-83366696D01*
X59939518Y-83372734D01*
X59939516Y-83372841D01*
X59931736Y-83377776D01*
X59911842Y-83380909D01*
X59896260Y-83381492D01*
X59871585Y-83379936D01*
X59855923Y-83375957D01*
X59853004Y-83372841D01*
X59845600Y-83366338D01*
X59831376Y-83364190D01*
X59815118Y-83361229D01*
X59809748Y-83355539D01*
X59802502Y-83348510D01*
X59792445Y-83346887D01*
X59778387Y-83343265D01*
X59775143Y-83338236D01*
X59768109Y-83330625D01*
X59761773Y-83329585D01*
X59745999Y-83323283D01*
X59727422Y-83308251D01*
X59712063Y-83290307D01*
X59705933Y-83275655D01*
X59699532Y-83262158D01*
X59688631Y-83251724D01*
X59676200Y-83236241D01*
X59671503Y-83210737D01*
X59671328Y-83202232D01*
X59669527Y-83179686D01*
X59664994Y-83166568D01*
X59662677Y-83165212D01*
X59659712Y-83156695D01*
X59657332Y-83131664D01*
X59655571Y-83090897D01*
X59654459Y-83035175D01*
X59654030Y-82965276D01*
X59654026Y-82956964D01*
X59654203Y-82889014D01*
X59654806Y-82836406D01*
X59655945Y-82797184D01*
X59657731Y-82769390D01*
X59660272Y-82751067D01*
X59663678Y-82740259D01*
X59666385Y-82736358D01*
X59677458Y-82730430D01*
X59698258Y-82726592D01*
X59731371Y-82724548D01*
X59774525Y-82723999D01*
X59870306Y-82723999D01*
X59870306Y-82910001D01*
G37*
%TO.C,R1*%
X69727500Y-66612258D02*
X69727500Y-66137742D01*
X70772500Y-66612258D02*
X70772500Y-66137742D01*
%TO.C,C15*%
X73474420Y-85010000D02*
X73755580Y-85010000D01*
X73474420Y-86030000D02*
X73755580Y-86030000D01*
%TO.C,C12*%
X74290580Y-62810000D02*
X74009420Y-62810000D01*
X74290580Y-61790000D02*
X74009420Y-61790000D01*
%TO.C,Y1*%
X62125000Y-86575000D02*
X62125000Y-87825000D01*
X62125000Y-90425000D02*
X62125000Y-91675000D01*
X74725000Y-86575000D02*
X62125000Y-86575000D01*
X62125000Y-91675000D02*
X74725000Y-91675000D01*
%TO.C,R6*%
X74847500Y-46587742D02*
X74847500Y-47062258D01*
X73802500Y-46587742D02*
X73802500Y-47062258D01*
%TO.C,C16*%
X63806920Y-86030000D02*
X64088080Y-86030000D01*
X63806920Y-85010000D02*
X64088080Y-85010000D01*
%TO.C,G\u002A\u002A\u002A*%
G36*
X62628713Y-77283517D02*
G01*
X62668314Y-77289953D01*
X62675776Y-77291677D01*
X62720300Y-77304312D01*
X62768527Y-77320973D01*
X62816045Y-77340026D01*
X62854305Y-77357742D01*
X62893010Y-77377149D01*
X62912221Y-77359793D01*
X62929374Y-77346712D01*
X62948813Y-77337138D01*
X62972202Y-77330682D01*
X63001202Y-77326953D01*
X63037477Y-77325561D01*
X63057975Y-77325608D01*
X63103015Y-77327300D01*
X63141566Y-77331694D01*
X63176839Y-77339543D01*
X63212044Y-77351597D01*
X63250390Y-77368605D01*
X63258256Y-77372440D01*
X63283314Y-77385351D01*
X63302898Y-77397182D01*
X63320287Y-77410307D01*
X63338764Y-77427100D01*
X63352327Y-77440519D01*
X63386963Y-77479463D01*
X63412593Y-77518014D01*
X63429911Y-77557730D01*
X63439609Y-77600169D01*
X63442396Y-77643152D01*
X63441281Y-77672118D01*
X63437289Y-77697224D01*
X63429482Y-77724314D01*
X63429220Y-77725096D01*
X63422504Y-77744252D01*
X63416343Y-77760362D01*
X63411821Y-77770632D01*
X63410992Y-77772087D01*
X63407702Y-77776356D01*
X63408537Y-77772029D01*
X63409223Y-77769909D01*
X63414203Y-77751840D01*
X63419086Y-77729223D01*
X63423172Y-77705898D01*
X63425763Y-77685710D01*
X63426314Y-77675926D01*
X63421810Y-77631398D01*
X63409037Y-77586504D01*
X63389100Y-77543800D01*
X63363104Y-77505843D01*
X63343863Y-77485283D01*
X63300185Y-77451166D01*
X63250401Y-77424735D01*
X63194738Y-77406076D01*
X63133424Y-77395278D01*
X63101800Y-77392901D01*
X63074416Y-77391934D01*
X63053983Y-77392046D01*
X63037594Y-77393480D01*
X63022341Y-77396477D01*
X63006832Y-77400818D01*
X62989604Y-77406430D01*
X62976477Y-77411418D01*
X62969997Y-77414803D01*
X62969780Y-77415067D01*
X62971551Y-77420282D01*
X62977832Y-77432309D01*
X62987771Y-77449645D01*
X63000518Y-77470784D01*
X63009100Y-77484574D01*
X63023228Y-77507091D01*
X63035287Y-77526450D01*
X63044386Y-77541205D01*
X63049631Y-77549913D01*
X63050556Y-77551634D01*
X63046367Y-77549883D01*
X63034683Y-77544303D01*
X63016830Y-77535545D01*
X62994132Y-77524259D01*
X62967915Y-77511096D01*
X62963025Y-77508629D01*
X62890645Y-77473416D01*
X62825111Y-77444418D01*
X62765757Y-77421411D01*
X62711913Y-77404177D01*
X62662913Y-77392494D01*
X62618087Y-77386141D01*
X62588063Y-77384744D01*
X62548253Y-77386778D01*
X62515562Y-77393620D01*
X62488134Y-77405913D01*
X62464115Y-77424303D01*
X62458709Y-77429637D01*
X62449972Y-77439189D01*
X62442458Y-77449089D01*
X62435987Y-77460235D01*
X62430380Y-77473526D01*
X62425457Y-77489864D01*
X62421040Y-77510148D01*
X62416949Y-77535277D01*
X62413005Y-77566151D01*
X62409029Y-77603671D01*
X62404842Y-77648735D01*
X62400263Y-77702244D01*
X62397338Y-77737757D01*
X62389588Y-77820457D01*
X62380437Y-77894184D01*
X62369607Y-77959793D01*
X62356817Y-78018137D01*
X62341790Y-78070074D01*
X62324246Y-78116458D01*
X62303906Y-78158144D01*
X62280491Y-78195987D01*
X62253722Y-78230843D01*
X62226973Y-78259922D01*
X62212797Y-78273935D01*
X62199730Y-78286025D01*
X62186393Y-78297168D01*
X62171409Y-78308336D01*
X62153399Y-78320503D01*
X62130984Y-78334641D01*
X62102786Y-78351725D01*
X62067427Y-78372727D01*
X62066213Y-78373444D01*
X61981756Y-78424361D01*
X61905854Y-78472340D01*
X61837808Y-78517939D01*
X61776920Y-78561716D01*
X61722490Y-78604228D01*
X61673818Y-78646035D01*
X61630206Y-78687693D01*
X61590954Y-78729761D01*
X61555364Y-78772797D01*
X61539478Y-78793823D01*
X61490230Y-78869210D01*
X61448770Y-78950310D01*
X61415139Y-79036680D01*
X61389381Y-79127877D01*
X61371537Y-79223460D01*
X61361650Y-79322985D01*
X61359763Y-79426010D01*
X61365918Y-79532093D01*
X61380157Y-79640791D01*
X61402523Y-79751661D01*
X61433059Y-79864262D01*
X61435920Y-79873539D01*
X61464367Y-79955771D01*
X61499628Y-80042324D01*
X61540787Y-80131347D01*
X61586927Y-80220991D01*
X61637130Y-80309405D01*
X61690478Y-80394740D01*
X61705581Y-80417424D01*
X61746113Y-80476026D01*
X61786371Y-80531115D01*
X61827578Y-80584143D01*
X61870959Y-80636561D01*
X61917738Y-80689822D01*
X61969138Y-80745378D01*
X62026384Y-80804680D01*
X62064272Y-80842888D01*
X62094169Y-80872798D01*
X62121719Y-80900388D01*
X62146173Y-80924906D01*
X62166783Y-80945602D01*
X62182800Y-80961724D01*
X62193478Y-80972520D01*
X62198066Y-80977239D01*
X62198184Y-80977387D01*
X62194114Y-80974512D01*
X62183423Y-80966744D01*
X62167451Y-80955062D01*
X62147539Y-80940447D01*
X62132038Y-80929043D01*
X62026190Y-80846775D01*
X61924229Y-80758933D01*
X61827465Y-80666801D01*
X61737210Y-80571666D01*
X61654773Y-80474811D01*
X61611159Y-80418487D01*
X61536148Y-80311615D01*
X61469063Y-80202992D01*
X61409981Y-80093052D01*
X61358979Y-79982229D01*
X61316133Y-79870959D01*
X61281522Y-79759675D01*
X61255220Y-79648811D01*
X61237306Y-79538802D01*
X61227856Y-79430082D01*
X61226947Y-79323086D01*
X61234655Y-79218246D01*
X61251058Y-79115999D01*
X61276232Y-79016777D01*
X61310254Y-78921016D01*
X61336066Y-78863073D01*
X61383661Y-78773901D01*
X61437317Y-78691621D01*
X61497800Y-78615307D01*
X61565878Y-78544037D01*
X61642318Y-78476887D01*
X61683095Y-78445180D01*
X61709484Y-78426301D01*
X61743530Y-78403347D01*
X61784200Y-78376967D01*
X61830459Y-78347811D01*
X61881274Y-78316530D01*
X61935610Y-78283771D01*
X61992433Y-78250186D01*
X62006853Y-78241767D01*
X62052081Y-78214608D01*
X62089387Y-78190015D01*
X62119955Y-78166694D01*
X62144972Y-78143351D01*
X62165623Y-78118690D01*
X62183093Y-78091417D01*
X62198568Y-78060235D01*
X62213232Y-78023852D01*
X62217786Y-78011351D01*
X62226113Y-77985904D01*
X62233577Y-77958157D01*
X62240389Y-77926884D01*
X62246763Y-77890861D01*
X62252911Y-77848863D01*
X62259046Y-77799665D01*
X62265381Y-77742043D01*
X62266628Y-77730003D01*
X62273419Y-77667113D01*
X62280062Y-77613034D01*
X62286822Y-77566694D01*
X62293963Y-77527020D01*
X62301747Y-77492939D01*
X62310439Y-77463379D01*
X62320302Y-77437267D01*
X62331600Y-77413529D01*
X62344596Y-77391094D01*
X62353114Y-77378112D01*
X62382355Y-77343876D01*
X62418595Y-77316193D01*
X62460848Y-77295771D01*
X62473254Y-77291565D01*
X62505676Y-77284481D01*
X62544394Y-77280780D01*
X62586406Y-77280459D01*
X62628713Y-77283517D01*
G37*
G36*
X63030770Y-77260425D02*
G01*
X63028297Y-77262898D01*
X63025824Y-77260425D01*
X63028297Y-77257952D01*
X63030770Y-77260425D01*
G37*
G36*
X63783699Y-79797187D02*
G01*
X63791669Y-79807708D01*
X63801996Y-79825412D01*
X63814209Y-79849227D01*
X63827835Y-79878080D01*
X63842405Y-79910900D01*
X63857445Y-79946614D01*
X63872485Y-79984151D01*
X63887054Y-80022439D01*
X63900680Y-80060406D01*
X63912891Y-80096979D01*
X63916675Y-80109029D01*
X63944943Y-80207875D01*
X63967505Y-80303390D01*
X63984764Y-80398130D01*
X63997124Y-80494648D01*
X64004988Y-80595503D01*
X64008529Y-80690785D01*
X64009275Y-80754021D01*
X64008637Y-80809406D01*
X64006474Y-80858902D01*
X64002645Y-80904471D01*
X63997008Y-80948076D01*
X63989422Y-80991681D01*
X63985415Y-81011443D01*
X63968834Y-81075780D01*
X63946133Y-81142432D01*
X63918618Y-81208219D01*
X63887596Y-81269965D01*
X63860435Y-81315386D01*
X63811157Y-81383141D01*
X63752884Y-81449454D01*
X63686496Y-81513496D01*
X63612871Y-81574435D01*
X63532889Y-81631440D01*
X63511026Y-81645600D01*
X63486976Y-81660707D01*
X63469842Y-81670948D01*
X63458299Y-81676928D01*
X63451018Y-81679247D01*
X63446672Y-81678511D01*
X63444291Y-81675926D01*
X63447274Y-81671920D01*
X63457243Y-81663862D01*
X63472731Y-81652837D01*
X63492270Y-81639931D01*
X63497174Y-81636816D01*
X63559071Y-81595900D01*
X63614216Y-81555161D01*
X63665448Y-81512348D01*
X63715604Y-81465211D01*
X63723272Y-81457566D01*
X63782999Y-81393059D01*
X63834198Y-81327625D01*
X63877427Y-81260082D01*
X63913246Y-81189254D01*
X63942214Y-81113959D01*
X63964888Y-81033019D01*
X63981829Y-80945255D01*
X63988365Y-80898105D01*
X63991147Y-80867260D01*
X63993080Y-80828554D01*
X63994189Y-80783978D01*
X63994497Y-80735526D01*
X63994029Y-80685189D01*
X63992809Y-80634961D01*
X63990860Y-80586834D01*
X63988207Y-80542799D01*
X63984873Y-80504851D01*
X63983473Y-80492760D01*
X63967908Y-80389027D01*
X63947485Y-80285731D01*
X63922665Y-80184464D01*
X63893908Y-80086819D01*
X63861675Y-79994389D01*
X63826425Y-79908766D01*
X63797050Y-79847573D01*
X63785832Y-79825111D01*
X63779182Y-79809843D01*
X63776636Y-79800447D01*
X63777730Y-79795600D01*
X63778556Y-79794920D01*
X63783699Y-79797187D01*
G37*
G36*
X63056758Y-80250494D02*
G01*
X63087531Y-80193166D01*
X63123013Y-80135933D01*
X63156304Y-80088631D01*
X63172293Y-80068663D01*
X63194041Y-80043506D01*
X63220063Y-80014712D01*
X63248872Y-79983827D01*
X63278982Y-79952402D01*
X63308908Y-79921985D01*
X63337162Y-79894124D01*
X63362261Y-79870369D01*
X63382716Y-79852269D01*
X63384441Y-79850837D01*
X63409173Y-79830449D01*
X63311481Y-79830276D01*
X63277361Y-79829981D01*
X63249632Y-79829259D01*
X63229210Y-79828155D01*
X63217012Y-79826717D01*
X63213789Y-79825324D01*
X63215515Y-79820081D01*
X63220441Y-79806609D01*
X63228186Y-79785900D01*
X63238368Y-79758948D01*
X63250607Y-79726745D01*
X63264522Y-79690284D01*
X63279733Y-79650559D01*
X63295858Y-79608563D01*
X63312516Y-79565287D01*
X63329327Y-79521726D01*
X63345909Y-79478872D01*
X63361883Y-79437719D01*
X63376867Y-79399258D01*
X63390479Y-79364483D01*
X63393138Y-79357718D01*
X63404808Y-79328039D01*
X63510866Y-79309700D01*
X63619665Y-79289639D01*
X63725263Y-79267697D01*
X63827017Y-79244083D01*
X63924287Y-79219005D01*
X64016428Y-79192672D01*
X64102799Y-79165291D01*
X64182757Y-79137071D01*
X64255661Y-79108219D01*
X64320867Y-79078944D01*
X64377733Y-79049453D01*
X64425617Y-79019956D01*
X64442553Y-79007871D01*
X64476743Y-78977419D01*
X64510112Y-78938425D01*
X64541934Y-78892239D01*
X64571485Y-78840213D01*
X64598040Y-78783696D01*
X64620875Y-78724040D01*
X64639264Y-78662594D01*
X64647896Y-78625263D01*
X64651723Y-78605710D01*
X64654420Y-78590220D01*
X64655612Y-78581041D01*
X64655529Y-78579524D01*
X64650750Y-78580582D01*
X64640652Y-78585209D01*
X64637588Y-78586816D01*
X64622893Y-78591632D01*
X64600413Y-78595156D01*
X64572176Y-78597341D01*
X64540211Y-78598141D01*
X64506548Y-78597509D01*
X64473215Y-78595399D01*
X64442242Y-78591762D01*
X64439741Y-78591375D01*
X64382580Y-78579538D01*
X64327190Y-78562735D01*
X64274720Y-78541629D01*
X64226325Y-78516884D01*
X64183154Y-78489165D01*
X64146360Y-78459133D01*
X64117094Y-78427453D01*
X64096509Y-78394789D01*
X64095737Y-78393161D01*
X64089155Y-78377919D01*
X64085047Y-78364366D01*
X64082851Y-78349288D01*
X64082004Y-78329467D01*
X64081928Y-78317009D01*
X64225002Y-78317009D01*
X64227329Y-78332538D01*
X64235264Y-78344803D01*
X64250135Y-78360196D01*
X64270160Y-78377175D01*
X64293555Y-78394194D01*
X64312184Y-78406022D01*
X64349926Y-78425312D01*
X64394217Y-78442783D01*
X64441743Y-78457353D01*
X64489187Y-78467936D01*
X64512231Y-78471443D01*
X64531093Y-78473110D01*
X64551446Y-78473845D01*
X64570407Y-78473669D01*
X64585092Y-78472605D01*
X64592410Y-78470824D01*
X64598026Y-78463794D01*
X64605921Y-78449295D01*
X64615221Y-78429233D01*
X64625050Y-78405516D01*
X64634532Y-78380051D01*
X64635970Y-78375910D01*
X64641357Y-78357847D01*
X64643301Y-78342530D01*
X64641247Y-78327769D01*
X64634644Y-78311373D01*
X64622938Y-78291152D01*
X64609370Y-78270513D01*
X64598084Y-78254258D01*
X64588502Y-78242495D01*
X64578250Y-78233250D01*
X64564956Y-78224549D01*
X64546245Y-78214420D01*
X64534983Y-78208643D01*
X64510375Y-78196799D01*
X64484539Y-78185510D01*
X64461266Y-78176384D01*
X64449925Y-78172560D01*
X64430128Y-78167011D01*
X64415705Y-78164600D01*
X64402760Y-78165012D01*
X64388834Y-78167606D01*
X64356795Y-78178836D01*
X64323084Y-78198019D01*
X64289659Y-78223904D01*
X64267982Y-78244812D01*
X64244698Y-78272268D01*
X64230417Y-78296235D01*
X64225002Y-78317009D01*
X64081928Y-78317009D01*
X64081910Y-78314018D01*
X64082153Y-78290615D01*
X64083336Y-78273671D01*
X64086179Y-78259752D01*
X64091400Y-78245428D01*
X64099716Y-78227266D01*
X64100345Y-78225947D01*
X64130229Y-78174399D01*
X64167838Y-78128951D01*
X64213300Y-78089468D01*
X64245775Y-78067747D01*
X64259526Y-78058978D01*
X64269088Y-78052016D01*
X64272188Y-78048723D01*
X64268142Y-78045379D01*
X64261198Y-78043159D01*
X64253885Y-78041367D01*
X64238198Y-78037386D01*
X64215337Y-78031525D01*
X64186502Y-78024095D01*
X64152890Y-78015402D01*
X64115702Y-78005756D01*
X64086836Y-77998252D01*
X63996977Y-77975259D01*
X63916026Y-77955385D01*
X63843534Y-77938542D01*
X63779052Y-77924640D01*
X63722130Y-77913591D01*
X63672319Y-77905305D01*
X63629170Y-77899694D01*
X63592231Y-77896669D01*
X63569933Y-77896042D01*
X63535319Y-77894423D01*
X63508835Y-77889235D01*
X63489153Y-77879808D01*
X63474946Y-77865474D01*
X63464885Y-77845564D01*
X63463836Y-77842599D01*
X63457727Y-77817447D01*
X63455970Y-77789411D01*
X63458680Y-77757012D01*
X63465970Y-77718769D01*
X63476497Y-77678286D01*
X63484559Y-77649299D01*
X63490076Y-77627315D01*
X63493444Y-77609893D01*
X63495054Y-77594588D01*
X63495300Y-77578958D01*
X63494783Y-77564660D01*
X63490057Y-77526475D01*
X63479149Y-77493329D01*
X63460891Y-77462566D01*
X63437884Y-77435431D01*
X63412439Y-77410431D01*
X63387467Y-77389969D01*
X63359811Y-77371768D01*
X63326316Y-77353550D01*
X63319905Y-77350333D01*
X63267347Y-77326610D01*
X63211883Y-77306549D01*
X63150595Y-77289142D01*
X63126005Y-77283206D01*
X63095189Y-77276048D01*
X63073249Y-77270852D01*
X63059418Y-77267364D01*
X63052929Y-77265333D01*
X63053016Y-77264507D01*
X63058913Y-77264632D01*
X63069854Y-77265458D01*
X63072815Y-77265705D01*
X63118034Y-77271661D01*
X63168587Y-77282010D01*
X63221413Y-77295910D01*
X63273450Y-77312523D01*
X63321637Y-77331008D01*
X63339387Y-77338849D01*
X63390211Y-77366103D01*
X63434402Y-77397565D01*
X63471292Y-77432515D01*
X63500213Y-77470233D01*
X63520496Y-77510000D01*
X63530335Y-77544284D01*
X63533712Y-77566332D01*
X63534816Y-77586601D01*
X63533443Y-77607736D01*
X63529386Y-77632386D01*
X63522442Y-77663194D01*
X63520527Y-77670980D01*
X63510299Y-77716009D01*
X63504090Y-77752994D01*
X63501798Y-77782882D01*
X63503324Y-77806623D01*
X63505245Y-77815614D01*
X63507570Y-77823938D01*
X63510298Y-77830177D01*
X63514779Y-77834687D01*
X63522359Y-77837822D01*
X63534386Y-77839940D01*
X63552207Y-77841396D01*
X63577170Y-77842545D01*
X63610622Y-77843743D01*
X63611977Y-77843790D01*
X63644006Y-77845292D01*
X63677296Y-77847490D01*
X63708480Y-77850122D01*
X63734193Y-77852926D01*
X63740585Y-77853798D01*
X63766344Y-77857867D01*
X63800238Y-77863695D01*
X63840725Y-77870989D01*
X63886263Y-77879454D01*
X63935308Y-77888798D01*
X63986320Y-77898726D01*
X64037755Y-77908945D01*
X64088072Y-77919162D01*
X64133549Y-77928622D01*
X64173912Y-77937059D01*
X64220056Y-77946584D01*
X64268052Y-77956393D01*
X64313973Y-77965683D01*
X64348998Y-77972682D01*
X64383606Y-77979772D01*
X64417717Y-77987170D01*
X64449165Y-77994377D01*
X64475784Y-78000893D01*
X64495409Y-78006218D01*
X64499100Y-78007346D01*
X64564570Y-78030980D01*
X64620706Y-78057476D01*
X64667690Y-78086984D01*
X64705702Y-78119657D01*
X64734923Y-78155645D01*
X64755534Y-78195101D01*
X64766354Y-78231168D01*
X64771175Y-78250967D01*
X64777644Y-78273710D01*
X64781854Y-78286937D01*
X64799606Y-78354618D01*
X64809007Y-78427170D01*
X64810082Y-78504200D01*
X64802853Y-78585311D01*
X64787346Y-78670109D01*
X64763583Y-78758198D01*
X64751292Y-78795658D01*
X64720020Y-78874746D01*
X64683233Y-78945929D01*
X64640342Y-79009878D01*
X64590759Y-79067269D01*
X64533896Y-79118774D01*
X64469164Y-79165066D01*
X64395975Y-79206819D01*
X64388757Y-79210476D01*
X64330150Y-79237707D01*
X64262776Y-79265150D01*
X64187745Y-79292470D01*
X64106168Y-79319331D01*
X64019156Y-79345398D01*
X63927818Y-79370337D01*
X63833265Y-79393812D01*
X63736609Y-79415487D01*
X63654617Y-79432056D01*
X63621092Y-79438522D01*
X63590139Y-79444560D01*
X63563305Y-79449863D01*
X63542137Y-79454124D01*
X63528181Y-79457035D01*
X63523823Y-79458029D01*
X63519012Y-79459801D01*
X63514563Y-79463250D01*
X63509880Y-79469550D01*
X63504369Y-79479876D01*
X63497433Y-79495402D01*
X63488478Y-79517303D01*
X63476906Y-79546755D01*
X63470606Y-79562995D01*
X63458974Y-79593105D01*
X63448457Y-79620454D01*
X63439616Y-79643574D01*
X63433013Y-79660994D01*
X63429208Y-79671246D01*
X63428598Y-79673004D01*
X63428436Y-79675033D01*
X63429912Y-79676727D01*
X63433854Y-79678121D01*
X63441091Y-79679253D01*
X63452452Y-79680159D01*
X63468763Y-79680876D01*
X63490853Y-79681440D01*
X63519551Y-79681889D01*
X63555685Y-79682258D01*
X63600083Y-79682586D01*
X63651647Y-79682897D01*
X63877443Y-79684183D01*
X63781851Y-79748487D01*
X63712838Y-79795305D01*
X63651491Y-79837808D01*
X63596934Y-79876674D01*
X63548293Y-79912577D01*
X63504690Y-79946193D01*
X63465250Y-79978198D01*
X63429098Y-80009269D01*
X63395357Y-80040080D01*
X63363151Y-80071308D01*
X63362071Y-80072386D01*
X63314144Y-80122731D01*
X63273722Y-80170704D01*
X63239363Y-80218152D01*
X63209624Y-80266921D01*
X63208571Y-80268815D01*
X63198295Y-80288158D01*
X63190885Y-80303594D01*
X63186576Y-80314229D01*
X63185599Y-80319172D01*
X63188185Y-80317530D01*
X63194568Y-80308411D01*
X63201047Y-80297738D01*
X63221025Y-80267564D01*
X63247777Y-80233088D01*
X63279978Y-80195695D01*
X63316307Y-80156771D01*
X63355442Y-80117701D01*
X63396061Y-80079870D01*
X63436841Y-80044664D01*
X63461444Y-80024904D01*
X63484264Y-80007708D01*
X63511779Y-79987876D01*
X63542689Y-79966262D01*
X63575698Y-79943718D01*
X63609505Y-79921098D01*
X63642812Y-79899255D01*
X63674321Y-79879043D01*
X63702732Y-79861315D01*
X63726747Y-79846923D01*
X63745068Y-79836721D01*
X63754917Y-79832087D01*
X63759434Y-79835025D01*
X63766381Y-79846602D01*
X63775906Y-79867101D01*
X63787028Y-79893971D01*
X63837067Y-80026207D01*
X63879263Y-80152814D01*
X63913669Y-80274124D01*
X63940341Y-80390470D01*
X63959330Y-80502182D01*
X63970691Y-80609592D01*
X63974476Y-80713031D01*
X63970741Y-80812832D01*
X63959538Y-80909326D01*
X63955183Y-80935171D01*
X63936410Y-81020195D01*
X63911769Y-81100039D01*
X63881661Y-81173637D01*
X63846489Y-81239923D01*
X63830811Y-81264573D01*
X63769786Y-81347192D01*
X63701488Y-81424412D01*
X63626769Y-81495605D01*
X63546483Y-81560141D01*
X63461486Y-81617393D01*
X63372631Y-81666733D01*
X63280772Y-81707531D01*
X63186764Y-81739161D01*
X63184885Y-81739690D01*
X63153741Y-81747346D01*
X63114830Y-81755171D01*
X63070266Y-81762839D01*
X63022161Y-81770024D01*
X62972630Y-81776397D01*
X62923786Y-81781631D01*
X62900656Y-81783688D01*
X62872086Y-81785438D01*
X62835811Y-81786743D01*
X62794007Y-81787604D01*
X62748851Y-81788022D01*
X62702521Y-81788000D01*
X62657195Y-81787537D01*
X62615048Y-81786636D01*
X62578258Y-81785297D01*
X62549003Y-81783523D01*
X62548492Y-81783481D01*
X62412562Y-81768094D01*
X62274222Y-81744102D01*
X62135039Y-81711958D01*
X61996583Y-81672114D01*
X61860423Y-81625022D01*
X61728127Y-81571136D01*
X61601265Y-81510908D01*
X61598774Y-81509631D01*
X61528644Y-81473567D01*
X61466705Y-81441547D01*
X61412289Y-81413215D01*
X61364725Y-81388213D01*
X61323345Y-81366185D01*
X61287481Y-81346774D01*
X61256462Y-81329623D01*
X61229621Y-81314374D01*
X61206287Y-81300673D01*
X61200392Y-81297125D01*
X61081481Y-81220691D01*
X60970736Y-81140276D01*
X60868327Y-81056065D01*
X60774420Y-80968247D01*
X60689184Y-80877009D01*
X60612786Y-80782535D01*
X60545396Y-80685014D01*
X60487181Y-80584633D01*
X60438310Y-80481577D01*
X60416332Y-80426150D01*
X60401874Y-80383242D01*
X60387639Y-80333958D01*
X60374516Y-80281790D01*
X60363394Y-80230234D01*
X60356334Y-80190501D01*
X60352212Y-80155818D01*
X60349301Y-80113767D01*
X60347598Y-80066799D01*
X60347101Y-80017364D01*
X60347809Y-79967912D01*
X60349720Y-79920893D01*
X60352832Y-79878759D01*
X60356600Y-79847416D01*
X60367575Y-79787397D01*
X60382822Y-79721863D01*
X60401504Y-79653770D01*
X60422781Y-79586075D01*
X60445815Y-79521733D01*
X60456905Y-79493745D01*
X60464009Y-79476433D01*
X60461200Y-79496218D01*
X60459437Y-79508028D01*
X60456455Y-79527336D01*
X60452610Y-79551875D01*
X60448256Y-79579376D01*
X60446135Y-79592674D01*
X60431155Y-79714229D01*
X60425363Y-79833599D01*
X60428707Y-79950466D01*
X60441137Y-80064514D01*
X60462600Y-80175424D01*
X60493046Y-80282878D01*
X60532423Y-80386560D01*
X60580679Y-80486152D01*
X60594761Y-80511489D01*
X60627418Y-80566019D01*
X60661992Y-80618208D01*
X60700244Y-80670538D01*
X60743934Y-80725490D01*
X60761833Y-80746986D01*
X60763317Y-80747119D01*
X60760832Y-80739722D01*
X60754893Y-80726081D01*
X60746018Y-80707484D01*
X60745683Y-80706803D01*
X60702729Y-80611081D01*
X60668078Y-80514210D01*
X60646714Y-80438516D01*
X60637336Y-80400660D01*
X60629970Y-80368574D01*
X60624378Y-80340171D01*
X60620323Y-80313360D01*
X60617570Y-80286052D01*
X60615881Y-80256160D01*
X60615020Y-80221593D01*
X60614749Y-80180263D01*
X60614761Y-80156569D01*
X60615170Y-80110693D01*
X60616330Y-80067891D01*
X60618401Y-80026524D01*
X60621543Y-79984958D01*
X60625919Y-79941556D01*
X60631688Y-79894681D01*
X60639011Y-79842696D01*
X60648050Y-79783967D01*
X60656601Y-79731175D01*
X60660540Y-79706612D01*
X60665626Y-79673925D01*
X60671606Y-79634780D01*
X60678229Y-79590848D01*
X60685244Y-79543795D01*
X60692399Y-79495292D01*
X60699444Y-79447006D01*
X60700555Y-79439334D01*
X60708589Y-79383895D01*
X60717633Y-79321619D01*
X60727257Y-79255453D01*
X60737033Y-79188349D01*
X60746530Y-79123256D01*
X60755319Y-79063123D01*
X60760349Y-79028779D01*
X60767460Y-78980232D01*
X60774694Y-78930799D01*
X60781795Y-78882221D01*
X60788510Y-78836241D01*
X60794583Y-78794601D01*
X60799761Y-78759043D01*
X60803789Y-78731309D01*
X60804206Y-78728430D01*
X60817975Y-78633358D01*
X60756614Y-78498420D01*
X60701068Y-78374812D01*
X60646790Y-78251158D01*
X60594042Y-78128141D01*
X60543085Y-78006446D01*
X60494183Y-77886757D01*
X60447595Y-77769756D01*
X60403584Y-77656130D01*
X60362412Y-77546560D01*
X60324339Y-77441731D01*
X60289628Y-77342328D01*
X60258540Y-77249034D01*
X60231337Y-77162533D01*
X60208280Y-77083509D01*
X60192135Y-77022721D01*
X60180666Y-76974802D01*
X60168799Y-76921196D01*
X60157325Y-76865728D01*
X60147036Y-76812223D01*
X60138933Y-76765780D01*
X60134392Y-76729791D01*
X60131387Y-76688692D01*
X60129919Y-76644995D01*
X60129986Y-76601210D01*
X60131587Y-76559847D01*
X60134722Y-76523416D01*
X60139006Y-76496199D01*
X60153812Y-76441809D01*
X60173729Y-76393263D01*
X60198223Y-76351516D01*
X60226762Y-76317524D01*
X60248974Y-76298774D01*
X60273779Y-76282760D01*
X60297499Y-76271843D01*
X60322970Y-76265234D01*
X60353028Y-76262140D01*
X60381948Y-76261661D01*
X60396501Y-76261752D01*
X60408788Y-76261986D01*
X60419948Y-76262668D01*
X60431119Y-76264106D01*
X60443441Y-76266609D01*
X60458052Y-76270483D01*
X60476089Y-76276035D01*
X60498693Y-76283574D01*
X60527001Y-76293407D01*
X60562152Y-76305840D01*
X60605285Y-76321182D01*
X60614431Y-76324435D01*
X60705358Y-76358307D01*
X60789203Y-76392935D01*
X60868763Y-76429608D01*
X60946835Y-76469615D01*
X61026070Y-76514161D01*
X61148891Y-76590105D01*
X61268131Y-76672276D01*
X61384852Y-76761503D01*
X61500117Y-76858612D01*
X61614987Y-76964429D01*
X61656866Y-77005227D01*
X61734743Y-77082179D01*
X61698910Y-77118592D01*
X61681051Y-77135831D01*
X61658165Y-77156605D01*
X61633071Y-77178417D01*
X61608586Y-77198774D01*
X61606194Y-77200702D01*
X61583261Y-77219229D01*
X61560536Y-77237769D01*
X61540361Y-77254402D01*
X61525074Y-77267206D01*
X61522630Y-77269292D01*
X61501636Y-77285143D01*
X61482307Y-77294011D01*
X61462065Y-77296264D01*
X61438334Y-77292267D01*
X61414635Y-77284646D01*
X61377298Y-77266852D01*
X61345795Y-77242256D01*
X61318688Y-77209657D01*
X61311231Y-77198191D01*
X61299362Y-77180903D01*
X61288197Y-77170010D01*
X61274752Y-77162729D01*
X61272061Y-77161664D01*
X61259740Y-77155601D01*
X61247709Y-77146259D01*
X61234051Y-77131892D01*
X61218539Y-77112908D01*
X61184976Y-77073440D01*
X61150839Y-77040601D01*
X61113345Y-77012102D01*
X61069713Y-76985652D01*
X61053428Y-76976948D01*
X61030706Y-76965962D01*
X61000729Y-76952697D01*
X60965627Y-76938000D01*
X60927533Y-76922719D01*
X60888577Y-76907700D01*
X60850890Y-76893790D01*
X60816603Y-76881837D01*
X60802396Y-76877176D01*
X60778174Y-76869665D01*
X60751949Y-76861923D01*
X60725403Y-76854401D01*
X60700217Y-76847546D01*
X60678075Y-76841810D01*
X60660658Y-76837640D01*
X60649649Y-76835488D01*
X60646583Y-76835548D01*
X60648344Y-76841786D01*
X60653280Y-76855861D01*
X60660869Y-76876434D01*
X60670591Y-76902165D01*
X60681925Y-76931715D01*
X60694351Y-76963744D01*
X60707346Y-76996914D01*
X60720391Y-77029883D01*
X60732964Y-77061313D01*
X60744544Y-77089865D01*
X60754611Y-77114199D01*
X60758768Y-77124024D01*
X60798312Y-77212668D01*
X60839561Y-77297751D01*
X60882065Y-77378568D01*
X60925374Y-77454419D01*
X60969037Y-77524600D01*
X61012605Y-77588409D01*
X61055626Y-77645145D01*
X61097652Y-77694104D01*
X61138231Y-77734585D01*
X61164107Y-77756398D01*
X61184514Y-77772238D01*
X61198005Y-77733975D01*
X61216275Y-77689038D01*
X61240574Y-77639985D01*
X61269607Y-77589344D01*
X61283615Y-77567104D01*
X61336784Y-77494079D01*
X61398175Y-77426155D01*
X61467347Y-77363655D01*
X61543860Y-77306901D01*
X61627275Y-77256214D01*
X61717150Y-77211917D01*
X61813047Y-77174331D01*
X61827035Y-77169588D01*
X61872129Y-77155222D01*
X61915997Y-77142696D01*
X61959811Y-77131839D01*
X62004745Y-77122484D01*
X62051970Y-77114462D01*
X62102662Y-77107604D01*
X62157992Y-77101740D01*
X62219133Y-77096703D01*
X62287260Y-77092324D01*
X62363543Y-77088433D01*
X62403124Y-77086702D01*
X62470454Y-77083886D01*
X62476364Y-77041074D01*
X62479246Y-77022478D01*
X62483695Y-76996587D01*
X62489278Y-76965793D01*
X62495561Y-76932489D01*
X62502057Y-76899334D01*
X62523856Y-76796945D01*
X62546992Y-76700862D01*
X62571325Y-76611410D01*
X62596715Y-76528910D01*
X62623023Y-76453688D01*
X62650107Y-76386065D01*
X62677828Y-76326366D01*
X62706046Y-76274914D01*
X62734621Y-76232033D01*
X62763413Y-76198045D01*
X62792281Y-76173274D01*
X62821086Y-76158043D01*
X62823461Y-76157221D01*
X62853549Y-76151978D01*
X62882300Y-76156264D01*
X62908875Y-76169724D01*
X62932439Y-76192005D01*
X62943883Y-76208004D01*
X62956786Y-76231453D01*
X62971706Y-76263447D01*
X62988282Y-76302925D01*
X63006154Y-76348830D01*
X63024960Y-76400103D01*
X63044341Y-76455685D01*
X63063934Y-76514516D01*
X63083381Y-76575539D01*
X63102319Y-76637694D01*
X63120388Y-76699923D01*
X63137228Y-76761166D01*
X63152435Y-76820191D01*
X63160416Y-76853409D01*
X63168957Y-76890782D01*
X63177849Y-76931237D01*
X63186886Y-76973702D01*
X63195861Y-77017102D01*
X63204566Y-77060365D01*
X63212793Y-77102417D01*
X63220336Y-77142184D01*
X63226988Y-77178594D01*
X63232540Y-77210574D01*
X63236786Y-77237049D01*
X63239519Y-77256947D01*
X63240531Y-77269194D01*
X63239839Y-77272791D01*
X63236822Y-77268490D01*
X63230323Y-77256415D01*
X63220929Y-77237809D01*
X63209228Y-77213914D01*
X63195809Y-77185973D01*
X63181259Y-77155229D01*
X63166167Y-77122924D01*
X63151121Y-77090300D01*
X63136708Y-77058602D01*
X63123518Y-77029070D01*
X63112249Y-77003210D01*
X63101031Y-76976640D01*
X63086974Y-76942740D01*
X63070847Y-76903395D01*
X63053414Y-76860487D01*
X63035444Y-76815899D01*
X63017702Y-76771516D01*
X63007574Y-76745994D01*
X62979201Y-76674315D01*
X62954232Y-76611339D01*
X62932464Y-76556557D01*
X62913692Y-76509463D01*
X62897713Y-76469546D01*
X62884323Y-76436300D01*
X62873317Y-76409216D01*
X62864492Y-76387786D01*
X62857644Y-76371501D01*
X62852888Y-76360570D01*
X62839826Y-76331289D01*
X62807126Y-76385746D01*
X62787330Y-76419748D01*
X62767101Y-76456657D01*
X62746029Y-76497334D01*
X62723701Y-76542639D01*
X62699707Y-76593433D01*
X62673634Y-76650575D01*
X62645072Y-76714927D01*
X62613609Y-76787350D01*
X62600570Y-76817718D01*
X62584593Y-76854529D01*
X62566951Y-76894328D01*
X62548974Y-76934168D01*
X62531995Y-76971100D01*
X62517344Y-77002176D01*
X62515921Y-77005133D01*
X62476804Y-77086200D01*
X62502755Y-77082965D01*
X62514680Y-77082025D01*
X62534872Y-77081048D01*
X62561704Y-77080086D01*
X62593550Y-77079191D01*
X62628784Y-77078415D01*
X62662260Y-77077859D01*
X62695640Y-77077442D01*
X62723909Y-77077190D01*
X62746144Y-77077103D01*
X62761424Y-77077179D01*
X62768828Y-77077418D01*
X62767432Y-77077821D01*
X62766135Y-77077913D01*
X62723458Y-77080941D01*
X62673731Y-77084906D01*
X62618657Y-77089642D01*
X62559941Y-77094978D01*
X62499286Y-77100746D01*
X62438395Y-77106779D01*
X62378974Y-77112906D01*
X62322725Y-77118961D01*
X62271351Y-77124773D01*
X62226558Y-77130175D01*
X62192347Y-77134677D01*
X62085053Y-77152184D01*
X61986138Y-77173787D01*
X61894829Y-77199821D01*
X61810354Y-77230624D01*
X61731940Y-77266532D01*
X61658814Y-77307882D01*
X61590205Y-77355011D01*
X61525339Y-77408255D01*
X61490621Y-77440617D01*
X61432834Y-77502259D01*
X61382576Y-77567152D01*
X61340293Y-77634477D01*
X61306431Y-77703419D01*
X61281434Y-77773162D01*
X61265747Y-77842889D01*
X61263804Y-77856471D01*
X61260934Y-77876061D01*
X61257998Y-77891847D01*
X61255496Y-77901277D01*
X61254795Y-77902627D01*
X61248892Y-77902790D01*
X61236243Y-77899669D01*
X61219187Y-77893889D01*
X61212303Y-77891233D01*
X61155826Y-77864234D01*
X61099623Y-77828299D01*
X61043624Y-77783337D01*
X60987763Y-77729257D01*
X60931971Y-77665968D01*
X60876180Y-77593380D01*
X60820323Y-77511401D01*
X60764331Y-77419941D01*
X60708136Y-77318910D01*
X60651672Y-77208216D01*
X60594869Y-77087768D01*
X60570294Y-77032888D01*
X60557874Y-77004248D01*
X60543965Y-76971338D01*
X60528995Y-76935244D01*
X60513389Y-76897052D01*
X60497575Y-76857849D01*
X60481980Y-76818721D01*
X60467030Y-76780754D01*
X60453152Y-76745033D01*
X60440772Y-76712646D01*
X60430318Y-76684678D01*
X60422216Y-76662216D01*
X60416893Y-76646346D01*
X60414776Y-76638153D01*
X60414869Y-76637303D01*
X60418875Y-76637256D01*
X60429710Y-76638646D01*
X60447901Y-76641560D01*
X60473975Y-76646091D01*
X60508457Y-76652326D01*
X60551875Y-76660357D01*
X60574860Y-76664654D01*
X60680898Y-76687966D01*
X60791840Y-76718993D01*
X60906767Y-76757456D01*
X61015633Y-76799331D01*
X61092153Y-76833323D01*
X61159265Y-76869083D01*
X61217334Y-76906853D01*
X61266727Y-76946876D01*
X61307810Y-76989396D01*
X61314665Y-76997725D01*
X61331835Y-77016917D01*
X61348370Y-77031402D01*
X61358836Y-77037819D01*
X61382523Y-77053171D01*
X61406606Y-77077849D01*
X61430209Y-77110751D01*
X61448155Y-77139149D01*
X61474152Y-77117974D01*
X61489584Y-77105577D01*
X61503733Y-77094504D01*
X61512363Y-77088013D01*
X61524577Y-77079227D01*
X61487479Y-77044663D01*
X61376247Y-76944923D01*
X61266190Y-76854257D01*
X61156370Y-76772074D01*
X61045850Y-76697784D01*
X60933693Y-76630794D01*
X60818961Y-76570514D01*
X60700717Y-76516353D01*
X60578024Y-76467721D01*
X60564967Y-76462955D01*
X60535708Y-76452355D01*
X60506055Y-76441604D01*
X60478895Y-76431751D01*
X60457119Y-76423843D01*
X60451198Y-76421690D01*
X60412319Y-76410362D01*
X60379153Y-76406993D01*
X60351255Y-76411800D01*
X60328181Y-76424998D01*
X60309488Y-76446805D01*
X60294732Y-76477435D01*
X60287226Y-76501474D01*
X60283407Y-76522552D01*
X60280687Y-76551377D01*
X60279063Y-76585865D01*
X60278534Y-76623931D01*
X60279100Y-76663491D01*
X60280758Y-76702460D01*
X60283507Y-76738755D01*
X60287345Y-76770289D01*
X60287413Y-76770727D01*
X60299871Y-76839574D01*
X60317088Y-76916574D01*
X60338904Y-77001294D01*
X60365162Y-77093301D01*
X60395704Y-77192164D01*
X60430372Y-77297450D01*
X60469008Y-77408726D01*
X60511454Y-77525559D01*
X60557552Y-77647518D01*
X60607144Y-77774170D01*
X60660072Y-77905081D01*
X60716179Y-78039821D01*
X60775306Y-78177956D01*
X60837295Y-78319053D01*
X60901988Y-78462681D01*
X60918556Y-78498912D01*
X60934432Y-78533673D01*
X60946564Y-78560753D01*
X60955411Y-78581428D01*
X60961430Y-78596972D01*
X60965079Y-78608661D01*
X60966815Y-78617770D01*
X60967097Y-78625574D01*
X60966495Y-78632466D01*
X60965110Y-78642720D01*
X60962468Y-78661443D01*
X60958757Y-78687321D01*
X60954168Y-78719036D01*
X60948892Y-78755273D01*
X60943119Y-78794716D01*
X60938523Y-78825975D01*
X60927767Y-78899024D01*
X60918209Y-78963993D01*
X60909601Y-79022590D01*
X60901692Y-79076519D01*
X60894235Y-79127488D01*
X60886979Y-79177203D01*
X60879675Y-79227371D01*
X60872074Y-79279699D01*
X60863926Y-79335892D01*
X60854982Y-79397657D01*
X60854320Y-79402236D01*
X60846864Y-79453578D01*
X60838851Y-79508442D01*
X60830618Y-79564553D01*
X60822497Y-79619638D01*
X60814826Y-79671421D01*
X60807939Y-79717628D01*
X60802930Y-79750960D01*
X60793388Y-79814484D01*
X60785297Y-79869288D01*
X60778540Y-79916418D01*
X60773001Y-79956924D01*
X60768564Y-79991852D01*
X60765114Y-80022249D01*
X60762535Y-80049165D01*
X60760710Y-80073646D01*
X60759523Y-80096740D01*
X60758860Y-80119495D01*
X60758603Y-80142958D01*
X60758588Y-80151622D01*
X60762097Y-80243773D01*
X60772891Y-80331463D01*
X60791412Y-80416607D01*
X60818101Y-80501118D01*
X60853400Y-80586911D01*
X60864427Y-80610464D01*
X60902741Y-80685663D01*
X60942166Y-80753479D01*
X60972363Y-80799607D01*
X61041951Y-80892422D01*
X61120199Y-80981422D01*
X61206505Y-81066276D01*
X61300269Y-81146653D01*
X61400891Y-81222220D01*
X61507770Y-81292648D01*
X61620306Y-81357602D01*
X61737898Y-81416754D01*
X61859945Y-81469770D01*
X61985848Y-81516319D01*
X62115006Y-81556070D01*
X62246818Y-81588691D01*
X62380684Y-81613850D01*
X62469348Y-81626145D01*
X62512565Y-81630435D01*
X62562793Y-81633996D01*
X62617759Y-81636774D01*
X62675188Y-81638719D01*
X62732806Y-81639778D01*
X62788338Y-81639898D01*
X62839511Y-81639027D01*
X62884050Y-81637113D01*
X62899689Y-81636029D01*
X62997296Y-81625670D01*
X63087184Y-81610359D01*
X63170476Y-81589582D01*
X63248298Y-81562820D01*
X63321772Y-81529560D01*
X63392024Y-81489284D01*
X63460176Y-81441476D01*
X63527354Y-81385620D01*
X63594681Y-81321200D01*
X63602320Y-81313387D01*
X63653777Y-81256557D01*
X63697062Y-81199845D01*
X63732977Y-81141630D01*
X63762322Y-81080292D01*
X63785897Y-81014209D01*
X63804503Y-80941759D01*
X63815922Y-80880765D01*
X63820160Y-80845969D01*
X63823072Y-80803636D01*
X63824674Y-80756029D01*
X63824985Y-80705411D01*
X63824023Y-80654046D01*
X63821806Y-80604197D01*
X63818351Y-80558129D01*
X63813676Y-80518103D01*
X63813020Y-80513723D01*
X63796466Y-80421536D01*
X63774825Y-80325232D01*
X63749041Y-80228537D01*
X63720060Y-80135176D01*
X63708301Y-80101054D01*
X63687712Y-80043067D01*
X63657265Y-80063627D01*
X63579264Y-80119622D01*
X63508125Y-80177500D01*
X63444265Y-80236778D01*
X63388099Y-80296972D01*
X63340043Y-80357601D01*
X63300514Y-80418182D01*
X63269928Y-80478231D01*
X63248701Y-80537267D01*
X63248558Y-80537778D01*
X63237224Y-80595428D01*
X63234722Y-80654284D01*
X63241001Y-80712300D01*
X63254256Y-80762508D01*
X63257451Y-80771689D01*
X63260515Y-80780133D01*
X63263812Y-80788414D01*
X63267706Y-80797108D01*
X63272560Y-80806790D01*
X63278737Y-80818032D01*
X63286601Y-80831410D01*
X63296515Y-80847499D01*
X63308842Y-80866872D01*
X63323946Y-80890105D01*
X63342191Y-80917772D01*
X63363938Y-80950446D01*
X63389553Y-80988704D01*
X63419398Y-81033118D01*
X63453837Y-81084265D01*
X63493232Y-81142717D01*
X63517858Y-81179247D01*
X63538275Y-81209638D01*
X63556656Y-81237197D01*
X63572335Y-81260911D01*
X63584647Y-81279768D01*
X63592929Y-81292755D01*
X63596515Y-81298860D01*
X63596582Y-81299198D01*
X63592069Y-81296142D01*
X63582618Y-81288241D01*
X63573532Y-81280150D01*
X63564942Y-81272610D01*
X63549759Y-81259590D01*
X63528994Y-81241943D01*
X63503654Y-81220522D01*
X63474749Y-81196180D01*
X63443287Y-81169770D01*
X63411646Y-81143289D01*
X63356506Y-81097071D01*
X63308431Y-81056416D01*
X63266779Y-81020687D01*
X63230907Y-80989246D01*
X63200172Y-80961454D01*
X63173931Y-80936675D01*
X63151543Y-80914270D01*
X63132365Y-80893600D01*
X63115753Y-80874029D01*
X63101065Y-80854918D01*
X63087659Y-80835629D01*
X63074892Y-80815525D01*
X63065348Y-80799527D01*
X63031926Y-80732889D01*
X63008074Y-80664072D01*
X62993823Y-80593509D01*
X62989200Y-80521631D01*
X62994235Y-80448869D01*
X63008956Y-80375656D01*
X63025003Y-80327221D01*
X63179163Y-80327221D01*
X63181637Y-80329694D01*
X63184110Y-80327221D01*
X63181637Y-80324748D01*
X63179163Y-80327221D01*
X63025003Y-80327221D01*
X63032366Y-80304997D01*
X63056758Y-80250494D01*
G37*
%TO.C,R4*%
X61172500Y-56172742D02*
X61172500Y-56647258D01*
X60127500Y-56172742D02*
X60127500Y-56647258D01*
%TO.C,R8*%
X73382742Y-83177500D02*
X73857258Y-83177500D01*
X73382742Y-84222500D02*
X73857258Y-84222500D01*
%TO.C,C13*%
X72850000Y-50090580D02*
X72850000Y-49809420D01*
X71830000Y-50090580D02*
X71830000Y-49809420D01*
%TO.C,C5*%
X75454420Y-71275000D02*
X75735580Y-71275000D01*
X75454420Y-70255000D02*
X75735580Y-70255000D01*
D13*
%TO.C,SW1*%
X63155159Y-48806700D02*
X62381841Y-48806700D01*
X64597300Y-53454900D02*
X64597300Y-48806700D01*
X60939700Y-48806700D02*
X60939700Y-53454900D01*
X62381841Y-53454900D02*
X63155159Y-53454900D01*
D12*
%TO.C,C3*%
X68680000Y-80029420D02*
X68680000Y-80310580D01*
X67660000Y-80029420D02*
X67660000Y-80310580D01*
%TO.C,D1*%
X75035000Y-51375000D02*
X75035000Y-49090000D01*
X75035000Y-49090000D02*
X73565000Y-49090000D01*
X73565000Y-49090000D02*
X73565000Y-51375000D01*
%TO.C,C11*%
X70440000Y-80059420D02*
X70440000Y-80340580D01*
X69420000Y-80059420D02*
X69420000Y-80340580D01*
%TO.C,C8*%
X75640000Y-66515580D02*
X75640000Y-66234420D01*
X74620000Y-66515580D02*
X74620000Y-66234420D01*
%TO.C,C9*%
X73930000Y-66515580D02*
X73930000Y-66234420D01*
X72910000Y-66515580D02*
X72910000Y-66234420D01*
%TO.C,C4*%
X75634420Y-74615000D02*
X75915580Y-74615000D01*
X75634420Y-75635000D02*
X75915580Y-75635000D01*
%TO.C,C2*%
X62700580Y-74010000D02*
X62419420Y-74010000D01*
X62700580Y-75030000D02*
X62419420Y-75030000D01*
%TD*%
%LPC*%
D14*
%TO.C,R2*%
X71835000Y-67200000D03*
X71835000Y-65550000D03*
%TD*%
D15*
%TO.C,C10*%
X67100000Y-66650000D03*
X67100000Y-65100000D03*
%TD*%
D16*
%TO.C,J1*%
X70087500Y-44160000D03*
X69437500Y-44160000D03*
X68787500Y-44160000D03*
X68137500Y-44160000D03*
X67487500Y-44160000D03*
D17*
X66287500Y-44160000D03*
D18*
X69787500Y-41460000D03*
D19*
X65287500Y-41460000D03*
D17*
X71287500Y-44160000D03*
D20*
X71687500Y-41460000D03*
D18*
X67787500Y-41460000D03*
D20*
X65887500Y-41460000D03*
D19*
X72287500Y-41460000D03*
%TD*%
D21*
%TO.C,C14*%
X66205000Y-56700000D03*
X64655000Y-56700000D03*
%TD*%
D22*
%TO.C,H2*%
X75800000Y-94425000D03*
%TD*%
D23*
%TO.C,D3*%
X75497500Y-79450000D03*
X73922500Y-79450000D03*
%TD*%
D24*
%TO.C,U2*%
X71990000Y-53730000D03*
X74290000Y-53730000D03*
D25*
X74290000Y-60030000D03*
D24*
X76590000Y-53730000D03*
%TD*%
D15*
%TO.C,C7*%
X68665000Y-67150000D03*
X68665000Y-65600000D03*
%TD*%
D26*
%TO.C,C6*%
X74820000Y-69140000D03*
X76370000Y-69140000D03*
%TD*%
D27*
%TO.C,U3*%
X60940000Y-59055000D03*
X60940000Y-60325000D03*
X60940000Y-61595000D03*
X60940000Y-62865000D03*
X68140000Y-62865000D03*
X68140000Y-61595000D03*
X68140000Y-60325000D03*
X68140000Y-59055000D03*
%TD*%
D28*
%TO.C,U1*%
X65512500Y-70700000D03*
X65512500Y-71100000D03*
X65512500Y-71500000D03*
X65512500Y-71900000D03*
X65512500Y-72300000D03*
X65512500Y-72700000D03*
X65512500Y-73100000D03*
X65512500Y-73500000D03*
X65512500Y-73900000D03*
X65512500Y-74300000D03*
X65512500Y-74700000D03*
X65512500Y-75100000D03*
X65512500Y-75500000D03*
X65512500Y-75900000D03*
D29*
X66350000Y-76737500D03*
X66750000Y-76737500D03*
X67150000Y-76737500D03*
X67550000Y-76737500D03*
X67950000Y-76737500D03*
X68350000Y-76737500D03*
X68750000Y-76737500D03*
X69150000Y-76737500D03*
X69550000Y-76737500D03*
X69950000Y-76737500D03*
X70350000Y-76737500D03*
X70750000Y-76737500D03*
X71150000Y-76737500D03*
X71550000Y-76737500D03*
D28*
X72387500Y-75900000D03*
X72387500Y-75500000D03*
X72387500Y-75100000D03*
X72387500Y-74700000D03*
X72387500Y-74300000D03*
X72387500Y-73900000D03*
X72387500Y-73500000D03*
X72387500Y-73100000D03*
X72387500Y-72700000D03*
X72387500Y-72300000D03*
X72387500Y-71900000D03*
X72387500Y-71500000D03*
X72387500Y-71100000D03*
X72387500Y-70700000D03*
D29*
X71550000Y-69862500D03*
X71150000Y-69862500D03*
X70750000Y-69862500D03*
X70350000Y-69862500D03*
X69950000Y-69862500D03*
X69550000Y-69862500D03*
X69150000Y-69862500D03*
X68750000Y-69862500D03*
X68350000Y-69862500D03*
X67950000Y-69862500D03*
X67550000Y-69862500D03*
X67150000Y-69862500D03*
X66750000Y-69862500D03*
X66350000Y-69862500D03*
D30*
X68950000Y-73300000D03*
%TD*%
D31*
%TO.C,R5*%
X69920000Y-85510000D03*
X68270000Y-85510000D03*
%TD*%
D32*
%TO.C,R3*%
X63900000Y-66185000D03*
X63900000Y-67835000D03*
%TD*%
D21*
%TO.C,C1*%
X63615000Y-70010000D03*
X62065000Y-70010000D03*
%TD*%
D14*
%TO.C,R1*%
X70250000Y-67200000D03*
X70250000Y-65550000D03*
%TD*%
D26*
%TO.C,C15*%
X72840000Y-85520000D03*
X74390000Y-85520000D03*
%TD*%
D21*
%TO.C,C12*%
X74925000Y-62300000D03*
X73375000Y-62300000D03*
%TD*%
D33*
%TO.C,Y1*%
X64325000Y-89125000D03*
X73325000Y-89125000D03*
%TD*%
D32*
%TO.C,R6*%
X74325000Y-46000000D03*
X74325000Y-47650000D03*
%TD*%
D26*
%TO.C,C16*%
X63172500Y-85520000D03*
X64722500Y-85520000D03*
%TD*%
D22*
%TO.C,H4*%
X61775000Y-94425000D03*
%TD*%
D32*
%TO.C,R4*%
X60650000Y-55585000D03*
X60650000Y-57235000D03*
%TD*%
D22*
%TO.C,H3*%
X60675000Y-42775000D03*
%TD*%
D34*
%TO.C,R8*%
X72795000Y-83700000D03*
X74445000Y-83700000D03*
%TD*%
D15*
%TO.C,C13*%
X72340000Y-50725000D03*
X72340000Y-49175000D03*
%TD*%
D26*
%TO.C,C5*%
X74820000Y-70765000D03*
X76370000Y-70765000D03*
%TD*%
D35*
%TO.C,SW1*%
X63843499Y-48880799D03*
X63843499Y-53380801D03*
X61693501Y-48880799D03*
X61693501Y-53380801D03*
%TD*%
D36*
%TO.C,C3*%
X68170000Y-79395000D03*
X68170000Y-80945000D03*
%TD*%
D37*
%TO.C,D1*%
X74300000Y-49787500D03*
X74300000Y-51362500D03*
%TD*%
D36*
%TO.C,C11*%
X69930000Y-79425000D03*
X69930000Y-80975000D03*
%TD*%
D15*
%TO.C,C8*%
X75130000Y-67150000D03*
X75130000Y-65600000D03*
%TD*%
%TO.C,C9*%
X73420000Y-67150000D03*
X73420000Y-65600000D03*
%TD*%
D22*
%TO.C,H1*%
X77125000Y-42775000D03*
%TD*%
D26*
%TO.C,C4*%
X75000000Y-75125000D03*
X76550000Y-75125000D03*
%TD*%
D21*
%TO.C,C2*%
X63335000Y-74520000D03*
X61785000Y-74520000D03*
%TD*%
D38*
%TO.C,J3*%
X80225000Y-94975000D03*
D39*
X80225000Y-92435000D03*
X80225000Y-89895000D03*
X80225000Y-87355000D03*
X80225000Y-84815000D03*
X80225000Y-82275000D03*
X80225000Y-79735000D03*
X80225000Y-77195000D03*
X80225000Y-74655000D03*
X80225000Y-72115000D03*
X80225000Y-69575000D03*
X80225000Y-67035000D03*
X80225000Y-64495000D03*
X80225000Y-61955000D03*
X80225000Y-59415000D03*
X80225000Y-56875000D03*
X80225000Y-54335000D03*
X80225000Y-51795000D03*
X80225000Y-49255000D03*
X80225000Y-46715000D03*
%TD*%
D38*
%TO.C,J2*%
X57350000Y-46725000D03*
D39*
X57350000Y-49265000D03*
X57350000Y-51805000D03*
X57350000Y-54345000D03*
X57350000Y-56885000D03*
X57350000Y-59425000D03*
X57350000Y-61965000D03*
X57350000Y-64505000D03*
X57350000Y-67045000D03*
X57350000Y-69585000D03*
X57350000Y-72125000D03*
X57350000Y-74665000D03*
X57350000Y-77205000D03*
X57350000Y-79745000D03*
X57350000Y-82285000D03*
X57350000Y-84825000D03*
X57350000Y-87365000D03*
X57350000Y-89905000D03*
X57350000Y-92445000D03*
X57350000Y-94985000D03*
%TD*%
D38*
%TO.C,J4*%
X66250000Y-94975000D03*
D39*
X68790000Y-94975000D03*
X71330000Y-94975000D03*
%TD*%
M02*
